SplineFontDB: 3.2
FontName: PassionOne-Share-Bold
FullName: Passion One Share Bold
FamilyName: Passion One Share
Weight: Bold
Copyright: Copyright (c) 2011 Fontstage (info@fontstage.com), with Reserved Font Name "Passion"\n"Fair and Share" glphys created by Vector Hasting and released under CC 4.0 SA-BY
Version: 1.002
ItalicAngle: 0
UnderlinePosition: -102
UnderlineWidth: 51
Ascent: 819
Descent: 205
InvalidEm: 0
sfntRevision: 0x00010083
LayerCount: 2
Layer: 0 1 "Back" 1
Layer: 1 1 "Fore" 0
XUID: [1021 508 542950195 364]
StyleMap: 0x0020
FSType: 0
OS2Version: 2
OS2_WeightWidthSlopeOnly: 0
OS2_UseTypoMetrics: 0
CreationTime: 1323135789
ModificationTime: 1758757782
PfmFamily: 17
TTFWeight: 700
TTFWidth: 5
LineGap: 0
VLineGap: 0
Panose: 2 0 5 6 5 0 0 2 0 4
OS2TypoAscent: 855
OS2TypoAOffset: 0
OS2TypoDescent: -272
OS2TypoDOffset: 0
OS2TypoLinegap: 0
OS2WinAscent: 855
OS2WinAOffset: 0
OS2WinDescent: 272
OS2WinDOffset: 0
HheadAscent: 855
HheadAOffset: 0
HheadDescent: -272
HheadDOffset: 0
OS2SubXSize: 717
OS2SubYSize: 666
OS2SubXOff: 0
OS2SubYOff: 143
OS2SupXSize: 717
OS2SupYSize: 666
OS2SupXOff: 0
OS2SupYOff: 488
OS2StrikeYSize: 51
OS2StrikeYPos: 256
OS2CapHeight: 636
OS2XHeight: 490
OS2Vendor: 'PYRS'
OS2CodePages: 20000001.00000000
OS2UnicodeRanges: 800000ef.4000204a.00000000.00000000
MarkAttachClasses: 1
DEI: 91125
TtTable: prep
PUSHW_1
 511
SCANCTRL
PUSHB_1
 4
SCANTYPE
EndTTInstrs
ShortTable: maxp 16
  1
  0
  269
  76
  7
  0
  0
  2
  0
  1
  1
  0
  64
  0
  0
  0
EndShort
LangName: 1033 "" "" "" "" "" "Version 1.002" "" "Passion is a trademark of Fontstage." "Fontstage" "Alejandro Lo Celso" "" "www.fontstage.com" "www.fontstage.com" "This Font Software is licensed under the SIL Open Font License, Version 1.1. This license is available with a FAQ at: http://scripts.sil.org/OFL" "http://scripts.sil.org/OFL"
GaspTable: 1 65535 15 1
Encoding: UnicodeBmp
UnicodeInterp: none
NameList: AGL For New Fonts
DisplaySize: -72
AntiAlias: 1
FitToEm: 0
WinInfo: 57344 14 5

StartChar: exclam
Encoding: 33 33 4
Width: 337
GlyphClass: 2
Flags: W
LayerCount: 2
Fore
SplineSet
96 180 m 1,0,-1
 84 636 l 1,1,-1
 289 636 l 1,2,-1
 273 180 l 1,3,-1
 96 180 l 1,0,-1
109.5 10 m 128,-1,5
 87 30 87 30 87 72 c 128,-1,6
 87 114 87 114 109 134 c 128,-1,7
 131 154 131 154 187.5 154 c 128,-1,8
 244 154 244 154 265.5 134 c 128,-1,9
 287 114 287 114 287 72 c 128,-1,10
 287 30 287 30 265 10 c 128,-1,11
 243 -10 243 -10 187.5 -10 c 128,-1,4
 132 -10 132 -10 109.5 10 c 128,-1,5
EndSplineSet
EndChar

StartChar: quotedbl
Encoding: 34 34 5
Width: 499
GlyphClass: 2
Flags: W
LayerCount: 2
Fore
SplineSet
69.5 651 m 128,-1,1
 95 671 95 671 150 671 c 128,-1,2
 205 671 205 671 228.5 648 c 128,-1,3
 252 625 252 625 252 570.5 c 128,-1,4
 252 516 252 516 218.5 476.5 c 128,-1,5
 185 437 185 437 126 401 c 1,6,-1
 37 415 l 1,7,-1
 108 510 l 1,8,9
 74 517 74 517 59 533.5 c 128,-1,10
 44 550 44 550 44 590.5 c 128,-1,0
 44 631 44 631 69.5 651 c 128,-1,1
292.5 651 m 128,-1,12
 318 671 318 671 373 671 c 128,-1,13
 428 671 428 671 451.5 648 c 128,-1,14
 475 625 475 625 475 570.5 c 128,-1,15
 475 516 475 516 442 476.5 c 128,-1,16
 409 437 409 437 349 401 c 1,17,-1
 260 415 l 1,18,-1
 331 510 l 1,19,20
 297 517 297 517 282 533.5 c 128,-1,21
 267 550 267 550 267 590.5 c 128,-1,11
 267 631 267 631 292.5 651 c 128,-1,12
EndSplineSet
EndChar

StartChar: numbersign
Encoding: 35 35 6
Width: 567
GlyphClass: 2
Flags: W
LayerCount: 2
Fore
SplineSet
547 319 m 1,0,-1
 463 319 l 1,1,-1
 458 292 l 1,2,-1
 523 292 l 1,3,-1
 523 153 l 1,4,-1
 437 153 l 1,5,-1
 414 0 l 1,6,-1
 251 0 l 1,7,-1
 272 153 l 1,8,-1
 247 153 l 1,9,-1
 223 0 l 1,10,-1
 52 0 l 1,11,-1
 78 153 l 1,12,-1
 20 153 l 1,13,-1
 20 292 l 1,14,-1
 100 292 l 1,15,-1
 105 319 l 1,16,-1
 45 319 l 1,17,-1
 45 457 l 1,18,-1
 125 457 l 1,19,-1
 151 606 l 1,20,-1
 316 606 l 1,21,-1
 294 457 l 1,22,-1
 317 457 l 1,23,-1
 340 606 l 1,24,-1
 506 606 l 1,25,-1
 483 457 l 1,26,-1
 547 457 l 1,27,-1
 547 319 l 1,0,-1
300 325 m 1,28,-1
 271 325 l 1,29,-1
 264 287 l 1,30,-1
 293 287 l 1,31,-1
 300 325 l 1,28,-1
EndSplineSet
EndChar

StartChar: dollar
Encoding: 36 36 7
Width: 539
GlyphClass: 2
Flags: W
LayerCount: 2
Fore
SplineSet
33 431 m 0,0,1
 33 592 33 592 185 634 c 1,2,-1
 185 727 l 1,3,-1
 356 727 l 1,4,-1
 356 642 l 1,5,6
 448 633 448 633 489 626 c 1,7,-1
 466 445 l 1,8,9
 338 471 338 471 298 471 c 128,-1,10
 258 471 258 471 258 446 c 0,11,12
 258 437 258 437 264 433.5 c 128,-1,13
 270 430 270 430 273 428 c 128,-1,14
 276 426 276 426 285 423 c 128,-1,15
 294 420 294 420 299.5 417.5 c 128,-1,16
 305 415 305 415 336.5 402 c 128,-1,17
 368 389 368 389 383.5 381.5 c 128,-1,18
 399 374 399 374 427 356 c 0,19,20
 507 304 507 304 507 199 c 0,21,22
 507 127 507 127 467 73 c 128,-1,23
 427 19 427 19 356 2 c 1,24,-1
 356 -84 l 1,25,-1
 185 -84 l 1,26,-1
 185 -5 l 1,27,28
 115 1 115 1 51 17 c 1,29,-1
 66 190 l 1,30,31
 203 155 203 155 251 156 c 0,32,33
 283 156 283 156 283 178 c 0,34,35
 283 188 283 188 275 194.5 c 128,-1,36
 267 201 267 201 252.5 208 c 128,-1,37
 238 215 238 215 209 227 c 128,-1,38
 180 239 180 239 160.5 247.5 c 128,-1,39
 141 256 141 256 115 274 c 0,40,41
 33 331 33 331 33 431 c 0,0,1
EndSplineSet
EndChar

StartChar: percent
Encoding: 37 37 8
Width: 951
GlyphClass: 2
Flags: W
LayerCount: 2
Fore
SplineSet
653 636 m 1,0,-1
 450 0 l 1,1,-1
 299 0 l 1,2,-1
 502 636 l 1,3,-1
 653 636 l 1,0,-1
234 409 m 2,4,-1
 234 453 l 2,5,6
 234 488 234 488 230.5 497 c 128,-1,7
 227 506 227 506 222.5 516 c 128,-1,8
 218 526 218 526 202 526 c 128,-1,9
 186 526 186 526 179 520 c 0,10,11
 165 510 165 510 165 422 c 2,12,-1
 165 409 l 2,13,14
 165 347 165 347 169 326 c 128,-1,15
 173 305 173 305 180.5 299 c 128,-1,16
 188 293 188 293 202 293 c 0,17,18
 225 293 225 293 229.5 317 c 128,-1,19
 234 341 234 341 234 409 c 2,4,-1
341.5 591 m 128,-1,21
 378 536 378 536 378 415.5 c 128,-1,22
 378 295 378 295 341.5 240.5 c 128,-1,23
 305 186 305 186 200 186 c 128,-1,24
 95 186 95 186 57.5 241 c 128,-1,25
 20 296 20 296 20 415.5 c 128,-1,26
 20 535 20 535 57 590.5 c 128,-1,27
 94 646 94 646 199.5 646 c 128,-1,20
 305 646 305 646 341.5 591 c 128,-1,21
787 212 m 2,28,-1
 787 256 l 2,29,30
 787 291 787 291 783.5 300 c 128,-1,31
 780 309 780 309 775.5 319.5 c 128,-1,32
 771 330 771 330 755 330 c 128,-1,33
 739 330 739 330 732 324 c 0,34,35
 718 314 718 314 718 225 c 2,36,-1
 718 212 l 2,37,38
 718 150 718 150 722 129.5 c 128,-1,39
 726 109 726 109 733.5 102.5 c 128,-1,40
 741 96 741 96 755 96 c 0,41,42
 778 96 778 96 782.5 120 c 128,-1,43
 787 144 787 144 787 212 c 2,28,-1
894.5 394.5 m 128,-1,45
 931 339 931 339 931 218.5 c 128,-1,46
 931 98 931 98 894.5 44 c 128,-1,47
 858 -10 858 -10 753 -10 c 128,-1,48
 648 -10 648 -10 610.5 44.5 c 128,-1,49
 573 99 573 99 573 218.5 c 128,-1,50
 573 338 573 338 610 394 c 128,-1,51
 647 450 647 450 752.5 450 c 128,-1,44
 858 450 858 450 894.5 394.5 c 128,-1,45
EndSplineSet
EndChar

StartChar: ampersand
Encoding: 38 38 9
Width: 710
GlyphClass: 2
Flags: W
LayerCount: 2
Fore
SplineSet
266 -10 m 0,0,1
 143 -10 143 -10 86.5 35.5 c 128,-1,2
 30 81 30 81 30 188 c 0,3,4
 30 259 30 259 59 297.5 c 128,-1,5
 88 336 88 336 145 357 c 1,6,7
 94 414 94 414 94 494 c 0,8,9
 94 657 94 657 314.5 656.5 c 128,-1,10
 535 656 535 656 535 489 c 0,11,12
 535 422 535 422 509.5 388.5 c 128,-1,13
 484 355 484 355 414 312 c 1,14,-1
 488 231 l 1,15,-1
 494 231 l 1,16,-1
 494 328 l 1,17,-1
 655 328 l 1,18,-1
 655 253 l 2,19,20
 655 177 655 177 601 136 c 1,21,-1
 601 132 l 1,22,-1
 688 132 l 1,23,-1
 670 -10 l 1,24,-1
 573 -10 l 2,25,26
 500 -10 500 -10 454 20 c 1,27,-1
 446 20 l 1,28,29
 412 3 412 3 375 -3.5 c 128,-1,30
 338 -10 338 -10 266 -10 c 0,0,1
233 186 m 0,31,32
 233 136 233 136 286 136 c 2,33,-1
 340 136 l 1,34,-1
 340 140 l 1,35,-1
 252 229 l 1,36,37
 233 218 233 218 233 186 c 0,31,32
352 456 m 0,38,39
 352 487 352 487 321 486.5 c 128,-1,40
 290 486 290 486 290 458 c 0,41,42
 290 445 290 445 293.5 439.5 c 128,-1,43
 297 434 297 434 298 432 c 128,-1,44
 299 430 299 430 302.5 426.5 c 128,-1,45
 306 423 306 423 307.5 422 c 128,-1,46
 309 421 309 421 313.5 416.5 c 128,-1,47
 318 412 318 412 321 411 c 0,48,49
 339 425 339 425 345.5 433.5 c 128,-1,50
 352 442 352 442 352 456 c 0,38,39
EndSplineSet
EndChar

StartChar: quotesingle
Encoding: 39 39 10
Width: 258
GlyphClass: 2
Flags: W
LayerCount: 2
Fore
SplineSet
71.5 651 m 128,-1,1
 97 671 97 671 152 671 c 128,-1,2
 207 671 207 671 230.5 648 c 128,-1,3
 254 625 254 625 254 570.5 c 128,-1,4
 254 516 254 516 220.5 476.5 c 128,-1,5
 187 437 187 437 128 401 c 1,6,-1
 39 415 l 1,7,-1
 110 510 l 1,8,9
 76 517 76 517 61 533.5 c 128,-1,10
 46 550 46 550 46 590.5 c 128,-1,0
 46 631 46 631 71.5 651 c 128,-1,1
EndSplineSet
EndChar

StartChar: parenleft
Encoding: 40 40 11
Width: 397
GlyphClass: 2
Flags: W
LayerCount: 2
Fore
SplineSet
221 660 m 1,0,-1
 381 611 l 1,1,2
 260 450 260 450 260 265.5 c 128,-1,3
 260 81 260 81 381 -111 c 1,4,-1
 215 -151 l 1,5,6
 122 -60 122 -60 73.5 34 c 128,-1,7
 25 128 25 128 25 258 c 128,-1,8
 25 388 25 388 73 483 c 128,-1,9
 121 578 121 578 221 660 c 1,0,-1
EndSplineSet
EndChar

StartChar: parenright
Encoding: 41 41 12
Width: 397
GlyphClass: 2
Flags: W
LayerCount: 2
Fore
SplineSet
324 482 m 128,-1,1
 373 385 373 385 373 258.5 c 128,-1,2
 373 132 373 132 323 35.5 c 128,-1,3
 273 -61 273 -61 181 -151 c 1,4,-1
 16 -111 l 1,5,6
 138 66 138 66 138 257.5 c 128,-1,7
 138 449 138 449 16 610 c 1,8,-1
 177 660 l 1,9,0
 275 579 275 579 324 482 c 128,-1,1
EndSplineSet
EndChar

StartChar: asterisk
Encoding: 42 42 13
Width: 478
GlyphClass: 2
Flags: W
LayerCount: 2
Fore
SplineSet
454 475 m 1,0,-1
 359 444 l 1,1,-1
 428 351 l 1,2,-1
 314 286 l 1,3,-1
 243 362 l 1,4,-1
 174 287 l 1,5,-1
 60 352 l 1,6,-1
 118 443 l 1,7,-1
 25 475 l 1,8,-1
 57 596 l 1,9,-1
 160 573 l 1,10,-1
 170 673 l 1,11,-1
 312 673 l 1,12,-1
 321 573 l 1,13,-1
 416 595 l 1,14,-1
 454 475 l 1,0,-1
EndSplineSet
EndChar

StartChar: plus
Encoding: 43 43 14
Width: 487
GlyphClass: 2
Flags: W
LayerCount: 2
Fore
SplineSet
161 86 m 1,0,-1
 161 214 l 1,1,-1
 33 214 l 1,2,-1
 33 380 l 1,3,-1
 161 380 l 1,4,-1
 161 508 l 1,5,-1
 327 508 l 1,6,-1
 327 380 l 1,7,-1
 455 380 l 1,8,-1
 455 214 l 1,9,-1
 327 214 l 1,10,-1
 327 86 l 1,11,-1
 161 86 l 1,0,-1
EndSplineSet
EndChar

StartChar: comma
Encoding: 44 44 15
Width: 313
GlyphClass: 2
Flags: W
LayerCount: 2
Fore
SplineSet
82 135 m 128,-1,1
 108 155 108 155 162.5 155 c 128,-1,2
 217 155 217 155 240.5 132 c 128,-1,3
 264 109 264 109 264 54.5 c 128,-1,4
 264 0 264 0 231 -39.5 c 128,-1,5
 198 -79 198 -79 138 -115 c 1,6,-1
 49 -101 l 1,7,-1
 120 -6 l 1,8,9
 86 1 86 1 71 17.5 c 128,-1,10
 56 34 56 34 56 74.5 c 128,-1,0
 56 115 56 115 82 135 c 128,-1,1
EndSplineSet
EndChar

StartChar: hyphen
Encoding: 45 45 16
Width: 412
GlyphClass: 2
Flags: W
LayerCount: 2
Fore
SplineSet
380 183 m 1,0,-1
 33 183 l 1,1,-1
 33 349 l 1,2,-1
 380 349 l 1,3,-1
 380 183 l 1,0,-1
EndSplineSet
EndChar

StartChar: period
Encoding: 46 46 17
Width: 297
GlyphClass: 2
Flags: W
LayerCount: 2
Fore
SplineSet
71.5 10 m 128,-1,1
 49 30 49 30 49 72 c 128,-1,2
 49 114 49 114 71 134 c 128,-1,3
 93 154 93 154 149.5 154 c 128,-1,4
 206 154 206 154 227.5 134 c 128,-1,5
 249 114 249 114 249 72 c 128,-1,6
 249 30 249 30 227 10 c 128,-1,7
 205 -10 205 -10 149.5 -10 c 128,-1,0
 94 -10 94 -10 71.5 10 c 128,-1,1
EndSplineSet
EndChar

StartChar: slash
Encoding: 47 47 18
Width: 427
GlyphClass: 2
Flags: W
LayerCount: 2
Fore
SplineSet
442 631 m 1,0,-1
 194 -145 l 1,1,-1
 -15 -145 l 1,2,-1
 232 631 l 1,3,-1
 442 631 l 1,0,-1
EndSplineSet
EndChar

StartChar: zero
Encoding: 48 48 19
Width: 551
GlyphClass: 2
Flags: W
LayerCount: 2
Fore
SplineSet
327 307 m 2,0,-1
 327 327 l 2,1,2
 327 451 327 451 305 467 c 0,3,4
 294 475 294 475 278.5 475 c 128,-1,5
 263 475 263 475 255 471.5 c 128,-1,6
 247 468 247 468 242 457 c 128,-1,7
 237 446 237 446 233 437 c 0,8,9
 227 419 227 419 227 372 c 2,10,-1
 227 307 l 2,11,12
 227 222 227 222 233 191 c 128,-1,13
 239 160 239 160 249.5 151 c 128,-1,14
 260 142 260 142 280 142 c 0,15,16
 313 142 313 142 320 176 c 128,-1,17
 327 210 327 210 327 307 c 2,0,-1
521 457.5 m 128,-1,19
 531 401 531 401 531 316.5 c 128,-1,20
 531 232 531 232 521 176 c 128,-1,21
 511 120 511 120 483 76 c 0,22,23
 432 -10 432 -10 277 -10 c 128,-1,24
 122 -10 122 -10 70 76 c 0,25,26
 42 120 42 120 31 176 c 128,-1,27
 20 232 20 232 20 316 c 128,-1,28
 20 400 20 400 30.5 457 c 128,-1,29
 41 514 41 514 69 559 c 0,30,31
 122 646 122 646 276.5 646 c 128,-1,32
 431 646 431 646 483 559 c 0,33,18
 511 514 511 514 521 457.5 c 128,-1,19
EndSplineSet
EndChar

StartChar: one
Encoding: 49 49 20
Width: 332
GlyphClass: 2
Flags: W
LayerCount: 2
Fore
SplineSet
288 0 m 1,0,-1
 76 0 l 1,1,-1
 76 463 l 1,2,-1
 4 463 l 1,3,-1
 4 579 l 1,4,-1
 118 636 l 1,5,-1
 288 636 l 1,6,-1
 288 0 l 1,0,-1
EndSplineSet
EndChar

StartChar: two
Encoding: 50 50 21
Width: 480
GlyphClass: 2
Flags: W
LayerCount: 2
Fore
SplineSet
4 600 m 1,0,1
 125 646 125 646 238 646 c 128,-1,2
 351 646 351 646 407.5 595 c 128,-1,3
 464 544 464 544 464 455 c 128,-1,4
 464 366 464 366 429.5 305.5 c 128,-1,5
 395 245 395 245 315 162 c 1,6,-1
 315 158 l 1,7,-1
 466 158 l 1,8,-1
 466 0 l 1,9,-1
 29 0 l 1,10,-1
 18 111 l 1,11,12
 28 121 28 121 64 155.5 c 128,-1,13
 100 190 100 190 112.5 202.5 c 128,-1,14
 125 215 125 215 152 243.5 c 128,-1,15
 179 272 179 272 190 287.5 c 128,-1,16
 201 303 201 303 221.5 333.5 c 128,-1,17
 242 364 242 364 242 401 c 0,18,19
 242 450 242 450 194 451 c 0,20,21
 149 451 149 451 38 421 c 1,22,-1
 4 600 l 1,0,1
EndSplineSet
EndChar

StartChar: three
Encoding: 51 51 22
Width: 480
GlyphClass: 2
Flags: W
LayerCount: 2
Fore
SplineSet
4 594 m 1,0,1
 113 646 113 646 227 646 c 128,-1,2
 341 646 341 646 400 599 c 128,-1,3
 459 552 459 552 459 467 c 0,4,5
 459 420 459 420 441.5 389 c 128,-1,6
 424 358 424 358 384 336 c 1,7,-1
 384 332 l 1,8,9
 468 295 468 295 468 186 c 0,10,11
 468 92 468 92 406.5 41 c 128,-1,12
 345 -10 345 -10 227 -10 c 0,13,14
 171 -10 171 -10 127.5 -1 c 128,-1,15
 84 8 84 8 18 33 c 1,16,-1
 63 190 l 1,17,18
 174 156 174 156 204 157 c 0,19,20
 244 157 244 157 244 201.5 c 128,-1,21
 244 246 244 246 197 246 c 2,22,-1
 106 246 l 1,23,-1
 106 389 l 1,24,-1
 196 389 l 2,25,26
 231 389 231 389 230.5 430 c 128,-1,27
 230 471 230 471 189 471 c 0,28,29
 160 471 160 471 50 433 c 1,30,-1
 4 594 l 1,0,1
EndSplineSet
EndChar

StartChar: four
Encoding: 52 52 23
Width: 561
GlyphClass: 2
Flags: W
LayerCount: 2
Fore
SplineSet
553 120 m 1,0,-1
 484 120 l 1,1,-1
 484 0 l 1,2,-1
 272 0 l 1,3,-1
 272 120 l 1,4,-1
 25 120 l 1,5,-1
 8 246 l 1,6,-1
 231 631 l 1,7,-1
 484 631 l 1,8,-1
 484 269 l 1,9,-1
 561 269 l 1,10,-1
 553 120 l 1,0,-1
278 265 m 1,11,-1
 278 398 l 1,12,-1
 273 398 l 1,13,-1
 202 265 l 1,14,-1
 278 265 l 1,11,-1
EndSplineSet
EndChar

StartChar: five
Encoding: 53 53 24
Width: 483
GlyphClass: 2
Flags: W
LayerCount: 2
Fore
SplineSet
467 217 m 0,0,1
 467 -10 467 -10 234 -10 c 0,2,3
 124 -10 124 -10 31 22 c 1,4,-1
 47 197 l 1,5,6
 185 161 185 161 213.5 161 c 128,-1,7
 242 161 242 161 251 172 c 128,-1,8
 260 183 260 183 260 207 c 0,9,10
 260 251 260 251 230 251 c 0,11,12
 215 251 215 251 207 234 c 1,13,-1
 32 255 l 1,14,-1
 32 631 l 1,15,-1
 436 631 l 1,16,-1
 436 468 l 1,17,-1
 231 468 l 1,18,-1
 231 401 l 1,19,20
 259 409 259 409 294 410 c 0,21,22
 467 410 467 410 467 217 c 0,0,1
EndSplineSet
EndChar

StartChar: six
Encoding: 54 54 25
Width: 524
GlyphClass: 2
Flags: W
LayerCount: 2
Fore
SplineSet
272.5 256 m 128,-1,1
 247 256 247 256 229 252 c 1,2,3
 227 236 227 236 227 229 c 0,4,5
 227 138 227 138 280 138 c 0,6,7
 322 138 322 138 322 198 c 0,8,9
 322 229 322 229 310 242.5 c 128,-1,0
 298 256 298 256 272.5 256 c 128,-1,1
318 402 m 0,10,11
 414 402 414 402 467 355.5 c 128,-1,12
 520 309 520 309 520 206 c 128,-1,13
 520 103 520 103 463 46.5 c 128,-1,14
 406 -10 406 -10 276.5 -10 c 128,-1,15
 147 -10 147 -10 81.5 62 c 128,-1,16
 16 134 16 134 16 272 c 0,17,18
 16 466 16 466 120.5 556 c 128,-1,19
 225 646 225 646 466 646 c 1,20,-1
 453 478 l 1,21,22
 276 478 276 478 239 395 c 1,23,24
 271 402 271 402 318 402 c 0,10,11
EndSplineSet
EndChar

StartChar: seven
Encoding: 55 55 26
Width: 476
GlyphClass: 2
Flags: W
LayerCount: 2
Fore
SplineSet
472 531 m 1,0,-1
 275 0 l 1,1,-1
 39 0 l 1,2,-1
 227 458 l 1,3,-1
 2 458 l 1,4,-1
 2 631 l 1,5,-1
 472 631 l 1,6,-1
 472 531 l 1,0,-1
EndSplineSet
EndChar

StartChar: eight
Encoding: 56 56 27
Width: 531
GlyphClass: 2
Flags: W
LayerCount: 2
Fore
SplineSet
86 599 m 128,-1,1
 152 646 152 646 266 646 c 128,-1,2
 380 646 380 646 444.5 601 c 128,-1,3
 509 556 509 556 509 475 c 0,4,5
 509 419 509 419 491.5 385.5 c 128,-1,6
 474 352 474 352 431 324 c 1,7,-1
 431 319 l 1,8,9
 517 278 517 278 517 184 c 128,-1,10
 517 90 517 90 452.5 40 c 128,-1,11
 388 -10 388 -10 268 -10 c 128,-1,12
 148 -10 148 -10 81 38 c 128,-1,13
 14 86 14 86 14 177 c 0,14,15
 14 230 14 230 35 262 c 128,-1,16
 56 294 56 294 100 314 c 1,17,-1
 100 318 l 1,18,19
 58 347 58 347 39 382 c 128,-1,20
 20 417 20 417 20 471 c 0,21,0
 20 552 20 552 86 599 c 128,-1,1
267 134 m 0,22,23
 309 134 309 134 309 176 c 0,24,25
 309 196 309 196 297 210 c 128,-1,26
 285 224 285 224 255 243 c 1,27,28
 221 216 221 216 221 188 c 0,29,30
 221 134 221 134 267 134 c 0,22,23
269 490 m 0,31,32
 227 490 227 490 227 452 c 0,33,34
 227 432 227 432 238.5 419.5 c 128,-1,35
 250 407 250 407 276 389 c 1,36,37
 314 419 314 419 314 444 c 0,38,39
 314 490 314 490 269 490 c 0,31,32
EndSplineSet
EndChar

StartChar: nine
Encoding: 57 57 28
Width: 521
GlyphClass: 2
Flags: W
LayerCount: 2
Fore
SplineSet
212.5 376 m 128,-1,1
 223 361 223 361 249.5 361 c 128,-1,2
 276 361 276 361 296 368 c 1,3,-1
 296 386 l 2,4,5
 296 435 296 435 287 458 c 128,-1,6
 278 481 278 481 245 481 c 0,7,8
 202 481 202 481 202 424 c 0,9,0
 202 391 202 391 212.5 376 c 128,-1,1
202 224 m 0,10,11
 106 224 106 224 55 271.5 c 128,-1,12
 4 319 4 319 4 423.5 c 128,-1,13
 4 528 4 528 63.5 587 c 128,-1,14
 123 646 123 646 252 646 c 128,-1,15
 381 646 381 646 443 579.5 c 128,-1,16
 505 513 505 513 505 372 c 0,17,18
 505 276 505 276 482 206.5 c 128,-1,19
 459 137 459 137 408 88 c 0,20,21
 306 -10 306 -10 52 -10 c 1,22,-1
 60 144 l 1,23,24
 161 144 161 144 210 164 c 128,-1,25
 259 184 259 184 280 230 c 1,26,27
 243 224 243 224 202 224 c 0,10,11
EndSplineSet
EndChar

StartChar: colon
Encoding: 58 58 29
Width: 297
GlyphClass: 2
Flags: W
LayerCount: 2
Fore
SplineSet
71.5 10 m 128,-1,1
 49 30 49 30 49 72 c 128,-1,2
 49 114 49 114 71 134 c 128,-1,3
 93 154 93 154 149.5 154 c 128,-1,4
 206 154 206 154 227.5 134 c 128,-1,5
 249 114 249 114 249 72 c 128,-1,6
 249 30 249 30 227 10 c 128,-1,7
 205 -10 205 -10 149.5 -10 c 128,-1,0
 94 -10 94 -10 71.5 10 c 128,-1,1
71.5 309 m 128,-1,9
 49 329 49 329 49 371 c 128,-1,10
 49 413 49 413 71 433 c 128,-1,11
 93 453 93 453 149.5 453 c 128,-1,12
 206 453 206 453 227.5 433 c 128,-1,13
 249 413 249 413 249 371 c 128,-1,14
 249 329 249 329 227 309 c 128,-1,15
 205 289 205 289 149.5 289 c 128,-1,8
 94 289 94 289 71.5 309 c 128,-1,9
EndSplineSet
EndChar

StartChar: semicolon
Encoding: 59 59 30
Width: 313
GlyphClass: 2
Flags: W
LayerCount: 2
Fore
SplineSet
78.5 309 m 128,-1,1
 56 329 56 329 56 371 c 128,-1,2
 56 413 56 413 78 433 c 128,-1,3
 100 453 100 453 156.5 453 c 128,-1,4
 213 453 213 453 234.5 433 c 128,-1,5
 256 413 256 413 256 371 c 128,-1,6
 256 329 256 329 234 309 c 128,-1,7
 212 289 212 289 156.5 289 c 128,-1,0
 101 289 101 289 78.5 309 c 128,-1,1
82 135 m 128,-1,9
 108 155 108 155 162.5 155 c 128,-1,10
 217 155 217 155 240.5 132 c 128,-1,11
 264 109 264 109 264 54.5 c 128,-1,12
 264 0 264 0 231 -39.5 c 128,-1,13
 198 -79 198 -79 138 -115 c 1,14,-1
 49 -101 l 1,15,-1
 120 -6 l 1,16,17
 86 1 86 1 71 17.5 c 128,-1,18
 56 34 56 34 56 74.5 c 128,-1,8
 56 115 56 115 82 135 c 128,-1,9
EndSplineSet
EndChar

StartChar: less
Encoding: 60 60 31
Width: 510
GlyphClass: 2
Flags: W
LayerCount: 2
Fore
SplineSet
478 31 m 1,0,-1
 33 212 l 1,1,-1
 33 370 l 1,2,-1
 478 546 l 1,3,-1
 478 382 l 1,4,-1
 234 292 l 1,5,-1
 478 194 l 1,6,-1
 478 31 l 1,0,-1
EndSplineSet
EndChar

StartChar: equal
Encoding: 61 61 32
Width: 464
GlyphClass: 2
Flags: W
LayerCount: 2
Fore
SplineSet
428 287 m 1,0,-1
 37 287 l 1,1,-1
 37 437 l 1,2,-1
 428 437 l 1,3,-1
 428 287 l 1,0,-1
428 95 m 1,4,-1
 37 95 l 1,5,-1
 37 246 l 1,6,-1
 428 246 l 1,7,-1
 428 95 l 1,4,-1
EndSplineSet
EndChar

StartChar: greater
Encoding: 62 62 33
Width: 510
GlyphClass: 2
Flags: W
LayerCount: 2
Fore
SplineSet
478 212 m 1,0,-1
 33 31 l 1,1,-1
 33 194 l 1,2,-1
 276 292 l 1,3,-1
 33 382 l 1,4,-1
 33 546 l 1,5,-1
 478 370 l 1,6,-1
 478 212 l 1,0,-1
EndSplineSet
EndChar

StartChar: question
Encoding: 63 63 34
Width: 404
GlyphClass: 2
Flags: W
LayerCount: 2
Fore
SplineSet
392 455 m 0,0,1
 392 370 392 370 350 324 c 0,2,3
 328 300 328 300 306 284.5 c 128,-1,4
 284 269 284 269 248 250 c 1,5,-1
 248 180 l 1,6,-1
 77 180 l 1,7,-1
 77 294 l 2,8,9
 77 327 77 327 90.5 347.5 c 128,-1,10
 104 368 104 368 136 381.5 c 128,-1,11
 168 395 168 395 179.5 405.5 c 128,-1,12
 191 416 191 416 191 433 c 0,13,14
 191 463 191 463 157 463 c 0,15,16
 137 463 137 463 25 441 c 1,17,-1
 25 620 l 1,18,19
 122 642 122 642 197 641 c 0,20,21
 392 641 392 641 392 455 c 0,0,1
85 10 m 128,-1,23
 62 30 62 30 62 72 c 128,-1,24
 62 114 62 114 84 134 c 128,-1,25
 106 154 106 154 162.5 154 c 128,-1,26
 219 154 219 154 240.5 134 c 128,-1,27
 262 114 262 114 262 72 c 128,-1,28
 262 30 262 30 240 10 c 128,-1,29
 218 -10 218 -10 163 -10 c 128,-1,22
 108 -10 108 -10 85 10 c 128,-1,23
EndSplineSet
EndChar

StartChar: at
Encoding: 64 64 35
Width: 979
GlyphClass: 2
Flags: W
LayerCount: 2
Fore
SplineSet
469 -184 m 0,0,1
 25 -184 25 -184 25 238 c 0,2,3
 25 448 25 448 154 566 c 128,-1,4
 283 684 283 684 505.5 684 c 128,-1,5
 728 684 728 684 841.5 578 c 128,-1,6
 955 472 955 472 955 286 c 0,7,8
 955 -10 955 -10 683 -10 c 0,9,10
 630 -10 630 -10 599.5 -1.5 c 128,-1,11
 569 7 569 7 544 30 c 1,12,-1
 537 30 l 1,13,14
 488 -10 488 -10 413.5 -10 c 128,-1,15
 339 -10 339 -10 300.5 29.5 c 128,-1,16
 262 69 262 69 262 138 c 0,17,18
 262 224 262 224 320 258 c 128,-1,19
 378 292 378 292 504 301 c 1,20,-1
 504 319 l 2,21,22
 504 337 504 337 484 338 c 0,23,24
 432 338 432 338 305 306 c 1,25,-1
 283 464 l 1,26,27
 447 503 447 503 539 503 c 128,-1,28
 631 503 631 503 671.5 468 c 128,-1,29
 712 433 712 433 712 358 c 2,30,-1
 706 154 l 2,31,32
 706 131 706 131 730 131 c 0,33,34
 789 131 789 131 790 285 c 0,35,36
 790 409 790 409 724 475 c 128,-1,37
 658 541 658 541 499 541 c 128,-1,38
 340 541 340 541 265 466 c 128,-1,39
 190 391 190 391 190 238.5 c 128,-1,40
 190 86 190 86 264 20.5 c 128,-1,41
 338 -45 338 -45 489 -45 c 0,42,43
 581 -45 581 -45 705 -30 c 1,44,-1
 705 -162 l 1,45,46
 592 -184 592 -184 469 -184 c 0,0,1
480 122 m 0,47,48
 510 122 510 122 510 153 c 2,49,-1
 510 191 l 1,50,51
 457 184 457 184 457 151 c 0,52,53
 456 122 456 122 480 122 c 0,47,48
EndSplineSet
EndChar

StartChar: A
Encoding: 65 65 36
Width: 576
GlyphClass: 2
Flags: W
LayerCount: 2
Fore
SplineSet
577 0 m 1,0,-1
 361 0 l 1,1,-1
 341 98 l 1,2,-1
 227 98 l 1,3,-1
 206 0 l 1,4,-1
 0 0 l 1,5,-1
 132 636 l 1,6,-1
 444 636 l 1,7,-1
 577 0 l 1,0,-1
326 230 m 1,8,-1
 287 443 l 1,9,-1
 283 443 l 1,10,-1
 243 230 l 1,11,-1
 326 230 l 1,8,-1
EndSplineSet
EndChar

StartChar: B
Encoding: 66 66 37
Width: 576
GlyphClass: 2
Flags: W
LayerCount: 2
Fore
SplineSet
562 186 m 0,0,1
 562 0 562 0 331 0 c 2,2,-1
 41 0 l 1,3,-1
 41 636 l 1,4,-1
 327 636 l 2,5,6
 442 636 442 636 496.5 595 c 128,-1,7
 551 554 551 554 551 469 c 128,-1,8
 551 384 551 384 479 338 c 1,9,-1
 479 334 l 1,10,11
 562 296 562 296 562 186 c 0,0,1
325.5 139 m 128,-1,13
 335 151 335 151 335 188.5 c 128,-1,14
 335 226 335 226 325 242 c 128,-1,15
 315 258 315 258 289 258 c 2,16,-1
 259 258 l 1,17,-1
 259 127 l 1,18,-1
 289 127 l 2,19,12
 316 127 316 127 325.5 139 c 128,-1,13
317 383 m 128,-1,21
 326 395 326 395 326 425.5 c 128,-1,22
 326 456 326 456 317 469 c 128,-1,23
 308 482 308 482 289 482 c 2,24,-1
 259 482 l 1,25,-1
 259 371 l 1,26,-1
 290 371 l 2,27,20
 308 371 308 371 317 383 c 128,-1,21
EndSplineSet
EndChar

StartChar: C
Encoding: 67 67 38
Width: 476
GlyphClass: 2
Flags: W
LayerCount: 2
Fore
SplineSet
259 197 m 128,-1,1
 276 162 276 162 317 162 c 128,-1,2
 358 162 358 162 454 184 c 1,3,-1
 486 22 l 1,4,5
 386 -10 386 -10 293 -10 c 0,6,7
 151 -10 151 -10 85.5 71.5 c 128,-1,8
 20 153 20 153 20 314 c 128,-1,9
 20 475 20 475 88 560.5 c 128,-1,10
 156 646 156 646 308 646 c 0,11,12
 397 646 397 646 486 611 c 1,13,-1
 453 429 l 1,14,15
 352 459 352 459 314 459 c 128,-1,16
 276 459 276 459 259 423.5 c 128,-1,17
 242 388 242 388 242 310 c 128,-1,0
 242 232 242 232 259 197 c 128,-1,1
EndSplineSet
EndChar

StartChar: D
Encoding: 68 68 39
Width: 613
GlyphClass: 2
Flags: W
LayerCount: 2
Fore
SplineSet
591 332 m 0,0,1
 591 0 591 0 288 0 c 2,2,-1
 41 0 l 1,3,-1
 41 636 l 1,4,-1
 293 636 l 2,5,6
 456 636 456 636 523.5 557.5 c 128,-1,7
 591 479 591 479 591 332 c 0,0,1
352.5 195.5 m 128,-1,9
 368 231 368 231 368 314.5 c 128,-1,10
 368 398 368 398 351 433.5 c 128,-1,11
 334 469 334 469 281 469 c 2,12,-1
 259 469 l 1,13,-1
 259 160 l 1,14,-1
 285 160 l 2,15,8
 337 160 337 160 352.5 195.5 c 128,-1,9
EndSplineSet
EndChar

StartChar: E
Encoding: 69 69 40
Width: 472
GlyphClass: 2
Flags: W
LayerCount: 2
Fore
SplineSet
446 0 m 1,0,-1
 41 0 l 1,1,-1
 41 636 l 1,2,-1
 461 636 l 1,3,-1
 446 467 l 1,4,-1
 260 467 l 1,5,-1
 260 390 l 1,6,-1
 423 390 l 1,7,-1
 423 243 l 1,8,-1
 260 243 l 1,9,-1
 260 156 l 1,10,-1
 461 156 l 1,11,-1
 446 0 l 1,0,-1
EndSplineSet
EndChar

StartChar: F
Encoding: 70 70 41
Width: 450
GlyphClass: 2
Flags: W
LayerCount: 2
Fore
SplineSet
446 467 m 1,0,-1
 260 467 l 1,1,-1
 260 380 l 1,2,-1
 401 380 l 1,3,-1
 401 232 l 1,4,-1
 260 232 l 1,5,-1
 260 0 l 1,6,-1
 41 0 l 1,7,-1
 41 636 l 1,8,-1
 461 636 l 1,9,-1
 446 467 l 1,0,-1
EndSplineSet
EndChar

StartChar: G
Encoding: 71 71 42
Width: 606
GlyphClass: 2
Flags: W
LayerCount: 2
Fore
SplineSet
322 157 m 0,0,1
 340 157 340 157 371 163 c 1,2,-1
 371 224 l 1,3,-1
 319 224 l 1,4,-1
 319 366 l 1,5,-1
 561 366 l 1,6,-1
 561 0 l 1,7,-1
 407 0 l 1,8,-1
 391 33 l 1,9,-1
 387 33 l 1,10,11
 334 -10 334 -10 261 -10 c 0,12,13
 21 -10 21 -10 22 313 c 0,14,15
 22 475 22 475 87 560.5 c 128,-1,16
 152 646 152 646 306 646 c 0,17,18
 421 646 421 646 523 614 c 1,19,-1
 489 422 l 1,20,21
 374 454 374 454 324.5 454 c 128,-1,22
 275 454 275 454 259.5 421 c 128,-1,23
 244 388 244 388 244 309 c 128,-1,24
 244 230 244 230 259 193.5 c 128,-1,25
 274 157 274 157 322 157 c 0,0,1
EndSplineSet
EndChar

StartChar: H
Encoding: 72 72 43
Width: 627
GlyphClass: 2
Flags: W
LayerCount: 2
Fore
SplineSet
587 0 m 1,0,-1
 371 0 l 1,1,-1
 371 224 l 1,2,-1
 260 224 l 1,3,-1
 260 0 l 1,4,-1
 41 0 l 1,5,-1
 41 636 l 1,6,-1
 260 636 l 1,7,-1
 260 398 l 1,8,-1
 371 398 l 1,9,-1
 371 636 l 1,10,-1
 587 636 l 1,11,-1
 587 0 l 1,0,-1
EndSplineSet
EndChar

StartChar: I
Encoding: 73 73 44
Width: 310
GlyphClass: 2
Flags: W
LayerCount: 2
Fore
SplineSet
263 0 m 1,0,-1
 47 0 l 1,1,-1
 47 636 l 1,2,-1
 263 636 l 1,3,-1
 263 0 l 1,0,-1
EndSplineSet
EndChar

StartChar: J
Encoding: 74 74 45
Width: 333
GlyphClass: 2
Flags: W
LayerCount: 2
Fore
SplineSet
289 636 m 1,0,-1
 289 133 l 2,1,2
 289 51 289 51 247 20.5 c 128,-1,3
 205 -10 205 -10 90 -10 c 2,4,-1
 15 -10 l 1,5,-1
 4 141 l 1,6,-1
 55 141 l 2,7,8
 66 141 66 141 70 145.5 c 128,-1,9
 74 150 74 150 74 159 c 2,10,-1
 74 636 l 1,11,-1
 289 636 l 1,0,-1
EndSplineSet
EndChar

StartChar: K
Encoding: 75 75 46
Width: 565
GlyphClass: 2
Flags: W
LayerCount: 2
Fore
SplineSet
565 0 m 1,0,-1
 325 0 l 1,1,-1
 260 211 l 1,2,-1
 249 211 l 1,3,-1
 249 0 l 1,4,-1
 41 0 l 1,5,-1
 41 636 l 1,6,-1
 249 636 l 1,7,-1
 249 384 l 1,8,-1
 260 384 l 1,9,-1
 341 636 l 1,10,-1
 575 636 l 1,11,-1
 443 305 l 1,12,-1
 565 0 l 1,0,-1
EndSplineSet
EndChar

StartChar: L
Encoding: 76 76 47
Width: 422
GlyphClass: 2
Flags: W
LayerCount: 2
Fore
SplineSet
423 0 m 1,0,-1
 41 0 l 1,1,-1
 41 636 l 1,2,-1
 260 636 l 1,3,-1
 260 165 l 1,4,-1
 437 165 l 1,5,-1
 423 0 l 1,0,-1
EndSplineSet
EndChar

StartChar: M
Encoding: 77 77 48
Width: 772
GlyphClass: 2
Flags: W
LayerCount: 2
Fore
SplineSet
733 0 m 1,0,-1
 540 0 l 1,1,-1
 540 303 l 1,2,-1
 535 303 l 1,3,-1
 474 0 l 1,4,-1
 295 0 l 1,5,-1
 236 303 l 1,6,-1
 230 303 l 1,7,-1
 230 0 l 1,8,-1
 39 0 l 1,9,-1
 63 636 l 1,10,-1
 336 636 l 1,11,-1
 384 348 l 1,12,-1
 393 348 l 1,13,-1
 440 636 l 1,14,-1
 710 636 l 1,15,-1
 733 0 l 1,0,-1
EndSplineSet
EndChar

StartChar: N
Encoding: 78 78 49
Width: 621
GlyphClass: 2
Flags: W
LayerCount: 2
Fore
SplineSet
581 0 m 1,0,-1
 372 0 l 1,1,-1
 243 251 l 1,2,-1
 236 251 l 1,3,-1
 236 0 l 1,4,-1
 41 0 l 1,5,-1
 41 636 l 1,6,-1
 257 636 l 1,7,-1
 378 377 l 1,8,-1
 384 377 l 1,9,-1
 384 636 l 1,10,-1
 581 636 l 1,11,-1
 581 0 l 1,0,-1
EndSplineSet
EndChar

StartChar: O
Encoding: 79 79 50
Width: 623
GlyphClass: 2
Flags: W
LayerCount: 2
Fore
SplineSet
88.5 569.5 m 128,-1,1
 157 646 157 646 313 646 c 128,-1,2
 469 646 469 646 536 570.5 c 128,-1,3
 603 495 603 495 603 324.5 c 128,-1,4
 603 154 603 154 534 72 c 128,-1,5
 465 -10 465 -10 311 -10 c 128,-1,6
 157 -10 157 -10 88.5 71 c 128,-1,7
 20 152 20 152 20 322.5 c 128,-1,0
 20 493 20 493 88.5 569.5 c 128,-1,1
312 470 m 128,-1,9
 268 470 268 470 256 444.5 c 128,-1,10
 244 419 244 419 244 335 c 2,11,-1
 244 290 l 2,12,13
 244 204 244 204 257 178.5 c 128,-1,14
 270 153 270 153 315 153 c 128,-1,15
 360 153 360 153 371.5 177.5 c 128,-1,16
 383 202 383 202 383 287 c 2,17,-1
 383 334 l 2,18,19
 383 418 383 418 369.5 444 c 128,-1,8
 356 470 356 470 312 470 c 128,-1,9
EndSplineSet
EndChar

StartChar: P
Encoding: 80 80 51
Width: 537
GlyphClass: 2
Flags: W
LayerCount: 2
Fore
SplineSet
300 199 m 2,0,-1
 256 199 l 1,1,-1
 256 0 l 1,2,-1
 41 0 l 1,3,-1
 41 636 l 1,4,-1
 289 636 l 2,5,6
 415 636 415 636 472 585 c 128,-1,7
 529 534 529 534 529 416 c 128,-1,8
 529 298 529 298 474 248.5 c 128,-1,9
 419 199 419 199 300 199 c 2,0,-1
319 402.5 m 128,-1,11
 319 441 319 441 309.5 457.5 c 128,-1,12
 300 474 300 474 273 474 c 2,13,-1
 252 474 l 1,14,-1
 252 331 l 1,15,-1
 279 331 l 2,16,17
 303 331 303 331 311 347.5 c 128,-1,10
 319 364 319 364 319 402.5 c 128,-1,11
EndSplineSet
EndChar

StartChar: Q
Encoding: 81 81 52
Width: 627
GlyphClass: 2
Flags: W
LayerCount: 2
Fore
SplineSet
311.5 646 m 128,-1,1
 467 646 467 646 534 570.5 c 128,-1,2
 601 495 601 495 601 328 c 0,3,4
 601 214 601 214 572 149 c 128,-1,5
 543 84 543 84 475 43 c 1,6,-1
 475 39 l 1,7,-1
 621 39 l 1,8,-1
 607 -105 l 1,9,-1
 564 -105 l 2,10,11
 465 -105 465 -105 398 -66 c 2,12,-1
 307 -10 l 1,13,14
 150 -10 150 -10 84 73.5 c 128,-1,15
 18 157 18 157 18 325 c 128,-1,16
 18 493 18 493 87 569.5 c 128,-1,0
 156 646 156 646 311.5 646 c 128,-1,1
310 470 m 128,-1,18
 266 470 266 470 254 444.5 c 128,-1,19
 242 419 242 419 242 335 c 2,20,-1
 242 290 l 2,21,22
 242 204 242 204 255 178.5 c 128,-1,23
 268 153 268 153 313 153 c 128,-1,24
 358 153 358 153 369.5 177.5 c 128,-1,25
 381 202 381 202 381 287 c 2,26,-1
 381 334 l 2,27,28
 381 418 381 418 367.5 444 c 128,-1,17
 354 470 354 470 310 470 c 128,-1,18
EndSplineSet
EndChar

StartChar: R
Encoding: 82 82 53
Width: 576
GlyphClass: 2
Flags: W
LayerCount: 2
Fore
SplineSet
544 431 m 0,0,1
 544 370 544 370 524 333.5 c 128,-1,2
 504 297 504 297 462 269 c 1,3,-1
 557 0 l 1,4,-1
 331 0 l 1,5,-1
 267 219 l 1,6,-1
 251 219 l 1,7,-1
 251 0 l 1,8,-1
 41 0 l 1,9,-1
 41 636 l 1,10,-1
 312 636 l 2,11,12
 431 636 431 636 487.5 586 c 128,-1,13
 544 536 544 536 544 431 c 0,0,1
305.5 358 m 128,-1,15
 315 372 315 372 315 406.5 c 128,-1,16
 315 441 315 441 305 454.5 c 128,-1,17
 295 468 295 468 273 468 c 2,18,-1
 247 468 l 1,19,-1
 247 344 l 1,20,-1
 272 344 l 2,21,14
 296 344 296 344 305.5 358 c 128,-1,15
EndSplineSet
EndChar

StartChar: S
Encoding: 83 83 54
Width: 494
GlyphClass: 2
Flags: W
LayerCount: 2
Fore
SplineSet
71.5 590 m 128,-1,1
 133 646 133 646 242 646 c 128,-1,2
 351 646 351 646 467 626 c 1,3,-1
 443 445 l 1,4,5
 315 471 315 471 275.5 471 c 128,-1,6
 236 471 236 471 236 446 c 0,7,8
 236 437 236 437 242 433.5 c 128,-1,9
 248 430 248 430 251 428 c 128,-1,10
 254 426 254 426 262.5 423 c 128,-1,11
 271 420 271 420 277 417.5 c 128,-1,12
 283 415 283 415 314 402 c 128,-1,13
 345 389 345 389 361 381.5 c 128,-1,14
 377 374 377 374 404 356 c 0,15,16
 484 304 484 304 484 202.5 c 128,-1,17
 484 101 484 101 424 45.5 c 128,-1,18
 364 -10 364 -10 250.5 -10 c 128,-1,19
 137 -10 137 -10 29 17 c 1,20,-1
 43 190 l 1,21,22
 180 155 180 155 228 156 c 0,23,24
 260 156 260 156 260 178 c 0,25,26
 260 188 260 188 252.5 194.5 c 128,-1,27
 245 201 245 201 230 208 c 128,-1,28
 215 215 215 215 186.5 227 c 128,-1,29
 158 239 158 239 138.5 247.5 c 128,-1,30
 119 256 119 256 92 274 c 0,31,32
 10 330 10 330 10 432 c 128,-1,0
 10 534 10 534 71.5 590 c 128,-1,1
EndSplineSet
EndChar

StartChar: T
Encoding: 84 84 55
Width: 487
GlyphClass: 2
Flags: W
LayerCount: 2
Fore
SplineSet
485 463 m 1,0,-1
 350 463 l 1,1,-1
 350 0 l 1,2,-1
 132 0 l 1,3,-1
 132 463 l 1,4,-1
 -10 463 l 1,5,-1
 -1 636 l 1,6,-1
 498 636 l 1,7,-1
 485 463 l 1,0,-1
EndSplineSet
EndChar

StartChar: U
Encoding: 85 85 56
Width: 627
GlyphClass: 2
Flags: W
LayerCount: 2
Fore
SplineSet
266 225 m 2,0,1
 266 170 266 170 316 170 c 128,-1,2
 366 170 366 170 366 226 c 2,3,-1
 366 636 l 1,4,-1
 585 636 l 1,5,-1
 585 213 l 2,6,7
 585 100 585 100 514 45 c 128,-1,8
 443 -10 443 -10 311 -10 c 0,9,10
 43 -10 43 -10 43 211 c 2,11,-1
 43 636 l 1,12,-1
 266 636 l 1,13,-1
 266 225 l 2,0,1
EndSplineSet
EndChar

StartChar: V
Encoding: 86 86 57
Width: 587
GlyphClass: 2
Flags: W
LayerCount: 2
Fore
SplineSet
578 636 m 1,0,-1
 455 0 l 1,1,-1
 140 0 l 1,2,-1
 10 636 l 1,3,-1
 247 636 l 1,4,-1
 296 246 l 1,5,-1
 308 246 l 1,6,-1
 352 636 l 1,7,-1
 578 636 l 1,0,-1
EndSplineSet
EndChar

StartChar: W
Encoding: 87 87 58
Width: 772
GlyphClass: 2
Flags: W
LayerCount: 2
Fore
SplineSet
752 636 m 1,0,-1
 684 0 l 1,1,-1
 440 0 l 1,2,-1
 392 258 l 1,3,-1
 384 258 l 1,4,-1
 343 0 l 1,5,-1
 99 0 l 1,6,-1
 20 636 l 1,7,-1
 221 636 l 1,8,-1
 247 344 l 1,9,-1
 256 344 l 1,10,-1
 295 636 l 1,11,-1
 488 636 l 1,12,-1
 531 344 l 1,13,-1
 539 344 l 1,14,-1
 558 636 l 1,15,-1
 752 636 l 1,0,-1
EndSplineSet
EndChar

StartChar: X
Encoding: 88 88 59
Width: 586
GlyphClass: 2
Flags: W
LayerCount: 2
Fore
SplineSet
587 0 m 1,0,-1
 352 0 l 1,1,-1
 295 173 l 1,2,-1
 286 173 l 1,3,-1
 224 0 l 1,4,-1
 0 0 l 1,5,-1
 123 324 l 1,6,-1
 12 636 l 1,7,-1
 251 636 l 1,8,-1
 298 458 l 1,9,-1
 306 458 l 1,10,-1
 358 636 l 1,11,-1
 571 636 l 1,12,-1
 469 323 l 1,13,-1
 587 0 l 1,0,-1
EndSplineSet
EndChar

StartChar: Y
Encoding: 89 89 60
Width: 548
GlyphClass: 2
Flags: W
LayerCount: 2
Fore
SplineSet
549 636 m 1,0,-1
 381 202 l 1,1,-1
 381 0 l 1,2,-1
 163 0 l 1,3,-1
 163 203 l 1,4,-1
 0 636 l 1,5,-1
 230 636 l 1,6,-1
 275 402 l 1,7,-1
 282 402 l 1,8,-1
 325 636 l 1,9,-1
 549 636 l 1,0,-1
EndSplineSet
EndChar

StartChar: Z
Encoding: 90 90 61
Width: 539
GlyphClass: 2
Flags: W
LayerCount: 2
Fore
SplineSet
527 0 m 1,0,-1
 46 0 l 1,1,-1
 39 110 l 1,2,-1
 236 461 l 1,3,-1
 24 461 l 1,4,-1
 12 636 l 1,5,-1
 511 636 l 1,6,-1
 518 528 l 1,7,-1
 334 163 l 1,8,-1
 527 163 l 1,9,-1
 527 0 l 1,0,-1
EndSplineSet
EndChar

StartChar: bracketleft
Encoding: 91 91 62
Width: 388
GlyphClass: 2
Flags: W
LayerCount: 2
Fore
SplineSet
343 -140 m 1,0,-1
 53 -140 l 1,1,-1
 53 646 l 1,2,-1
 343 646 l 1,3,-1
 343 502 l 1,4,-1
 269 502 l 1,5,-1
 269 3 l 1,6,-1
 343 3 l 1,7,-1
 343 -140 l 1,0,-1
EndSplineSet
EndChar

StartChar: backslash
Encoding: 92 92 63
Width: 427
GlyphClass: 2
Flags: W
LayerCount: 2
Fore
SplineSet
233 -145 m 1,0,-1
 -15 631 l 1,1,-1
 195 631 l 1,2,-1
 442 -145 l 1,3,-1
 233 -145 l 1,0,-1
EndSplineSet
EndChar

StartChar: bracketright
Encoding: 93 93 64
Width: 389
GlyphClass: 2
Flags: W
LayerCount: 2
Fore
SplineSet
336 -140 m 1,0,-1
 45 -140 l 1,1,-1
 45 3 l 1,2,-1
 121 3 l 1,3,-1
 121 502 l 1,4,-1
 45 502 l 1,5,-1
 45 646 l 1,6,-1
 336 646 l 1,7,-1
 336 -140 l 1,0,-1
EndSplineSet
EndChar

StartChar: asciicircum
Encoding: 94 94 65
Width: 512
GlyphClass: 2
Flags: W
LayerCount: 2
Fore
SplineSet
347 657 m 1,0,-1
 427 523 l 1,1,-1
 293 523 l 1,2,-1
 257 577 l 1,3,-1
 220 523 l 1,4,-1
 85 523 l 1,5,-1
 165 657 l 1,6,-1
 347 657 l 1,0,-1
EndSplineSet
EndChar

StartChar: underscore
Encoding: 95 95 66
Width: 409
GlyphClass: 2
Flags: W
LayerCount: 2
Fore
SplineSet
410 -140 m 1,0,-1
 0 -140 l 1,1,-1
 0 -23 l 1,2,-1
 410 -23 l 1,3,-1
 410 -140 l 1,0,-1
EndSplineSet
EndChar

StartChar: grave
Encoding: 96 96 67
Width: 512
GlyphClass: 2
Flags: W
LayerCount: 2
Fore
SplineSet
243 529 m 1,0,-1
 113 663 l 1,1,-1
 318 663 l 1,2,-1
 388 529 l 1,3,-1
 243 529 l 1,0,-1
EndSplineSet
EndChar

StartChar: a
Encoding: 97 97 68
Width: 510
GlyphClass: 2
Flags: W
LayerCount: 2
Fore
SplineSet
464 358 m 2,0,-1
 458 154 l 2,1,2
 458 140 458 140 468.5 135 c 128,-1,3
 479 130 479 130 507 130 c 1,4,-1
 487 -6 l 1,5,6
 426 -10 426 -10 404 -10 c 0,7,8
 329 -10 329 -10 296 30 c 1,9,-1
 289 30 l 1,10,11
 240 -10 240 -10 165.5 -10 c 128,-1,12
 91 -10 91 -10 52.5 29.5 c 128,-1,13
 14 69 14 69 14 138 c 0,14,15
 14 224 14 224 72 258 c 128,-1,16
 130 292 130 292 256 301 c 1,17,-1
 256 319 l 2,18,19
 256 337 256 337 237 338 c 0,20,21
 185 338 185 338 57 306 c 1,22,-1
 26 468 l 1,23,24
 172 503 172 503 277.5 503 c 128,-1,25
 383 503 383 503 423.5 468 c 128,-1,26
 464 433 464 433 464 358 c 2,0,-1
232 122 m 0,27,28
 262 122 262 122 262 153 c 2,29,-1
 262 191 l 1,30,31
 209 184 209 184 209 151 c 0,32,33
 208 122 208 122 232 122 c 0,27,28
EndSplineSet
EndChar

StartChar: b
Encoding: 98 98 69
Width: 534
GlyphClass: 2
Flags: W
LayerCount: 2
Fore
SplineSet
519 257 m 0,0,1
 519 189 519 189 511.5 143.5 c 128,-1,2
 504 98 504 98 483 61 c 0,3,4
 443 -11 443 -11 325 -10 c 0,5,6
 251 -10 251 -10 207 22 c 1,7,-1
 199 0 l 1,8,-1
 31 0 l 1,9,-1
 31 656 l 1,10,-1
 237 656 l 1,11,-1
 237 482 l 1,12,13
 280 502 280 502 331 503 c 0,14,15
 445 503 445 503 482 446 c 128,-1,16
 519 389 519 389 519 257 c 0,0,1
301 158 m 128,-1,18
 306 181 306 181 306 239 c 128,-1,19
 306 297 306 297 300 321 c 128,-1,20
 294 345 294 345 273 345 c 0,21,22
 260 345 260 345 242 337 c 1,23,-1
 242 139 l 1,24,25
 260 135 260 135 274 135 c 0,26,17
 296 135 296 135 301 158 c 128,-1,18
EndSplineSet
EndChar

StartChar: c
Encoding: 99 99 70
Width: 406
GlyphClass: 2
Flags: W
LayerCount: 2
Fore
SplineSet
238 317.5 m 128,-1,1
 229 293 229 293 229 241.5 c 128,-1,2
 229 190 229 190 237.5 167 c 128,-1,3
 246 144 246 144 276.5 144 c 128,-1,4
 307 144 307 144 374 158 c 1,5,-1
 396 15 l 1,6,7
 306 -11 306 -11 245 -10 c 0,8,9
 131 -10 131 -10 73 55.5 c 128,-1,10
 15 121 15 121 15 238.5 c 128,-1,11
 15 356 15 356 74.5 429.5 c 128,-1,12
 134 503 134 503 248 503 c 0,13,14
 331 503 331 503 404 475 c 1,15,-1
 383 313 l 1,16,17
 303 342 303 342 275 342 c 128,-1,0
 247 342 247 342 238 317.5 c 128,-1,1
EndSplineSet
EndChar

StartChar: d
Encoding: 100 100 71
Width: 556
GlyphClass: 2
Flags: W
LayerCount: 2
Fore
SplineSet
437 -10 m 0,0,1
 357 -10 357 -10 328 30 c 1,2,-1
 324 30 l 1,3,4
 277 -10 277 -10 212 -10 c 0,5,6
 106 -10 106 -10 60.5 57.5 c 128,-1,7
 15 125 15 125 15 249 c 128,-1,8
 15 373 15 373 65 438 c 128,-1,9
 115 503 115 503 208 503 c 0,10,11
 261 503 261 503 294 486 c 1,12,-1
 294 656 l 1,13,-1
 500 656 l 1,14,-1
 500 154 l 2,15,16
 500 141 500 141 509.5 135.5 c 128,-1,17
 519 130 519 130 544 130 c 1,18,-1
 525 -6 l 1,19,20
 472 -10 472 -10 437 -10 c 0,0,1
235 323.5 m 128,-1,22
 229 300 229 300 229 241.5 c 128,-1,23
 229 183 229 183 234.5 160 c 128,-1,24
 240 137 240 137 261 137 c 128,-1,25
 282 137 282 137 294 141 c 1,26,-1
 294 340 l 1,27,28
 277 347 277 347 261 347 c 0,29,21
 241 347 241 347 235 323.5 c 128,-1,22
EndSplineSet
EndChar

StartChar: e
Encoding: 101 101 72
Width: 513
GlyphClass: 2
Flags: W
LayerCount: 2
Fore
SplineSet
264 338 m 0,0,1
 242 338 242 338 234 324.5 c 128,-1,2
 226 311 226 311 226 284 c 1,3,-1
 300 284 l 1,4,-1
 300 300 l 2,5,6
 300 338 300 338 264 338 c 0,0,1
79 436 m 128,-1,8
 143 503 143 503 267.5 503 c 128,-1,9
 392 503 392 503 444 451.5 c 128,-1,10
 496 400 496 400 496 305 c 0,11,12
 496 267 496 267 487 190 c 1,13,-1
 230 190 l 1,14,15
 234 135 234 135 298 135 c 0,16,17
 328 135 328 135 454 157 c 1,18,-1
 471 18 l 1,19,20
 362 -11 362 -11 268 -10 c 0,21,22
 145 -10 145 -10 80 57.5 c 128,-1,23
 15 125 15 125 15 247 c 128,-1,7
 15 369 15 369 79 436 c 128,-1,8
EndSplineSet
EndChar

StartChar: f
Encoding: 102 102 73
Width: 339
GlyphClass: 2
Flags: W
LayerCount: 2
Fore
SplineSet
215 664 m 0,0,1
 284 664 284 664 368 658 c 1,2,-1
 351 498 l 1,3,4
 281 504 281 504 271.5 504 c 128,-1,5
 262 504 262 504 262 494 c 2,6,-1
 262 476 l 1,7,-1
 349 476 l 1,8,-1
 338 338 l 1,9,-1
 264 338 l 1,10,-1
 264 0 l 1,11,-1
 50 0 l 1,12,-1
 50 338 l 1,13,-1
 1 338 l 1,14,-1
 1 476 l 1,15,-1
 50 476 l 1,16,-1
 50 525 l 2,17,18
 50 664 50 664 215 664 c 0,0,1
EndSplineSet
EndChar

StartChar: g
Encoding: 103 103 74
Width: 525
GlyphClass: 2
Flags: W
LayerCount: 2
Fore
SplineSet
247 503 m 2,0,-1
 525 503 l 1,1,-1
 525 378 l 1,2,-1
 450 378 l 1,3,-1
 450 374 l 1,4,5
 482 349 482 349 481 301 c 0,6,7
 481 140 481 140 274 140 c 2,8,-1
 210 140 l 2,9,10
 202 140 202 140 202 131 c 128,-1,11
 202 122 202 122 210 122 c 2,12,-1
 373 122 l 2,13,14
 504 122 504 122 504 15 c 0,15,16
 504 -151 504 -151 245 -151 c 0,17,18
 141 -151 141 -151 83.5 -127 c 128,-1,19
 26 -103 26 -103 26 -42 c 0,20,21
 26 -8 26 -8 61 8 c 1,22,-1
 61 12 l 1,23,24
 14 37 14 37 14 94.5 c 128,-1,25
 14 152 14 152 92 183 c 1,26,27
 20 234 20 234 20 325 c 128,-1,28
 20 416 20 416 79.5 459.5 c 128,-1,29
 139 503 139 503 247 503 c 2,0,-1
256 346 m 0,30,31
 229 346 229 346 229 295 c 128,-1,32
 229 244 229 244 258 244 c 0,33,34
 285 244 285 244 285 294 c 0,35,36
 285 322 285 322 278.5 334 c 128,-1,37
 272 346 272 346 256 346 c 0,30,31
202 -30 m 2,38,-1
 318 -30 l 2,39,40
 327 -30 327 -30 328 -23 c 2,41,-1
 328 -16 l 2,42,43
 328 -9 328 -9 318 -9 c 2,44,-1
 202 -9 l 2,45,46
 195 -9 195 -9 195 -16 c 2,47,-1
 195 -23 l 2,48,49
 195 -30 195 -30 202 -30 c 2,38,-1
EndSplineSet
EndChar

StartChar: h
Encoding: 104 104 75
Width: 551
GlyphClass: 2
Flags: W
LayerCount: 2
Fore
SplineSet
375 503 m 0,0,1
 514 503 514 503 514 374 c 2,2,-1
 514 0 l 1,3,-1
 298 0 l 1,4,-1
 298 317 l 2,5,6
 298 333 298 333 281 333.5 c 128,-1,7
 264 334 264 334 244 324 c 1,8,-1
 244 0 l 1,9,-1
 31 0 l 1,10,-1
 31 656 l 1,11,-1
 237 656 l 1,12,-1
 237 460 l 1,13,14
 299 503 299 503 375 503 c 0,0,1
EndSplineSet
EndChar

StartChar: i
Encoding: 105 105 76
Width: 286
GlyphClass: 2
Flags: W
LayerCount: 2
Fore
SplineSet
251 0 m 1,0,-1
 38 0 l 1,1,-1
 38 480 l 1,2,-1
 251 480 l 1,3,-1
 251 0 l 1,0,-1
34 584 m 0,4,5
 34 671 34 671 143.5 671 c 128,-1,6
 253 671 253 671 253 584 c 0,7,8
 253 539 253 539 226 519.5 c 128,-1,9
 199 500 199 500 143.5 500 c 128,-1,10
 88 500 88 500 61 519 c 128,-1,11
 34 538 34 538 34 584 c 0,4,5
EndSplineSet
EndChar

StartChar: j
Encoding: 106 106 77
Width: 291
GlyphClass: 2
Flags: W
LayerCount: 2
Fore
SplineSet
256 480 m 1,0,-1
 256 -4 l 2,1,2
 256 -85 256 -85 214.5 -115 c 128,-1,3
 173 -145 173 -145 59 -145 c 2,4,-1
 -8 -145 l 1,5,-1
 -26 7 l 1,6,-1
 26 7 l 2,7,8
 38 7 38 7 41 10 c 128,-1,9
 44 13 44 13 44 23 c 2,10,-1
 44 480 l 1,11,-1
 256 480 l 1,0,-1
38 584 m 0,12,13
 38 671 38 671 147.5 671 c 128,-1,14
 257 671 257 671 257 584 c 0,15,16
 257 539 257 539 230 519.5 c 128,-1,17
 203 500 203 500 147.5 500 c 128,-1,18
 92 500 92 500 65 519 c 128,-1,19
 38 538 38 538 38 584 c 0,12,13
EndSplineSet
EndChar

StartChar: k
Encoding: 107 107 78
Width: 526
GlyphClass: 2
Flags: W
LayerCount: 2
Fore
SplineSet
535 0 m 1,0,-1
 304 0 l 1,1,-1
 245 161 l 1,2,-1
 241 161 l 1,3,-1
 241 0 l 1,4,-1
 31 0 l 1,5,-1
 31 656 l 1,6,-1
 241 656 l 1,7,-1
 241 318 l 1,8,-1
 245 318 l 1,9,-1
 316 490 l 1,10,-1
 539 490 l 1,11,-1
 424 236 l 1,12,13
 443 194 443 194 481 114.5 c 128,-1,14
 519 35 519 35 535 0 c 1,0,-1
EndSplineSet
EndChar

StartChar: l
Encoding: 108 108 79
Width: 292
GlyphClass: 2
Flags: W
LayerCount: 2
Fore
SplineSet
33 127 m 2,0,-1
 33 656 l 1,1,-1
 243 656 l 1,2,-1
 243 174 l 2,3,4
 243 146 243 146 281 146 c 1,5,-1
 265 -10 l 1,6,-1
 181 -10 l 2,7,8
 33 -10 33 -10 33 127 c 2,0,-1
EndSplineSet
EndChar

StartChar: m
Encoding: 109 109 80
Width: 814
GlyphClass: 2
Flags: W
LayerCount: 2
Fore
SplineSet
642 503 m 0,0,1
 783 503 783 503 783 364 c 2,2,-1
 783 0 l 1,3,-1
 567 0 l 1,4,-1
 567 317 l 2,5,6
 567 333 567 333 555 334 c 0,7,8
 539 334 539 334 514 324 c 1,9,-1
 514 0 l 1,10,-1
 298 0 l 1,11,-1
 298 317 l 2,12,13
 298 333 298 333 285 334 c 0,14,15
 267 334 267 334 244 324 c 1,16,-1
 244 0 l 1,17,-1
 31 0 l 1,18,-1
 31 490 l 1,19,-1
 224 490 l 1,20,-1
 230 459 l 1,21,22
 299 503 299 503 379 503 c 128,-1,23
 459 503 459 503 494 454 c 1,24,25
 563 503 563 503 642 503 c 0,0,1
EndSplineSet
EndChar

StartChar: n
Encoding: 110 110 81
Width: 544
GlyphClass: 2
Flags: W
LayerCount: 2
Fore
SplineSet
371 503 m 0,0,1
 514 503 514 503 514 364 c 2,2,-1
 514 0 l 1,3,-1
 298 0 l 1,4,-1
 298 317 l 2,5,6
 298 333 298 333 281 333.5 c 128,-1,7
 264 334 264 334 244 324 c 1,8,-1
 244 0 l 1,9,-1
 31 0 l 1,10,-1
 31 490 l 1,11,-1
 224 490 l 1,12,-1
 230 459 l 1,13,14
 295 503 295 503 371 503 c 0,0,1
EndSplineSet
EndChar

StartChar: o
Encoding: 111 111 82
Width: 522
GlyphClass: 2
Flags: W
LayerCount: 2
Fore
SplineSet
75 442.5 m 128,-1,1
 135 503 135 503 262.5 503 c 128,-1,2
 390 503 390 503 448.5 443.5 c 128,-1,3
 507 384 507 384 507 248.5 c 128,-1,4
 507 113 507 113 450 51.5 c 128,-1,5
 393 -10 393 -10 263.5 -10 c 128,-1,6
 134 -10 134 -10 74.5 51.5 c 128,-1,7
 15 113 15 113 15 247.5 c 128,-1,0
 15 382 15 382 75 442.5 c 128,-1,1
262.5 352 m 128,-1,9
 241 352 241 352 235 334 c 128,-1,10
 229 316 229 316 229 258 c 2,11,-1
 229 233 l 2,12,13
 229 167 229 167 235 148.5 c 128,-1,14
 241 130 241 130 262.5 130 c 128,-1,15
 284 130 284 130 289.5 149 c 128,-1,16
 295 168 295 168 295 228 c 2,17,-1
 295 257 l 2,18,19
 295 316 295 316 289.5 334 c 128,-1,8
 284 352 284 352 262.5 352 c 128,-1,9
EndSplineSet
EndChar

StartChar: p
Encoding: 112 112 83
Width: 534
GlyphClass: 2
Flags: W
LayerCount: 2
Fore
SplineSet
319 -10 m 0,0,1
 281 -10 281 -10 244 4 c 1,2,-1
 244 -140 l 1,3,-1
 31 -140 l 1,4,-1
 31 490 l 1,5,-1
 207 490 l 1,6,-1
 215 468 l 1,7,8
 263 503 263 503 331 503 c 0,9,10
 442 503 442 503 480.5 446 c 128,-1,11
 519 389 519 389 519 252.5 c 128,-1,12
 519 116 519 116 477 53 c 128,-1,13
 435 -10 435 -10 319 -10 c 0,0,1
301 158 m 128,-1,15
 306 181 306 181 306 239 c 128,-1,16
 306 297 306 297 300 321 c 128,-1,17
 294 345 294 345 273 345 c 0,18,19
 260 345 260 345 242 337 c 1,20,-1
 242 139 l 1,21,22
 260 135 260 135 274 135 c 0,23,14
 296 135 296 135 301 158 c 128,-1,15
EndSplineSet
EndChar

StartChar: q
Encoding: 113 113 84
Width: 538
GlyphClass: 2
Flags: W
LayerCount: 2
Fore
SplineSet
59.5 55 m 128,-1,1
 15 120 15 120 15 245.5 c 128,-1,2
 15 371 15 371 65 437 c 128,-1,3
 115 503 115 503 208 503 c 0,4,5
 279 503 279 503 319 468 c 1,6,-1
 329 490 l 1,7,-1
 505 490 l 1,8,-1
 505 -140 l 1,9,-1
 292 -140 l 1,10,-1
 292 8 l 1,11,12
 251 -10 251 -10 212 -10 c 0,13,0
 104 -10 104 -10 59.5 55 c 128,-1,1
235 323.5 m 128,-1,15
 229 300 229 300 229 241.5 c 128,-1,16
 229 183 229 183 234.5 160 c 128,-1,17
 240 137 240 137 259 137 c 128,-1,18
 278 137 278 137 294 141 c 1,19,-1
 294 339 l 1,20,21
 274 347 274 347 261 347 c 0,22,14
 241 347 241 347 235 323.5 c 128,-1,15
EndSplineSet
EndChar

StartChar: r
Encoding: 114 114 85
Width: 387
GlyphClass: 2
Flags: W
LayerCount: 2
Fore
SplineSet
244 274 m 2,0,-1
 244 0 l 1,1,-1
 33 0 l 1,2,-1
 33 490 l 1,3,-1
 215 490 l 1,4,-1
 221 458 l 1,5,-1
 225 458 l 1,6,7
 250 481 250 481 281.5 489.5 c 128,-1,8
 313 498 313 498 375 498 c 1,9,-1
 369 328 l 1,10,-1
 299 328 l 2,11,12
 268 328 268 328 256 316.5 c 128,-1,13
 244 305 244 305 244 274 c 2,0,-1
EndSplineSet
EndChar

StartChar: s
Encoding: 115 115 86
Width: 412
GlyphClass: 2
Flags: W
LayerCount: 2
Fore
SplineSet
407 153 m 0,0,1
 407 -10 407 -10 217 -10 c 0,2,3
 119 -10 119 -10 27 11 c 1,4,-1
 40 162 l 1,5,6
 168 131 168 131 210 131 c 0,7,8
 224 131 224 131 224 140.5 c 128,-1,9
 224 150 224 150 208 156 c 0,10,11
 103 192 103 192 54.5 231.5 c 128,-1,12
 6 271 6 271 6 346 c 128,-1,13
 6 421 6 421 59 462 c 128,-1,14
 112 503 112 503 201.5 503 c 128,-1,15
 291 503 291 503 398 482 c 1,16,-1
 377 328 l 1,17,18
 242 355 242 355 213 354 c 0,19,20
 200 354 200 354 200 344 c 0,21,22
 200 336 200 336 217 330 c 0,23,24
 302 302 302 302 340 275 c 128,-1,25
 378 248 378 248 392.5 219.5 c 128,-1,26
 407 191 407 191 407 153 c 0,0,1
EndSplineSet
EndChar

StartChar: t
Encoding: 116 116 87
Width: 374
GlyphClass: 2
Flags: W
LayerCount: 2
Fore
SplineSet
210 -10 m 0,0,1
 130 -10 130 -10 92.5 20 c 128,-1,2
 55 50 55 50 55 124 c 2,3,-1
 55 346 l 1,4,-1
 1 346 l 1,5,-1
 1 484 l 1,6,-1
 66 484 l 1,7,-1
 79 575 l 1,8,-1
 268 575 l 1,9,-1
 268 484 l 1,10,-1
 361 484 l 1,11,-1
 361 346 l 1,12,-1
 267 346 l 1,13,-1
 267 157 l 2,14,15
 267 144 267 144 280 143 c 0,16,17
 281 143 281 143 360 147 c 1,18,-1
 354 0 l 1,19,20
 252 -10 252 -10 210 -10 c 0,0,1
EndSplineSet
EndChar

StartChar: u
Encoding: 117 117 88
Width: 551
GlyphClass: 2
Flags: W
LayerCount: 2
Fore
SplineSet
176 -10 m 0,0,1
 31 -10 31 -10 31 129 c 2,2,-1
 31 490 l 1,3,-1
 246 490 l 1,4,-1
 246 169 l 2,5,6
 246 153 246 153 260.5 153 c 128,-1,7
 275 153 275 153 300 163 c 1,8,-1
 300 490 l 1,9,-1
 514 490 l 1,10,-1
 514 2 l 1,11,-1
 309 2 l 1,12,-1
 309 28 l 1,13,-1
 303 28 l 1,14,15
 244 -10 244 -10 176 -10 c 0,0,1
EndSplineSet
EndChar

StartChar: v
Encoding: 118 118 89
Width: 507
GlyphClass: 2
Flags: W
LayerCount: 2
Fore
SplineSet
512 490 m 1,0,-1
 394 0 l 1,1,-1
 106 0 l 1,2,-1
 -12 490 l 1,3,-1
 210 490 l 1,4,-1
 251 228 l 1,5,-1
 258 228 l 1,6,-1
 303 490 l 1,7,-1
 512 490 l 1,0,-1
EndSplineSet
EndChar

StartChar: w
Encoding: 119 119 90
Width: 684
GlyphClass: 2
Flags: W
LayerCount: 2
Fore
SplineSet
671 490 m 1,0,-1
 599 0 l 1,1,-1
 371 0 l 1,2,-1
 336 168 l 1,3,-1
 331 168 l 1,4,-1
 298 0 l 1,5,-1
 74 0 l 1,6,-1
 2 490 l 1,7,-1
 201 490 l 1,8,-1
 219 272 l 1,9,-1
 225 272 l 1,10,-1
 254 490 l 1,11,-1
 425 490 l 1,12,-1
 452 272 l 1,13,-1
 459 272 l 1,14,-1
 479 490 l 1,15,-1
 671 490 l 1,0,-1
EndSplineSet
EndChar

StartChar: x
Encoding: 120 120 91
Width: 507
GlyphClass: 2
Flags: W
LayerCount: 2
Fore
SplineSet
261 365 m 1,0,-1
 286 490 l 1,1,-1
 505 490 l 1,2,-1
 404 242 l 1,3,-1
 508 0 l 1,4,-1
 282 0 l 1,5,-1
 253 122 l 1,6,-1
 247 122 l 1,7,-1
 220 0 l 1,8,-1
 0 0 l 1,9,-1
 102 237 l 1,10,11
 97 249 97 249 58.5 346 c 128,-1,12
 20 443 20 443 1 490 c 1,13,-1
 233 490 l 1,14,-1
 255 365 l 1,15,-1
 261 365 l 1,0,-1
EndSplineSet
EndChar

StartChar: y
Encoding: 121 121 92
Width: 515
GlyphClass: 2
Flags: W
LayerCount: 2
Fore
SplineSet
264 225 m 1,0,1
 311 484 311 484 312 490 c 1,2,-1
 523 490 l 1,3,-1
 381 -8 l 2,4,5
 359 -84 359 -84 314.5 -112 c 128,-1,6
 270 -140 270 -140 169 -140 c 2,7,-1
 46 -140 l 1,8,-1
 23 6 l 1,9,-1
 104 6 l 2,10,11
 131 6 131 6 131 24 c 0,12,13
 131 35 131 35 126 52 c 2,14,-1
 -8 490 l 1,15,-1
 217 490 l 1,16,-1
 260 225 l 1,17,-1
 264 225 l 1,0,1
EndSplineSet
EndChar

StartChar: z
Encoding: 122 122 93
Width: 456
GlyphClass: 2
Flags: W
LayerCount: 2
Fore
SplineSet
444 0 m 1,0,-1
 15 0 l 1,1,-1
 10 116 l 1,2,-1
 171 330 l 1,3,-1
 5 330 l 1,4,-1
 5 490 l 1,5,-1
 434 490 l 1,6,-1
 440 383 l 1,7,-1
 284 153 l 1,8,-1
 444 153 l 1,9,-1
 444 0 l 1,0,-1
EndSplineSet
EndChar

StartChar: braceleft
Encoding: 123 123 94
Width: 403
GlyphClass: 2
Flags: W
LayerCount: 2
Fore
SplineSet
358 -140 m 1,0,-1
 222 -140 l 2,1,2
 142 -140 142 -140 108 -109 c 128,-1,3
 74 -78 74 -78 74 -4 c 2,4,-1
 74 158 l 2,5,6
 74 180 74 180 63 183.5 c 128,-1,7
 52 187 52 187 12 187 c 1,8,-1
 12 330 l 1,9,10
 53 330 53 330 63.5 334 c 128,-1,11
 74 338 74 338 74 358 c 2,12,-1
 74 502 l 2,13,14
 74 582 74 582 107 614 c 128,-1,15
 140 646 140 646 222 646 c 2,16,-1
 358 646 l 1,17,-1
 358 499 l 1,18,-1
 281 499 l 1,19,-1
 281 337 l 2,20,21
 281 302 281 302 271.5 287.5 c 128,-1,22
 262 273 262 273 238 260 c 1,23,-1
 238 254 l 1,24,25
 261 243 261 243 271 226.5 c 128,-1,26
 281 210 281 210 281 178 c 2,27,-1
 281 2 l 1,28,-1
 358 2 l 1,29,-1
 358 -140 l 1,0,-1
EndSplineSet
EndChar

StartChar: bar
Encoding: 124 124 95
Width: 386
GlyphClass: 2
Flags: W
LayerCount: 2
Fore
SplineSet
294 -145 m 1,0,-1
 92 -145 l 1,1,-1
 92 631 l 1,2,-1
 294 631 l 1,3,-1
 294 -145 l 1,0,-1
EndSplineSet
EndChar

StartChar: braceright
Encoding: 125 125 96
Width: 403
GlyphClass: 2
Flags: W
LayerCount: 2
Fore
SplineSet
181 -140 m 2,0,-1
 45 -140 l 1,1,-1
 45 2 l 1,2,-1
 123 2 l 1,3,-1
 123 178 l 2,4,5
 123 210 123 210 133 226.5 c 128,-1,6
 143 243 143 243 166 254 c 1,7,-1
 166 260 l 1,8,9
 141 273 141 273 132 287.5 c 128,-1,10
 123 302 123 302 123 337 c 2,11,-1
 123 499 l 1,12,-1
 45 499 l 1,13,-1
 45 646 l 1,14,-1
 181 646 l 2,15,16
 263 646 263 646 296.5 614 c 128,-1,17
 330 582 330 582 330 502 c 2,18,-1
 330 358 l 2,19,20
 330 338 330 338 339.5 334 c 128,-1,21
 349 330 349 330 391 330 c 1,22,-1
 391 187 l 1,23,24
 351 187 351 187 340.5 183 c 128,-1,25
 330 179 330 179 330 158 c 2,26,-1
 330 -4 l 2,27,28
 330 -78 330 -78 295.5 -109 c 128,-1,29
 261 -140 261 -140 181 -140 c 2,0,-1
EndSplineSet
EndChar

StartChar: asciitilde
Encoding: 126 126 97
Width: 512
GlyphClass: 2
Flags: W
LayerCount: 2
Fore
SplineSet
443 673 m 1,0,-1
 443 660 l 2,1,2
 443 592 443 592 421 556.5 c 128,-1,3
 399 521 399 521 334 521 c 0,4,5
 296 521 296 521 220 548 c 1,6,-1
 220 515 l 1,7,-1
 84 515 l 1,8,-1
 84 528 l 2,9,10
 84 597 84 597 107 632.5 c 128,-1,11
 130 668 130 668 188 668 c 0,12,13
 219 668 219 668 307 641 c 1,14,-1
 307 673 l 1,15,-1
 443 673 l 1,0,-1
EndSplineSet
EndChar

StartChar: exclamdown
Encoding: 161 161 99
Width: 337
GlyphClass: 2
Flags: W
LayerCount: 2
Fore
SplineSet
242 315 m 1,0,-1
 254 -140 l 1,1,-1
 49 -140 l 1,2,-1
 65 315 l 1,3,-1
 242 315 l 1,0,-1
228.5 486 m 128,-1,5
 251 466 251 466 251 424 c 128,-1,6
 251 382 251 382 229 362 c 128,-1,7
 207 342 207 342 150.5 342 c 128,-1,8
 94 342 94 342 72.5 362 c 128,-1,9
 51 382 51 382 51 424 c 128,-1,10
 51 466 51 466 73 486 c 128,-1,11
 95 506 95 506 150.5 506 c 128,-1,4
 206 506 206 506 228.5 486 c 128,-1,5
EndSplineSet
EndChar

StartChar: cent
Encoding: 162 162 100
Width: 425
GlyphClass: 2
Flags: W
LayerCount: 2
Fore
SplineSet
243 317.5 m 128,-1,1
 234 293 234 293 234 241.5 c 128,-1,2
 234 190 234 190 242.5 167 c 128,-1,3
 251 144 251 144 281.5 144 c 128,-1,4
 312 144 312 144 379 158 c 1,5,-1
 401 15 l 1,6,7
 359 3 359 3 314 -5 c 1,8,-1
 314 -84 l 1,9,-1
 143 -84 l 1,10,-1
 143 9 l 1,11,12
 20 62 20 62 20 237 c 0,13,14
 20 322 20 322 51.5 386 c 128,-1,15
 83 450 83 450 143 479 c 1,16,-1
 143 586 l 1,17,-1
 314 586 l 1,18,-1
 314 499 l 1,19,20
 358 494 358 494 410 475 c 1,21,-1
 388 313 l 1,22,23
 308 342 308 342 280 342 c 128,-1,0
 252 342 252 342 243 317.5 c 128,-1,1
EndSplineSet
EndChar

StartChar: sterling
Encoding: 163 163 101
Width: 615
GlyphClass: 2
Flags: W
LayerCount: 2
Fore
SplineSet
330 646 m 0,0,1
 411 646 411 646 534 615 c 1,2,-1
 505 439 l 1,3,4
 394 467 394 467 385.5 467 c 128,-1,5
 377 467 377 467 377 459 c 128,-1,6
 377 451 377 451 395 393 c 1,7,-1
 503 393 l 1,8,-1
 490 279 l 1,9,-1
 411 279 l 1,10,-1
 411 225 l 2,11,12
 411 165 411 165 392 127 c 1,13,14
 427 114 427 114 430 113 c 1,15,-1
 430 189 l 1,16,-1
 613 189 l 1,17,18
 613 73 613 73 576 18 c 128,-1,19
 539 -37 539 -37 443 -37 c 0,20,21
 394 -37 394 -37 361 -28 c 128,-1,22
 328 -19 328 -19 283 2 c 1,23,-1
 279 2 l 1,24,25
 223 -23 223 -23 156.5 -23 c 128,-1,26
 90 -23 90 -23 46 10 c 128,-1,27
 2 43 2 43 2 108.5 c 128,-1,28
 2 174 2 174 37.5 206.5 c 128,-1,29
 73 239 73 239 134 239 c 0,30,31
 162 239 162 239 197 230 c 1,32,-1
 197 279 l 1,33,-1
 96 279 l 1,34,-1
 96 393 l 1,35,-1
 163 393 l 1,36,37
 138 444 138 444 138 494 c 0,38,39
 139 646 139 646 330 646 c 0,0,1
197 96 m 1,40,41
 178 119 178 119 160 119 c 128,-1,42
 142 119 142 119 142 100 c 128,-1,43
 142 81 142 81 163 81 c 128,-1,44
 184 81 184 81 197 96 c 1,40,41
EndSplineSet
EndChar

StartChar: currency
Encoding: 164 164 102
Width: 797
GlyphClass: 2
Flags: W
LayerCount: 2
Fore
SplineSet
86 78 m 1,0,-1
 55 129 l 1,1,-1
 182 203 l 1,2,3
 165 258 165 258 165 308 c 128,-1,4
 165 358 165 358 177 404 c 1,5,-1
 49 479 l 1,6,-1
 81 534 l 1,7,-1
 204 463 l 1,8,9
 275 555 275 555 403 555 c 128,-1,10
 531 555 531 555 601 465 c 1,11,-1
 718 534 l 1,12,-1
 749 479 l 1,13,-1
 629 410 l 1,14,15
 642 364 642 364 642 312.5 c 128,-1,16
 642 261 642 261 622 202 c 1,17,-1
 744 129 l 1,18,-1
 712 77 l 1,19,-1
 589 150 l 1,20,21
 518 74 518 74 399.5 74 c 128,-1,22
 281 74 281 74 211 152 c 1,23,24
 167 127 167 127 86 78 c 1,0,-1
400 125 m 0,25,26
 578 125 578 125 579 313 c 0,27,28
 579 403 579 403 534 452.5 c 128,-1,29
 489 502 489 502 400 502 c 0,30,31
 224 502 224 502 224 312 c 0,32,33
 224 219 224 219 270 172 c 128,-1,34
 316 125 316 125 400 125 c 0,25,26
EndSplineSet
EndChar

StartChar: yen
Encoding: 165 165 103
Width: 548
GlyphClass: 2
Flags: W
LayerCount: 2
Fore
SplineSet
549 636 m 1,0,-1
 431 332 l 1,1,-1
 490 332 l 1,2,-1
 490 220 l 1,3,-1
 387 220 l 1,4,-1
 381 201 l 1,5,-1
 490 201 l 1,6,-1
 490 91 l 1,7,-1
 381 91 l 1,8,-1
 381 0 l 1,9,-1
 163 0 l 1,10,-1
 163 91 l 1,11,-1
 51 91 l 1,12,-1
 51 201 l 1,13,-1
 163 201 l 1,14,-1
 157 220 l 1,15,-1
 51 220 l 1,16,-1
 51 332 l 1,17,-1
 114 332 l 1,18,-1
 0 636 l 1,19,-1
 230 636 l 1,20,-1
 275 402 l 1,21,-1
 282 402 l 1,22,-1
 325 636 l 1,23,-1
 549 636 l 1,0,-1
EndSplineSet
EndChar

StartChar: brokenbar
Encoding: 166 166 104
Width: 386
GlyphClass: 2
Flags: W
LayerCount: 2
Fore
SplineSet
294 -145 m 1,0,-1
 92 -145 l 1,1,-1
 92 181 l 1,2,-1
 294 181 l 1,3,-1
 294 -145 l 1,0,-1
294 631 m 1,4,-1
 294 333 l 1,5,-1
 92 333 l 1,6,-1
 92 631 l 1,7,-1
 294 631 l 1,4,-1
EndSplineSet
EndChar

StartChar: section
Encoding: 167 167 105
Width: 506
GlyphClass: 2
Flags: W
LayerCount: 2
Fore
SplineSet
191 321 m 1,0,1
 191 285 191 285 215 265 c 128,-1,2
 239 245 239 245 316 205 c 1,3,4
 316 238 316 238 291 260 c 128,-1,5
 266 282 266 282 191 321 c 1,0,1
478 254 m 0,6,7
 478 169 478 169 427 101 c 1,8,9
 438 74 438 74 438 33 c 0,10,11
 438 -54 438 -54 385.5 -102.5 c 128,-1,12
 333 -151 333 -151 231 -151 c 0,13,14
 155 -151 155 -151 46 -131 c 1,15,-1
 60 41 l 1,16,17
 179 13 179 13 231 13 c 0,18,19
 248 13 248 13 248.5 34 c 128,-1,20
 249 55 249 55 193 80.5 c 128,-1,21
 137 106 137 106 86 150 c 0,22,23
 61 170 61 170 45 204 c 128,-1,24
 29 238 29 238 29 279 c 0,25,26
 29 359 29 359 82 417 c 1,27,28
 68 446 68 446 68 477 c 0,29,30
 68 563 68 563 126.5 609.5 c 128,-1,31
 185 656 185 656 280 656 c 0,32,33
 351 656 351 656 450 640 c 1,34,-1
 421 473 l 1,35,36
 324 492 324 492 279 493 c 0,37,38
 266 493 266 493 265 480 c 0,39,40
 265 464 265 464 320 442.5 c 128,-1,41
 375 421 375 421 423 381 c 0,42,43
 447 361 447 361 462.5 328 c 128,-1,44
 478 295 478 295 478 254 c 0,6,7
EndSplineSet
EndChar

StartChar: dieresis
Encoding: 168 168 106
Width: 512
GlyphClass: 2
Flags: W
LayerCount: 2
Fore
SplineSet
84 590 m 0,0,1
 84 623 84 623 104.5 639.5 c 128,-1,2
 125 656 125 656 161 656 c 0,3,4
 243 656 243 656 243 590 c 0,5,6
 243 555 243 555 223 538.5 c 128,-1,7
 203 522 203 522 161 522 c 0,8,9
 84 522 84 522 84 590 c 0,0,1
274 590 m 0,10,11
 274 623 274 623 294.5 639.5 c 128,-1,12
 315 656 315 656 351 656 c 0,13,14
 433 656 433 656 433 590 c 0,15,16
 433 555 433 555 413 538.5 c 128,-1,17
 393 522 393 522 351 522 c 0,18,19
 274 522 274 522 274 590 c 0,10,11
EndSplineSet
EndChar

StartChar: copyright
Encoding: 169 169 107
Width: 1002
GlyphClass: 2
Flags: W
LayerCount: 2
Fore
SplineSet
498.5 144.5 m 128,-1,1
 512 119 512 119 547 119 c 128,-1,2
 582 119 582 119 645 134 c 1,3,-1
 665 14 l 1,4,5
 586 -11 586 -11 515 -10 c 0,6,7
 314 -10 314 -10 314 228 c 0,8,9
 314 348 314 348 364.5 411.5 c 128,-1,10
 415 475 415 475 527 475 c 0,11,12
 597 475 597 475 665 449 c 1,13,-1
 644 314 l 1,14,15
 574 333 574 333 542.5 333.5 c 128,-1,16
 511 334 511 334 498 309 c 128,-1,17
 485 284 485 284 485 227 c 128,-1,0
 485 170 485 170 498.5 144.5 c 128,-1,1
725 452.5 m 128,-1,19
 666 514 666 514 518.5 514 c 128,-1,20
 371 514 371 514 308 450 c 128,-1,21
 245 386 245 386 245 237.5 c 128,-1,22
 245 89 245 89 305 25 c 128,-1,23
 365 -39 365 -39 514.5 -39 c 128,-1,24
 664 -39 664 -39 724 24 c 128,-1,25
 784 87 784 87 784 239 c 128,-1,18
 784 391 784 391 725 452.5 c 128,-1,19
164.5 559.5 m 128,-1,27
 280 668 280 668 511 668 c 128,-1,28
 742 668 742 668 858 556.5 c 128,-1,29
 974 445 974 445 974 236 c 128,-1,30
 974 27 974 27 859.5 -79 c 128,-1,31
 745 -185 745 -185 507.5 -185 c 128,-1,32
 270 -185 270 -185 159.5 -79 c 128,-1,33
 49 27 49 27 49 239 c 128,-1,26
 49 451 49 451 164.5 559.5 c 128,-1,27
EndSplineSet
EndChar

StartChar: ordfeminine
Encoding: 170 170 108
Width: 425
GlyphClass: 2
Flags: W
LayerCount: 2
Fore
SplineSet
359 553 m 2,0,-1
 355 410 l 2,1,2
 355 394 355 394 389 393 c 1,3,-1
 376 298 l 1,4,5
 344 295 344 295 317 295 c 0,6,7
 266 295 266 295 242 323 c 1,8,-1
 237 323 l 1,9,10
 202 295 202 295 150.5 295 c 128,-1,11
 99 295 99 295 72 322.5 c 128,-1,12
 45 350 45 350 45 404.5 c 128,-1,13
 45 459 45 459 85.5 482.5 c 128,-1,14
 126 506 126 506 214 513 c 1,15,-1
 214 525 l 2,16,17
 214 538 214 538 201 539 c 0,18,19
 165 539 165 539 75 516 c 1,20,-1
 52 630 l 1,21,22
 155 655 155 655 229 654.5 c 128,-1,23
 303 654 303 654 331 629.5 c 128,-1,24
 359 605 359 605 359 553 c 2,0,-1
198 387 m 0,25,26
 218 387 218 387 218 409 c 2,27,-1
 218 436 l 1,28,29
 181 430 181 430 181.5 408.5 c 128,-1,30
 182 387 182 387 198 387 c 0,25,26
EndSplineSet
EndChar

StartChar: guillemotleft
Encoding: 171 171 109
Width: 599
GlyphClass: 2
Flags: W
LayerCount: 2
Fore
SplineSet
4 210 m 1,0,-1
 4 278 l 1,1,-1
 213 494 l 1,2,-1
 324 423 l 1,3,-1
 205 248 l 1,4,-1
 327 73 l 1,5,-1
 207 -1 l 1,6,-1
 4 210 l 1,0,-1
256 210 m 1,7,-1
 256 278 l 1,8,-1
 465 494 l 1,9,-1
 575 423 l 1,10,-1
 457 248 l 1,11,-1
 579 73 l 1,12,-1
 459 -1 l 1,13,-1
 256 210 l 1,7,-1
EndSplineSet
EndChar

StartChar: logicalnot
Encoding: 172 172 110
Width: 499
GlyphClass: 2
Flags: W
LayerCount: 2
Fore
SplineSet
271 106 m 1,0,-1
 271 214 l 1,1,-1
 33 214 l 1,2,-1
 33 380 l 1,3,-1
 455 380 l 1,4,-1
 455 106 l 1,5,-1
 271 106 l 1,0,-1
EndSplineSet
EndChar

StartChar: registered
Encoding: 174 174 111
Width: 1022
GlyphClass: 2
Flags: W
LayerCount: 2
Fore
SplineSet
164.5 559.5 m 128,-1,1
 280 668 280 668 511 668 c 128,-1,2
 742 668 742 668 858 556.5 c 128,-1,3
 974 445 974 445 974 236 c 128,-1,4
 974 27 974 27 859.5 -79 c 128,-1,5
 745 -185 745 -185 507.5 -185 c 128,-1,6
 270 -185 270 -185 159.5 -79 c 128,-1,7
 49 27 49 27 49 239 c 128,-1,0
 49 451 49 451 164.5 559.5 c 128,-1,1
713 319 m 0,8,9
 713 273 713 273 700.5 246 c 128,-1,10
 688 219 688 219 659 200 c 1,11,-1
 719 19 l 1,12,13
 789 81 789 81 788.5 235 c 128,-1,14
 788 389 788 389 724 451.5 c 128,-1,15
 660 514 660 514 512 514 c 128,-1,16
 364 514 364 514 296 449 c 128,-1,17
 228 384 228 384 228 237.5 c 128,-1,18
 228 91 228 91 293.5 26 c 128,-1,19
 359 -39 359 -39 494 -39 c 128,-1,20
 629 -39 629 -39 695 2 c 1,21,-1
 550 2 l 1,22,-1
 507 164 l 1,23,-1
 492 164 l 1,24,-1
 492 2 l 1,25,-1
 336 2 l 1,26,-1
 336 471 l 1,27,-1
 542 471 l 2,28,29
 629 471 629 471 671 434 c 128,-1,30
 713 397 713 397 713 319 c 0,8,9
545 303 m 0,31,32
 545 347 545 347 513 347 c 2,33,-1
 488 347 l 1,34,-1
 488 255 l 1,35,-1
 513 255 l 2,36,37
 529 255 529 255 537 265 c 128,-1,38
 545 275 545 275 545 303 c 0,31,32
EndSplineSet
EndChar

StartChar: macron
Encoding: 175 175 112
Width: 512
GlyphClass: 2
Flags: W
LayerCount: 2
Fore
SplineSet
423 534 m 1,0,-1
 100 534 l 1,1,-1
 100 657 l 1,2,-1
 423 657 l 1,3,-1
 423 534 l 1,0,-1
EndSplineSet
EndChar

StartChar: degree
Encoding: 176 176 113
Width: 352
GlyphClass: 2
Flags: W
LayerCount: 2
Fore
SplineSet
282 609.5 m 128,-1,1
 315 578 315 578 315 509.5 c 128,-1,2
 315 441 315 441 282 410 c 128,-1,3
 249 379 249 379 173.5 379 c 128,-1,4
 98 379 98 379 65 410 c 128,-1,5
 32 441 32 441 32 508 c 128,-1,6
 32 575 32 575 65.5 608 c 128,-1,7
 99 641 99 641 174 641 c 128,-1,0
 249 641 249 641 282 609.5 c 128,-1,1
193 509 m 0,8,9
 193 525 193 525 188 531.5 c 128,-1,10
 183 538 183 538 172 538 c 0,11,12
 152 538 152 538 152 508.5 c 128,-1,13
 152 479 152 479 172.5 479 c 128,-1,14
 193 479 193 479 193 509 c 0,8,9
EndSplineSet
EndChar

StartChar: plusminus
Encoding: 177 177 114
Width: 487
GlyphClass: 2
Flags: W
LayerCount: 2
Fore
SplineSet
161 185 m 1,0,-1
 161 283 l 1,1,-1
 33 283 l 1,2,-1
 33 449 l 1,3,-1
 161 449 l 1,4,-1
 161 568 l 1,5,-1
 327 568 l 1,6,-1
 327 449 l 1,7,-1
 455 449 l 1,8,-1
 455 283 l 1,9,-1
 327 283 l 1,10,-1
 327 185 l 1,11,-1
 161 185 l 1,0,-1
455 0 m 1,12,-1
 33 0 l 1,13,-1
 33 156 l 1,14,-1
 455 156 l 1,15,-1
 455 0 l 1,12,-1
EndSplineSet
EndChar

StartChar: twosuperior
Encoding: 178 178 115
Width: 405
GlyphClass: 2
Flags: W
LayerCount: 2
Fore
SplineSet
38 613 m 1,0,1
 121 646 121 646 201 646 c 128,-1,2
 281 646 281 646 320 610 c 128,-1,3
 359 574 359 574 359 512 c 128,-1,4
 359 450 359 450 335 407.5 c 128,-1,5
 311 365 311 365 256 307 c 1,6,-1
 256 304 l 1,7,-1
 360 304 l 1,8,-1
 360 194 l 1,9,-1
 55 194 l 1,10,-1
 48 271 l 1,11,12
 75 298 75 298 91.5 313.5 c 128,-1,13
 108 329 108 329 123 344 c 128,-1,14
 138 359 138 359 145.5 368 c 128,-1,15
 153 377 153 377 164 390 c 0,16,17
 204 437 204 437 204 473 c 128,-1,18
 204 509 204 509 170 509 c 0,19,20
 141 509 141 509 61 488 c 1,21,-1
 38 613 l 1,0,1
EndSplineSet
EndChar

StartChar: threesuperior
Encoding: 179 179 116
Width: 414
GlyphClass: 2
Flags: W
LayerCount: 2
Fore
SplineSet
48 609 m 1,0,1
 125 646 125 646 204.5 646 c 128,-1,2
 284 646 284 646 325.5 613 c 128,-1,3
 367 580 367 580 367 520 c 0,4,5
 367 487 367 487 354.5 466 c 128,-1,6
 342 445 342 445 313 429 c 1,7,-1
 313 426 l 1,8,9
 372 399 372 399 373 329 c 0,10,11
 373 187 373 187 204 186 c 0,12,13
 136 186 136 186 58 216 c 1,14,-1
 89 327 l 1,15,16
 169 303 169 303 187 303 c 0,17,18
 216 303 216 303 216 334.5 c 128,-1,19
 216 366 216 366 182 366 c 2,20,-1
 120 366 l 1,21,-1
 120 466 l 1,22,-1
 182 466 l 2,23,24
 206 466 206 466 206 494.5 c 128,-1,25
 206 523 206 523 177 523 c 0,26,27
 160 523 160 523 80 497 c 1,28,-1
 48 609 l 1,0,1
EndSplineSet
EndChar

StartChar: acute
Encoding: 180 180 117
Width: 512
GlyphClass: 2
Flags: W
LayerCount: 2
Fore
SplineSet
462 663 m 1,0,-1
 319 529 l 1,1,-1
 177 529 l 1,2,-1
 243 663 l 1,3,-1
 462 663 l 1,0,-1
EndSplineSet
EndChar

StartChar: mu
Encoding: 181 181 118
AltUni2: 0003bc.ffffffff.0 0003bc.ffffffff.0
Width: 572
GlyphClass: 2
Flags: W
LayerCount: 2
Fore
SplineSet
33 -140 m 1,0,-1
 33 490 l 1,1,-1
 248 490 l 1,2,-1
 248 177 l 2,3,4
 248 152 248 152 275 152.5 c 128,-1,5
 302 153 302 153 302 177 c 2,6,-1
 302 490 l 1,7,-1
 516 490 l 1,8,-1
 516 154 l 2,9,10
 516 141 516 141 526 135.5 c 128,-1,11
 536 130 536 130 560 130 c 1,12,-1
 542 -6 l 1,13,14
 489 -10 489 -10 454 -10 c 0,15,16
 372 -10 372 -10 330 32 c 1,17,-1
 326 32 l 1,18,19
 296 -10 296 -10 241 -10 c 1,20,-1
 241 -140 l 1,21,-1
 33 -140 l 1,0,-1
EndSplineSet
EndChar

StartChar: paragraph
Encoding: 182 182 119
Width: 672
GlyphClass: 2
Flags: W
LayerCount: 2
Fore
SplineSet
598 -140 m 1,0,-1
 426 -140 l 1,1,-1
 426 489 l 1,2,-1
 401 489 l 1,3,-1
 401 -140 l 1,4,-1
 228 -140 l 1,5,-1
 228 191 l 1,6,7
 129 194 129 194 72.5 251 c 128,-1,8
 16 308 16 308 16 415 c 128,-1,9
 16 522 16 522 86 583 c 128,-1,10
 156 644 156 644 279 644 c 2,11,-1
 598 644 l 1,12,-1
 598 -140 l 1,0,-1
EndSplineSet
EndChar

StartChar: periodcentered
Encoding: 183 183 120
Width: 403
GlyphClass: 2
Flags: W
LayerCount: 2
Fore
SplineSet
86 312 m 0,0,1
 86 405 86 405 206 406 c 0,2,3
 267 406 267 406 296 383.5 c 128,-1,4
 325 361 325 361 325 311 c 128,-1,5
 325 261 325 261 296.5 240 c 128,-1,6
 268 219 268 219 206 219 c 128,-1,7
 144 219 144 219 115 240.5 c 128,-1,8
 86 262 86 262 86 312 c 0,0,1
EndSplineSet
EndChar

StartChar: cedilla
Encoding: 184 184 121
Width: 512
GlyphClass: 2
Flags: W
LayerCount: 2
Fore
SplineSet
387 -96 m 0,0,1
 387 -172 387 -172 275 -172 c 0,2,3
 208 -172 208 -172 164 -141 c 1,4,-1
 202 -69 l 1,5,6
 249 -101 249 -101 273 -100 c 0,7,8
 280 -100 280 -100 281 -94 c 0,9,10
 281 -90 281 -90 267 -83 c 2,11,-1
 241 -71 l 2,12,13
 217 -58 217 -58 217 -37.5 c 128,-1,14
 217 -17 217 -17 240 0 c 1,15,-1
 331 0 l 1,16,17
 316 -15 316 -15 315 -22 c 0,18,19
 315 -25 315 -25 333 -32 c 128,-1,20
 351 -39 351 -39 369 -54.5 c 128,-1,21
 387 -70 387 -70 387 -96 c 0,0,1
EndSplineSet
EndChar

StartChar: onesuperior
Encoding: 185 185 122
Width: 313
GlyphClass: 2
Flags: W
LayerCount: 2
Fore
SplineSet
244 190 m 1,0,-1
 95 190 l 1,1,-1
 95 514 l 1,2,-1
 45 514 l 1,3,-1
 45 595 l 1,4,-1
 124 636 l 1,5,-1
 244 636 l 1,6,-1
 244 190 l 1,0,-1
EndSplineSet
EndChar

StartChar: ordmasculine
Encoding: 186 186 123
Width: 434
GlyphClass: 2
Flags: W
LayerCount: 2
Fore
SplineSet
86 611.5 m 128,-1,1
 128 654 128 654 217.5 654 c 128,-1,2
 307 654 307 654 347.5 612.5 c 128,-1,3
 388 571 388 571 388 476.5 c 128,-1,4
 388 382 388 382 348 338.5 c 128,-1,5
 308 295 308 295 218 295 c 128,-1,6
 128 295 128 295 86 338 c 128,-1,7
 44 381 44 381 44 475 c 128,-1,0
 44 569 44 569 86 611.5 c 128,-1,1
236.5 536 m 128,-1,9
 232 549 232 549 217.5 549 c 128,-1,10
 203 549 203 549 199 536 c 128,-1,11
 195 523 195 523 195 482 c 2,12,-1
 195 466 l 2,13,14
 195 420 195 420 199 406.5 c 128,-1,15
 203 393 203 393 217.5 393 c 128,-1,16
 232 393 232 393 236.5 406.5 c 128,-1,17
 241 420 241 420 241 462 c 2,18,-1
 241 482 l 2,19,8
 241 523 241 523 236.5 536 c 128,-1,9
EndSplineSet
EndChar

StartChar: guillemotright
Encoding: 187 187 124
Width: 599
GlyphClass: 2
Flags: W
LayerCount: 2
Fore
SplineSet
595 283 m 1,0,-1
 595 215 l 1,1,-1
 386 -1 l 1,2,-1
 275 70 l 1,3,-1
 394 245 l 1,4,-1
 272 420 l 1,5,-1
 392 494 l 1,6,-1
 595 283 l 1,0,-1
343 283 m 1,7,-1
 343 215 l 1,8,-1
 134 -1 l 1,9,-1
 24 70 l 1,10,-1
 142 245 l 1,11,-1
 20 420 l 1,12,-1
 140 494 l 1,13,-1
 343 283 l 1,7,-1
EndSplineSet
EndChar

StartChar: onequarter
Encoding: 188 188 125
Width: 941
GlyphClass: 2
Flags: W
LayerCount: 2
Fore
SplineSet
588 636 m 1,0,-1
 384 0 l 1,1,-1
 233 0 l 1,2,-1
 436 636 l 1,3,-1
 588 636 l 1,0,-1
244 190 m 1,4,-1
 95 190 l 1,5,-1
 95 514 l 1,6,-1
 45 514 l 1,7,-1
 45 595 l 1,8,-1
 124 636 l 1,9,-1
 244 636 l 1,10,-1
 244 190 l 1,4,-1
892 84 m 1,11,-1
 844 84 l 1,12,-1
 844 0 l 1,13,-1
 695 0 l 1,14,-1
 695 84 l 1,15,-1
 522 84 l 1,16,-1
 511 172 l 1,17,-1
 667 441 l 1,18,-1
 844 441 l 1,19,-1
 844 188 l 1,20,-1
 898 188 l 1,21,-1
 892 84 l 1,11,-1
699 185 m 1,22,-1
 699 279 l 1,23,-1
 696 279 l 1,24,-1
 646 185 l 1,25,-1
 699 185 l 1,22,-1
EndSplineSet
EndChar

StartChar: onehalf
Encoding: 189 189 126
Width: 917
GlyphClass: 2
Flags: W
LayerCount: 2
Fore
SplineSet
588 636 m 1,0,-1
 384 0 l 1,1,-1
 233 0 l 1,2,-1
 436 636 l 1,3,-1
 588 636 l 1,0,-1
244 190 m 1,4,-1
 95 190 l 1,5,-1
 95 514 l 1,6,-1
 45 514 l 1,7,-1
 45 595 l 1,8,-1
 124 636 l 1,9,-1
 244 636 l 1,10,-1
 244 190 l 1,4,-1
550 420 m 1,11,12
 633 453 633 453 713 453 c 128,-1,13
 793 453 793 453 832 417 c 128,-1,14
 871 381 871 381 871 318.5 c 128,-1,15
 871 256 871 256 847 213.5 c 128,-1,16
 823 171 823 171 768 114 c 1,17,-1
 768 111 l 1,18,-1
 872 111 l 1,19,-1
 872 0 l 1,20,-1
 567 0 l 1,21,-1
 560 78 l 1,22,23
 587 105 587 105 603.5 120 c 128,-1,24
 620 135 620 135 635 150.5 c 128,-1,25
 650 166 650 166 657.5 174.5 c 128,-1,26
 665 183 665 183 676 197 c 0,27,28
 716 244 716 244 716 279.5 c 128,-1,29
 716 315 716 315 682 315 c 0,30,31
 653 315 653 315 573 295 c 1,32,-1
 550 420 l 1,11,12
EndSplineSet
EndChar

StartChar: threequarters
Encoding: 190 190 127
Width: 1004
GlyphClass: 2
Flags: W
LayerCount: 2
Fore
SplineSet
665 636 m 1,0,-1
 461 0 l 1,1,-1
 310 0 l 1,2,-1
 513 636 l 1,3,-1
 665 636 l 1,0,-1
48 609 m 1,4,5
 125 646 125 646 204.5 646 c 128,-1,6
 284 646 284 646 325.5 613 c 128,-1,7
 367 580 367 580 367 520 c 0,8,9
 367 487 367 487 354.5 466 c 128,-1,10
 342 445 342 445 313 429 c 1,11,-1
 313 426 l 1,12,13
 372 399 372 399 373 329 c 0,14,15
 373 187 373 187 204 186 c 0,16,17
 136 186 136 186 58 216 c 1,18,-1
 89 327 l 1,19,20
 169 303 169 303 187 303 c 0,21,22
 216 303 216 303 216 334.5 c 128,-1,23
 216 366 216 366 182 366 c 2,24,-1
 120 366 l 1,25,-1
 120 466 l 1,26,-1
 182 466 l 2,27,28
 206 466 206 466 206 494.5 c 128,-1,29
 206 523 206 523 177 523 c 0,30,31
 160 523 160 523 80 497 c 1,32,-1
 48 609 l 1,4,5
955 84 m 1,33,-1
 907 84 l 1,34,-1
 907 0 l 1,35,-1
 759 0 l 1,36,-1
 759 84 l 1,37,-1
 586 84 l 1,38,-1
 574 172 l 1,39,-1
 730 441 l 1,40,-1
 907 441 l 1,41,-1
 907 188 l 1,42,-1
 962 188 l 1,43,-1
 955 84 l 1,33,-1
763 185 m 1,44,-1
 763 279 l 1,45,-1
 760 279 l 1,46,-1
 710 185 l 1,47,-1
 763 185 l 1,44,-1
EndSplineSet
EndChar

StartChar: questiondown
Encoding: 191 191 128
Width: 404
GlyphClass: 2
Flags: W
LayerCount: 2
Fore
SplineSet
12 36 m 0,0,1
 12 121 12 121 53 166 c 0,2,3
 76 191 76 191 98.5 206 c 128,-1,4
 121 221 121 221 157 241 c 1,5,-1
 157 310 l 1,6,-1
 328 310 l 1,7,-1
 328 197 l 2,8,9
 328 164 328 164 314 143.5 c 128,-1,10
 300 123 300 123 268.5 109 c 128,-1,11
 237 95 237 95 225 85 c 128,-1,12
 213 75 213 75 213 57 c 0,13,14
 213 27 213 27 248 28 c 0,15,16
 268 28 268 28 380 49 c 1,17,-1
 380 -129 l 1,18,19
 284 -151 284 -151 208 -151 c 0,20,21
 12 -150 12 -150 12 36 c 0,0,1
319.5 481 m 128,-1,23
 342 461 342 461 342 419 c 128,-1,24
 342 377 342 377 320 357 c 128,-1,25
 298 337 298 337 241.5 337 c 128,-1,26
 185 337 185 337 163.5 357 c 128,-1,27
 142 377 142 377 142 419 c 128,-1,28
 142 461 142 461 164 481 c 128,-1,29
 186 501 186 501 241.5 501 c 128,-1,22
 297 501 297 501 319.5 481 c 128,-1,23
EndSplineSet
EndChar

StartChar: Agrave
Encoding: 192 192 129
Width: 576
GlyphClass: 2
Flags: W
LayerCount: 2
Fore
SplineSet
577 0 m 1,0,-1
 361 0 l 1,1,-1
 341 98 l 1,2,-1
 227 98 l 1,3,-1
 206 0 l 1,4,-1
 0 0 l 1,5,-1
 132 636 l 1,6,-1
 444 636 l 1,7,-1
 577 0 l 1,0,-1
326 230 m 1,8,-1
 287 443 l 1,9,-1
 283 443 l 1,10,-1
 243 230 l 1,11,-1
 326 230 l 1,8,-1
246 667 m 1,12,-1
 122 794 l 1,13,-1
 317 794 l 1,14,-1
 384 667 l 1,15,-1
 246 667 l 1,12,-1
EndSplineSet
EndChar

StartChar: Aacute
Encoding: 193 193 130
Width: 576
GlyphClass: 2
Flags: W
LayerCount: 2
Fore
SplineSet
577 0 m 1,0,-1
 361 0 l 1,1,-1
 341 98 l 1,2,-1
 227 98 l 1,3,-1
 206 0 l 1,4,-1
 0 0 l 1,5,-1
 132 636 l 1,6,-1
 444 636 l 1,7,-1
 577 0 l 1,0,-1
326 230 m 1,8,-1
 287 443 l 1,9,-1
 283 443 l 1,10,-1
 243 230 l 1,11,-1
 326 230 l 1,8,-1
460 804 m 1,12,-1
 325 677 l 1,13,-1
 189 677 l 1,14,-1
 252 804 l 1,15,-1
 460 804 l 1,12,-1
EndSplineSet
EndChar

StartChar: Acircumflex
Encoding: 194 194 131
Width: 576
GlyphClass: 2
Flags: W
LayerCount: 2
Fore
SplineSet
577 0 m 1,0,-1
 361 0 l 1,1,-1
 341 98 l 1,2,-1
 227 98 l 1,3,-1
 206 0 l 1,4,-1
 0 0 l 1,5,-1
 132 636 l 1,6,-1
 444 636 l 1,7,-1
 577 0 l 1,0,-1
326 230 m 1,8,-1
 287 443 l 1,9,-1
 283 443 l 1,10,-1
 243 230 l 1,11,-1
 326 230 l 1,8,-1
372 799 m 1,12,-1
 447 671 l 1,13,-1
 321 671 l 1,14,-1
 286 722 l 1,15,-1
 251 671 l 1,16,-1
 123 671 l 1,17,-1
 199 799 l 1,18,-1
 372 799 l 1,12,-1
EndSplineSet
EndChar

StartChar: Atilde
Encoding: 195 195 132
Width: 576
GlyphClass: 2
Flags: W
LayerCount: 2
Fore
SplineSet
577 0 m 1,0,-1
 361 0 l 1,1,-1
 341 98 l 1,2,-1
 227 98 l 1,3,-1
 206 0 l 1,4,-1
 0 0 l 1,5,-1
 132 636 l 1,6,-1
 444 636 l 1,7,-1
 577 0 l 1,0,-1
326 230 m 1,8,-1
 287 443 l 1,9,-1
 283 443 l 1,10,-1
 243 230 l 1,11,-1
 326 230 l 1,8,-1
454 803 m 1,12,-1
 454 792 l 2,13,14
 454 727 454 727 433.5 693 c 128,-1,15
 413 659 413 659 350 659 c 0,16,17
 315 659 315 659 242 684 c 1,18,-1
 242 653 l 1,19,-1
 113 653 l 1,20,-1
 113 666 l 2,21,22
 113 732 113 732 135 765 c 128,-1,23
 157 798 157 798 212 798 c 0,24,25
 241 798 241 798 325 773 c 1,26,-1
 325 803 l 1,27,-1
 454 803 l 1,12,-1
EndSplineSet
EndChar

StartChar: Adieresis
Encoding: 196 196 133
Width: 576
GlyphClass: 2
Flags: W
LayerCount: 2
Fore
SplineSet
577 0 m 1,0,-1
 361 0 l 1,1,-1
 341 98 l 1,2,-1
 227 98 l 1,3,-1
 206 0 l 1,4,-1
 0 0 l 1,5,-1
 132 636 l 1,6,-1
 444 636 l 1,7,-1
 577 0 l 1,0,-1
326 230 m 1,8,-1
 287 443 l 1,9,-1
 283 443 l 1,10,-1
 243 230 l 1,11,-1
 326 230 l 1,8,-1
120 723 m 128,-1,13
 120 787 120 787 195 787 c 128,-1,14
 270 787 270 787 270 723 c 128,-1,15
 270 659 270 659 195 659 c 128,-1,12
 120 659 120 659 120 723 c 128,-1,13
301 723 m 128,-1,17
 301 787 301 787 376.5 787 c 128,-1,18
 452 787 452 787 452 723 c 128,-1,19
 452 659 452 659 376.5 659 c 128,-1,16
 301 659 301 659 301 723 c 128,-1,17
EndSplineSet
EndChar

StartChar: Aring
Encoding: 197 197 134
Width: 576
GlyphClass: 2
Flags: W
LayerCount: 2
Fore
SplineSet
184 659 m 0,0,1
 184 741 184 741 284 741 c 128,-1,2
 384 741 384 741 384 665 c 0,3,4
 384 648 384 648 380 636 c 1,5,-1
 444 636 l 1,6,-1
 577 0 l 1,7,-1
 361 0 l 1,8,-1
 341 98 l 1,9,-1
 227 98 l 1,10,-1
 206 0 l 1,11,-1
 0 0 l 1,12,-1
 132 636 l 1,13,-1
 187 636 l 1,14,15
 184 647 184 647 184 659 c 0,0,1
323 230 m 1,16,-1
 288 419 l 1,17,-1
 284 419 l 1,18,-1
 248 230 l 1,19,-1
 323 230 l 1,16,-1
283.5 688 m 128,-1,21
 264 688 264 688 264 662.5 c 128,-1,22
 264 637 264 637 280 636 c 2,23,-1
 287 636 l 2,24,25
 303 637 303 637 303 662.5 c 128,-1,20
 303 688 303 688 283.5 688 c 128,-1,21
EndSplineSet
EndChar

StartChar: AE
Encoding: 198 198 135
Width: 782
GlyphClass: 2
Flags: W
LayerCount: 2
Fore
SplineSet
757 0 m 1,0,-1
 351 0 l 1,1,-1
 351 98 l 1,2,-1
 242 98 l 1,3,-1
 208 0 l 1,4,-1
 -5 0 l 1,5,-1
 220 636 l 1,6,-1
 771 636 l 1,7,-1
 757 467 l 1,8,-1
 570 467 l 1,9,-1
 570 390 l 1,10,-1
 733 390 l 1,11,-1
 733 243 l 1,12,-1
 570 243 l 1,13,-1
 570 156 l 1,14,-1
 771 156 l 1,15,-1
 757 0 l 1,0,-1
351 230 m 1,16,-1
 351 443 l 1,17,-1
 347 443 l 1,18,-1
 279 230 l 1,19,-1
 351 230 l 1,16,-1
EndSplineSet
EndChar

StartChar: Ccedilla
Encoding: 199 199 136
Width: 481
GlyphClass: 2
Flags: W
LayerCount: 2
Fore
SplineSet
454 429 m 1,0,1
 353 459 353 459 315.5 459 c 128,-1,2
 278 459 278 459 260.5 423.5 c 128,-1,3
 243 388 243 388 243 310 c 128,-1,4
 243 232 243 232 260.5 197 c 128,-1,5
 278 162 278 162 318.5 162 c 128,-1,6
 359 162 359 162 455 184 c 1,7,-1
 487 22 l 1,8,9
 401 -5 401 -5 324 -9 c 1,10,11
 318 -15 318 -15 317 -22 c 0,12,13
 317 -25 317 -25 335 -32 c 128,-1,14
 353 -39 353 -39 371 -55 c 128,-1,15
 389 -71 389 -71 389 -96 c 0,16,17
 389 -172 389 -172 278 -172 c 0,18,19
 211 -172 211 -172 166 -141 c 1,20,-1
 204 -69 l 1,21,22
 251 -101 251 -101 275 -100 c 0,23,24
 282 -100 282 -100 283 -94 c 0,25,26
 283 -90 283 -90 269 -83 c 2,27,-1
 243 -71 l 2,28,29
 219 -58 219 -58 219 -38 c 128,-1,30
 219 -18 219 -18 233 -6 c 1,31,32
 122 10 122 10 72 90.5 c 128,-1,33
 22 171 22 171 22 323 c 128,-1,34
 22 475 22 475 89.5 560.5 c 128,-1,35
 157 646 157 646 309 646 c 0,36,37
 398 646 398 646 487 611 c 1,38,-1
 454 429 l 1,0,1
EndSplineSet
EndChar

StartChar: Egrave
Encoding: 200 200 137
Width: 472
GlyphClass: 2
Flags: W
LayerCount: 2
Fore
SplineSet
446 0 m 1,0,-1
 41 0 l 1,1,-1
 41 636 l 1,2,-1
 461 636 l 1,3,-1
 446 467 l 1,4,-1
 260 467 l 1,5,-1
 260 390 l 1,6,-1
 423 390 l 1,7,-1
 423 243 l 1,8,-1
 260 243 l 1,9,-1
 260 156 l 1,10,-1
 461 156 l 1,11,-1
 446 0 l 1,0,-1
211 667 m 1,12,-1
 87 794 l 1,13,-1
 283 794 l 1,14,-1
 349 667 l 1,15,-1
 211 667 l 1,12,-1
EndSplineSet
EndChar

StartChar: Eacute
Encoding: 201 201 138
Width: 472
GlyphClass: 2
Flags: W
LayerCount: 2
Fore
SplineSet
446 0 m 1,0,-1
 41 0 l 1,1,-1
 41 636 l 1,2,-1
 461 636 l 1,3,-1
 446 467 l 1,4,-1
 260 467 l 1,5,-1
 260 390 l 1,6,-1
 423 390 l 1,7,-1
 423 243 l 1,8,-1
 260 243 l 1,9,-1
 260 156 l 1,10,-1
 461 156 l 1,11,-1
 446 0 l 1,0,-1
435 794 m 1,12,-1
 300 667 l 1,13,-1
 165 667 l 1,14,-1
 227 794 l 1,15,-1
 435 794 l 1,12,-1
EndSplineSet
EndChar

StartChar: Ecircumflex
Encoding: 202 202 139
Width: 472
GlyphClass: 2
Flags: W
LayerCount: 2
Fore
SplineSet
446 0 m 1,0,-1
 41 0 l 1,1,-1
 41 636 l 1,2,-1
 461 636 l 1,3,-1
 446 467 l 1,4,-1
 260 467 l 1,5,-1
 260 390 l 1,6,-1
 423 390 l 1,7,-1
 423 243 l 1,8,-1
 260 243 l 1,9,-1
 260 156 l 1,10,-1
 461 156 l 1,11,-1
 446 0 l 1,0,-1
340 788 m 1,12,-1
 416 660 l 1,13,-1
 289 660 l 1,14,-1
 254 712 l 1,15,-1
 219 660 l 1,16,-1
 91 660 l 1,17,-1
 167 788 l 1,18,-1
 340 788 l 1,12,-1
EndSplineSet
EndChar

StartChar: Edieresis
Encoding: 203 203 140
Width: 472
GlyphClass: 2
Flags: W
LayerCount: 2
Fore
SplineSet
446 0 m 1,0,-1
 41 0 l 1,1,-1
 41 636 l 1,2,-1
 461 636 l 1,3,-1
 446 467 l 1,4,-1
 260 467 l 1,5,-1
 260 390 l 1,6,-1
 423 390 l 1,7,-1
 423 243 l 1,8,-1
 260 243 l 1,9,-1
 260 156 l 1,10,-1
 461 156 l 1,11,-1
 446 0 l 1,0,-1
86 723 m 128,-1,13
 86 787 86 787 161.5 787 c 128,-1,14
 237 787 237 787 237 723 c 128,-1,15
 237 659 237 659 161.5 659 c 128,-1,12
 86 659 86 659 86 723 c 128,-1,13
267 723 m 128,-1,17
 267 787 267 787 342.5 787 c 128,-1,18
 418 787 418 787 418 723 c 128,-1,19
 418 659 418 659 342.5 659 c 128,-1,16
 267 659 267 659 267 723 c 128,-1,17
EndSplineSet
EndChar

StartChar: Igrave
Encoding: 204 204 141
Width: 310
GlyphClass: 2
Flags: W
LayerCount: 2
Fore
SplineSet
263 0 m 1,0,-1
 47 0 l 1,1,-1
 47 636 l 1,2,-1
 263 636 l 1,3,-1
 263 0 l 1,0,-1
116 677 m 1,4,-1
 -8 804 l 1,5,-1
 187 804 l 1,6,-1
 254 677 l 1,7,-1
 116 677 l 1,4,-1
EndSplineSet
EndChar

StartChar: Iacute
Encoding: 205 205 142
Width: 310
GlyphClass: 2
Flags: W
LayerCount: 2
Fore
SplineSet
264 0 m 1,0,-1
 48 0 l 1,1,-1
 48 636 l 1,2,-1
 264 636 l 1,3,-1
 264 0 l 1,0,-1
334 804 m 1,4,-1
 199 677 l 1,5,-1
 63 677 l 1,6,-1
 126 804 l 1,7,-1
 334 804 l 1,4,-1
EndSplineSet
EndChar

StartChar: Icircumflex
Encoding: 206 206 143
Width: 310
GlyphClass: 2
Flags: W
LayerCount: 2
Fore
SplineSet
265 0 m 1,0,-1
 49 0 l 1,1,-1
 49 636 l 1,2,-1
 265 636 l 1,3,-1
 265 0 l 1,0,-1
247 799 m 1,4,-1
 323 671 l 1,5,-1
 196 671 l 1,6,-1
 161 722 l 1,7,-1
 126 671 l 1,8,-1
 -2 671 l 1,9,-1
 74 799 l 1,10,-1
 247 799 l 1,4,-1
EndSplineSet
EndChar

StartChar: Idieresis
Encoding: 207 207 144
Width: 310
GlyphClass: 2
Flags: W
LayerCount: 2
Fore
SplineSet
267 0 m 1,0,-1
 51 0 l 1,1,-1
 51 636 l 1,2,-1
 267 636 l 1,3,-1
 267 0 l 1,0,-1
-7 734 m 128,-1,5
 -7 798 -7 798 68 798 c 128,-1,6
 143 798 143 798 143 734 c 128,-1,7
 143 670 143 670 68 670 c 128,-1,4
 -7 670 -7 670 -7 734 c 128,-1,5
174 734 m 128,-1,9
 174 798 174 798 249.5 798 c 128,-1,10
 325 798 325 798 325 734 c 128,-1,11
 325 670 325 670 249.5 670 c 128,-1,8
 174 670 174 670 174 734 c 128,-1,9
EndSplineSet
EndChar

StartChar: Eth
Encoding: 208 208 145
Width: 613
GlyphClass: 2
Flags: W
LayerCount: 2
Fore
SplineSet
591 332 m 0,0,1
 591 0 591 0 288 0 c 2,2,-1
 41 0 l 1,3,-1
 41 241 l 1,4,-1
 -9 241 l 1,5,-1
 -9 382 l 1,6,-1
 41 382 l 1,7,-1
 41 636 l 1,8,-1
 293 636 l 2,9,10
 456 636 456 636 523.5 557.5 c 128,-1,11
 591 479 591 479 591 332 c 0,0,1
305 241 m 1,12,-1
 259 241 l 1,13,-1
 259 160 l 1,14,-1
 285 160 l 2,15,16
 337 160 337 160 352.5 195.5 c 128,-1,17
 368 231 368 231 368 314.5 c 128,-1,18
 368 398 368 398 351 433.5 c 128,-1,19
 334 469 334 469 281 469 c 2,20,-1
 259 469 l 1,21,-1
 259 382 l 1,22,-1
 305 382 l 1,23,-1
 305 241 l 1,12,-1
EndSplineSet
EndChar

StartChar: Ntilde
Encoding: 209 209 146
Width: 621
GlyphClass: 2
Flags: W
LayerCount: 2
Fore
SplineSet
581 0 m 1,0,-1
 372 0 l 1,1,-1
 243 251 l 1,2,-1
 236 251 l 1,3,-1
 236 0 l 1,4,-1
 41 0 l 1,5,-1
 41 636 l 1,6,-1
 257 636 l 1,7,-1
 378 377 l 1,8,-1
 384 377 l 1,9,-1
 384 636 l 1,10,-1
 581 636 l 1,11,-1
 581 0 l 1,0,-1
480 803 m 1,12,-1
 480 792 l 2,13,14
 480 727 480 727 459.5 693 c 128,-1,15
 439 659 439 659 377 659 c 0,16,17
 342 659 342 659 268 684 c 1,18,-1
 268 653 l 1,19,-1
 139 653 l 1,20,-1
 139 666 l 2,21,22
 139 732 139 732 161 765 c 128,-1,23
 183 798 183 798 239 798 c 0,24,25
 268 798 268 798 351 773 c 1,26,-1
 351 803 l 1,27,-1
 480 803 l 1,12,-1
EndSplineSet
EndChar

StartChar: Ograve
Encoding: 210 210 147
Width: 623
GlyphClass: 2
Flags: W
LayerCount: 2
Fore
SplineSet
88.5 569.5 m 128,-1,1
 157 646 157 646 313 646 c 128,-1,2
 469 646 469 646 536 570.5 c 128,-1,3
 603 495 603 495 603 324.5 c 128,-1,4
 603 154 603 154 534 72 c 128,-1,5
 465 -10 465 -10 311 -10 c 128,-1,6
 157 -10 157 -10 88.5 71 c 128,-1,7
 20 152 20 152 20 322.5 c 128,-1,0
 20 493 20 493 88.5 569.5 c 128,-1,1
312 470 m 128,-1,9
 268 470 268 470 256 444.5 c 128,-1,10
 244 419 244 419 244 335 c 2,11,-1
 244 290 l 2,12,13
 244 204 244 204 257 178.5 c 128,-1,14
 270 153 270 153 315 153 c 128,-1,15
 360 153 360 153 371.5 177.5 c 128,-1,16
 383 202 383 202 383 287 c 2,17,-1
 383 334 l 2,18,19
 383 418 383 418 369.5 444 c 128,-1,8
 356 470 356 470 312 470 c 128,-1,9
251 677 m 1,20,-1
 127 804 l 1,21,-1
 323 804 l 1,22,-1
 389 677 l 1,23,-1
 251 677 l 1,20,-1
EndSplineSet
EndChar

StartChar: Oacute
Encoding: 211 211 148
Width: 623
GlyphClass: 2
Flags: W
LayerCount: 2
Fore
SplineSet
88.5 569.5 m 128,-1,1
 157 646 157 646 313 646 c 128,-1,2
 469 646 469 646 536 570.5 c 128,-1,3
 603 495 603 495 603 324.5 c 128,-1,4
 603 154 603 154 534 72 c 128,-1,5
 465 -10 465 -10 311 -10 c 128,-1,6
 157 -10 157 -10 88.5 71 c 128,-1,7
 20 152 20 152 20 322.5 c 128,-1,0
 20 493 20 493 88.5 569.5 c 128,-1,1
312 470 m 128,-1,9
 268 470 268 470 256 444.5 c 128,-1,10
 244 419 244 419 244 335 c 2,11,-1
 244 290 l 2,12,13
 244 204 244 204 257 178.5 c 128,-1,14
 270 153 270 153 315 153 c 128,-1,15
 360 153 360 153 371.5 177.5 c 128,-1,16
 383 202 383 202 383 287 c 2,17,-1
 383 334 l 2,18,19
 383 418 383 418 369.5 444 c 128,-1,8
 356 470 356 470 312 470 c 128,-1,9
501 804 m 1,20,-1
 366 677 l 1,21,-1
 230 677 l 1,22,-1
 293 804 l 1,23,-1
 501 804 l 1,20,-1
EndSplineSet
EndChar

StartChar: Ocircumflex
Encoding: 212 212 149
Width: 623
GlyphClass: 2
Flags: W
LayerCount: 2
Fore
SplineSet
88.5 569.5 m 128,-1,1
 157 646 157 646 313 646 c 128,-1,2
 469 646 469 646 536 570.5 c 128,-1,3
 603 495 603 495 603 324.5 c 128,-1,4
 603 154 603 154 534 72 c 128,-1,5
 465 -10 465 -10 311 -10 c 128,-1,6
 157 -10 157 -10 88.5 71 c 128,-1,7
 20 152 20 152 20 322.5 c 128,-1,0
 20 493 20 493 88.5 569.5 c 128,-1,1
312 470 m 128,-1,9
 268 470 268 470 256 444.5 c 128,-1,10
 244 419 244 419 244 335 c 2,11,-1
 244 290 l 2,12,13
 244 204 244 204 257 178.5 c 128,-1,14
 270 153 270 153 315 153 c 128,-1,15
 360 153 360 153 371.5 177.5 c 128,-1,16
 383 202 383 202 383 287 c 2,17,-1
 383 334 l 2,18,19
 383 418 383 418 369.5 444 c 128,-1,8
 356 470 356 470 312 470 c 128,-1,9
398 799 m 1,20,-1
 474 671 l 1,21,-1
 347 671 l 1,22,-1
 312 722 l 1,23,-1
 278 671 l 1,24,-1
 150 671 l 1,25,-1
 225 799 l 1,26,-1
 398 799 l 1,20,-1
EndSplineSet
EndChar

StartChar: Otilde
Encoding: 213 213 150
Width: 623
GlyphClass: 2
Flags: W
LayerCount: 2
Fore
SplineSet
88.5 569.5 m 128,-1,1
 157 646 157 646 313 646 c 128,-1,2
 469 646 469 646 536 570.5 c 128,-1,3
 603 495 603 495 603 324.5 c 128,-1,4
 603 154 603 154 534 72 c 128,-1,5
 465 -10 465 -10 311 -10 c 128,-1,6
 157 -10 157 -10 88.5 71 c 128,-1,7
 20 152 20 152 20 322.5 c 128,-1,0
 20 493 20 493 88.5 569.5 c 128,-1,1
312 470 m 128,-1,9
 268 470 268 470 256 444.5 c 128,-1,10
 244 419 244 419 244 335 c 2,11,-1
 244 290 l 2,12,13
 244 204 244 204 257 178.5 c 128,-1,14
 270 153 270 153 315 153 c 128,-1,15
 360 153 360 153 371.5 177.5 c 128,-1,16
 383 202 383 202 383 287 c 2,17,-1
 383 334 l 2,18,19
 383 418 383 418 369.5 444 c 128,-1,8
 356 470 356 470 312 470 c 128,-1,9
473 813 m 1,20,-1
 473 802 l 2,21,22
 473 737 473 737 452.5 703.5 c 128,-1,23
 432 670 432 670 370 670 c 0,24,25
 335 670 335 670 261 694 c 1,26,-1
 261 664 l 1,27,-1
 132 664 l 1,28,-1
 132 676 l 2,29,30
 132 742 132 742 154 775 c 128,-1,31
 176 808 176 808 231 808 c 0,32,33
 260 808 260 808 344 783 c 1,34,-1
 344 813 l 1,35,-1
 473 813 l 1,20,-1
EndSplineSet
EndChar

StartChar: Odieresis
Encoding: 214 214 151
Width: 623
GlyphClass: 2
Flags: W
LayerCount: 2
Fore
SplineSet
88.5 569.5 m 128,-1,1
 157 646 157 646 313 646 c 128,-1,2
 469 646 469 646 536 570.5 c 128,-1,3
 603 495 603 495 603 324.5 c 128,-1,4
 603 154 603 154 534 72 c 128,-1,5
 465 -10 465 -10 311 -10 c 128,-1,6
 157 -10 157 -10 88.5 71 c 128,-1,7
 20 152 20 152 20 322.5 c 128,-1,0
 20 493 20 493 88.5 569.5 c 128,-1,1
312 470 m 128,-1,9
 268 470 268 470 256 444.5 c 128,-1,10
 244 419 244 419 244 335 c 2,11,-1
 244 290 l 2,12,13
 244 204 244 204 257 178.5 c 128,-1,14
 270 153 270 153 315 153 c 128,-1,15
 360 153 360 153 371.5 177.5 c 128,-1,16
 383 202 383 202 383 287 c 2,17,-1
 383 334 l 2,18,19
 383 418 383 418 369.5 444 c 128,-1,8
 356 470 356 470 312 470 c 128,-1,9
144 723 m 128,-1,21
 144 787 144 787 219.5 787 c 128,-1,22
 295 787 295 787 295 723 c 128,-1,23
 295 659 295 659 219.5 659 c 128,-1,20
 144 659 144 659 144 723 c 128,-1,21
326 723 m 128,-1,25
 326 787 326 787 401 787 c 128,-1,26
 476 787 476 787 476 723 c 128,-1,27
 476 659 476 659 401 659 c 128,-1,24
 326 659 326 659 326 723 c 128,-1,25
EndSplineSet
EndChar

StartChar: multiply
Encoding: 215 215 152
Width: 481
GlyphClass: 2
Flags: W
LayerCount: 2
Fore
SplineSet
33 207 m 1,0,-1
 123 297 l 1,1,-1
 33 387 l 1,2,-1
 151 505 l 1,3,-1
 241 415 l 1,4,-1
 331 505 l 1,5,-1
 449 387 l 1,6,-1
 358 297 l 1,7,-1
 449 207 l 1,8,-1
 331 89 l 1,9,-1
 241 179 l 1,10,-1
 151 89 l 1,11,-1
 33 207 l 1,0,-1
EndSplineSet
EndChar

StartChar: Oslash
Encoding: 216 216 153
Width: 623
GlyphClass: 2
Flags: W
LayerCount: 2
Fore
SplineSet
309 -10 m 1,0,-1
 279 -9 l 1,1,-1
 251 -71 l 1,2,-1
 34 -71 l 1,3,-1
 94 63 l 1,4,5
 20 141 20 141 20 317 c 128,-1,6
 20 493 20 493 88.5 569.5 c 128,-1,7
 157 646 157 646 313 646 c 0,8,9
 328 646 328 646 357 644 c 1,10,-1
 382 697 l 1,11,-1
 596 697 l 1,12,-1
 538 568 l 1,13,14
 604 493 604 493 603.5 323.5 c 128,-1,15
 603 154 603 154 534 72 c 128,-1,16
 465 -10 465 -10 309 -10 c 1,0,-1
312 470 m 128,-1,18
 268 470 268 470 256 444.5 c 128,-1,19
 244 419 244 419 244 335 c 2,20,-1
 244 290 l 2,21,22
 244 204 244 204 257 178.5 c 128,-1,23
 270 153 270 153 315 153 c 128,-1,24
 360 153 360 153 371.5 177.5 c 128,-1,25
 383 202 383 202 383 287 c 2,26,-1
 383 334 l 2,27,28
 383 418 383 418 369.5 444 c 128,-1,17
 356 470 356 470 312 470 c 128,-1,18
EndSplineSet
EndChar

StartChar: Ugrave
Encoding: 217 217 154
Width: 615
GlyphClass: 2
Flags: W
LayerCount: 2
Fore
SplineSet
260 225 m 2,0,1
 260 170 260 170 309.5 170 c 128,-1,2
 359 170 359 170 359 226 c 2,3,-1
 359 636 l 1,4,-1
 579 636 l 1,5,-1
 579 213 l 2,6,7
 579 100 579 100 508 45 c 128,-1,8
 437 -10 437 -10 305 -10 c 0,9,10
 37 -10 37 -10 37 211 c 2,11,-1
 37 636 l 1,12,-1
 260 636 l 1,13,-1
 260 225 l 2,0,1
251 667 m 1,14,-1
 127 794 l 1,15,-1
 323 794 l 1,16,-1
 389 667 l 1,17,-1
 251 667 l 1,14,-1
EndSplineSet
EndChar

StartChar: Uacute
Encoding: 218 218 155
Width: 615
GlyphClass: 2
Flags: W
LayerCount: 2
Fore
SplineSet
260 225 m 2,0,1
 260 170 260 170 309.5 170 c 128,-1,2
 359 170 359 170 359 226 c 2,3,-1
 359 636 l 1,4,-1
 579 636 l 1,5,-1
 579 213 l 2,6,7
 579 100 579 100 508 45 c 128,-1,8
 437 -10 437 -10 305 -10 c 0,9,10
 37 -10 37 -10 37 211 c 2,11,-1
 37 636 l 1,12,-1
 260 636 l 1,13,-1
 260 225 l 2,0,1
512 794 m 1,14,-1
 377 667 l 1,15,-1
 242 667 l 1,16,-1
 304 794 l 1,17,-1
 512 794 l 1,14,-1
EndSplineSet
EndChar

StartChar: Ucircumflex
Encoding: 219 219 156
Width: 615
GlyphClass: 2
Flags: W
LayerCount: 2
Fore
SplineSet
260 225 m 2,0,1
 260 170 260 170 309.5 170 c 128,-1,2
 359 170 359 170 359 226 c 2,3,-1
 359 636 l 1,4,-1
 579 636 l 1,5,-1
 579 213 l 2,6,7
 579 100 579 100 508 45 c 128,-1,8
 437 -10 437 -10 305 -10 c 0,9,10
 37 -10 37 -10 37 211 c 2,11,-1
 37 636 l 1,12,-1
 260 636 l 1,13,-1
 260 225 l 2,0,1
394 788 m 1,14,-1
 470 660 l 1,15,-1
 343 660 l 1,16,-1
 308 712 l 1,17,-1
 273 660 l 1,18,-1
 145 660 l 1,19,-1
 221 788 l 1,20,-1
 394 788 l 1,14,-1
EndSplineSet
EndChar

StartChar: Udieresis
Encoding: 220 220 157
Width: 615
GlyphClass: 2
Flags: W
LayerCount: 2
Fore
SplineSet
260 225 m 2,0,1
 260 170 260 170 309.5 170 c 128,-1,2
 359 170 359 170 359 226 c 2,3,-1
 359 636 l 1,4,-1
 579 636 l 1,5,-1
 579 213 l 2,6,7
 579 100 579 100 508 45 c 128,-1,8
 437 -10 437 -10 305 -10 c 0,9,10
 37 -10 37 -10 37 211 c 2,11,-1
 37 636 l 1,12,-1
 260 636 l 1,13,-1
 260 225 l 2,0,1
142 723 m 128,-1,15
 142 787 142 787 217.5 787 c 128,-1,16
 293 787 293 787 293 723 c 128,-1,17
 293 659 293 659 217.5 659 c 128,-1,14
 142 659 142 659 142 723 c 128,-1,15
324 723 m 128,-1,19
 324 787 324 787 399 787 c 128,-1,20
 474 787 474 787 474 723 c 128,-1,21
 474 659 474 659 399 659 c 128,-1,18
 324 659 324 659 324 723 c 128,-1,19
EndSplineSet
EndChar

StartChar: Yacute
Encoding: 221 221 158
Width: 548
GlyphClass: 2
Flags: W
LayerCount: 2
Fore
SplineSet
549 636 m 1,0,-1
 381 202 l 1,1,-1
 381 0 l 1,2,-1
 163 0 l 1,3,-1
 163 203 l 1,4,-1
 0 636 l 1,5,-1
 230 636 l 1,6,-1
 275 402 l 1,7,-1
 282 402 l 1,8,-1
 325 636 l 1,9,-1
 549 636 l 1,0,-1
476 794 m 1,10,-1
 341 667 l 1,11,-1
 206 667 l 1,12,-1
 268 794 l 1,13,-1
 476 794 l 1,10,-1
EndSplineSet
EndChar

StartChar: Thorn
Encoding: 222 222 159
Width: 528
GlyphClass: 2
Flags: W
LayerCount: 2
Fore
SplineSet
287 117 m 2,0,-1
 256 117 l 1,1,-1
 256 0 l 1,2,-1
 41 0 l 1,3,-1
 41 636 l 1,4,-1
 256 636 l 1,5,-1
 256 554 l 1,6,-1
 275 554 l 2,7,8
 401 554 401 554 458.5 503 c 128,-1,9
 516 452 516 452 516 334 c 128,-1,10
 516 216 516 216 461 166.5 c 128,-1,11
 406 117 406 117 287 117 c 2,0,-1
306 323.5 m 128,-1,13
 306 362 306 362 296.5 378.5 c 128,-1,14
 287 395 287 395 260 395 c 2,15,-1
 252 395 l 1,16,-1
 252 252 l 1,17,-1
 265 252 l 2,18,19
 289 252 289 252 297.5 268.5 c 128,-1,12
 306 285 306 285 306 323.5 c 128,-1,13
EndSplineSet
EndChar

StartChar: germandbls
Encoding: 223 223 160
Width: 580
GlyphClass: 2
Flags: W
LayerCount: 2
Fore
SplineSet
265 470 m 2,0,-1
 265 0 l 1,1,-1
 50 0 l 1,2,-1
 50 338 l 1,3,-1
 1 338 l 1,4,-1
 1 476 l 1,5,-1
 50 476 l 1,6,-1
 50 484 l 2,7,8
 50 664 50 664 298 665 c 0,9,10
 425 665 425 665 488 615.5 c 128,-1,11
 551 566 551 566 551 474 c 0,12,13
 551 426 551 426 537 398.5 c 128,-1,14
 523 371 523 371 488 347 c 1,15,-1
 488 342 l 1,16,17
 574 303 574 303 574 190 c 0,18,19
 574 -7 574 -7 374 -6 c 0,20,21
 334 -6 334 -6 284 0 c 1,22,-1
 284 148 l 1,23,24
 299 147 299 147 312 147 c 0,25,26
 359 147 359 147 359 196 c 0,27,28
 359 227 359 227 340.5 239.5 c 128,-1,29
 322 252 322 252 284 252 c 1,30,-1
 284 392 l 1,31,32
 338 392 338 392 338 446 c 128,-1,33
 338 500 338 500 295 500 c 0,34,35
 265 500 265 500 265 470 c 2,0,-1
EndSplineSet
EndChar

StartChar: agrave
Encoding: 224 224 161
Width: 513
GlyphClass: 2
Flags: W
LayerCount: 2
Fore
SplineSet
464 358 m 2,0,-1
 458 154 l 2,1,2
 458 140 458 140 468.5 135 c 128,-1,3
 479 130 479 130 507 130 c 1,4,-1
 487 -6 l 1,5,6
 426 -10 426 -10 404 -10 c 0,7,8
 329 -10 329 -10 296 30 c 1,9,-1
 289 30 l 1,10,11
 240 -10 240 -10 165.5 -10 c 128,-1,12
 91 -10 91 -10 52.5 29.5 c 128,-1,13
 14 69 14 69 14 138 c 0,14,15
 14 224 14 224 72 258 c 128,-1,16
 130 292 130 292 256 301 c 1,17,-1
 256 319 l 2,18,19
 256 337 256 337 237 338 c 0,20,21
 185 338 185 338 57 306 c 1,22,-1
 26 468 l 1,23,24
 172 503 172 503 277.5 503 c 128,-1,25
 383 503 383 503 423.5 468 c 128,-1,26
 464 433 464 433 464 358 c 2,0,-1
232 122 m 0,27,28
 262 122 262 122 262 153 c 2,29,-1
 262 191 l 1,30,31
 209 184 209 184 209 151 c 0,32,33
 208 122 208 122 232 122 c 0,27,28
224 529 m 1,34,-1
 94 663 l 1,35,-1
 300 663 l 1,36,-1
 370 529 l 1,37,-1
 224 529 l 1,34,-1
EndSplineSet
EndChar

StartChar: aacute
Encoding: 225 225 162
Width: 513
GlyphClass: 2
Flags: W
LayerCount: 2
Fore
SplineSet
464 358 m 2,0,-1
 458 154 l 2,1,2
 458 140 458 140 468.5 135 c 128,-1,3
 479 130 479 130 507 130 c 1,4,-1
 487 -6 l 1,5,6
 426 -10 426 -10 404 -10 c 0,7,8
 329 -10 329 -10 296 30 c 1,9,-1
 289 30 l 1,10,11
 240 -10 240 -10 165.5 -10 c 128,-1,12
 91 -10 91 -10 52.5 29.5 c 128,-1,13
 14 69 14 69 14 138 c 0,14,15
 14 224 14 224 72 258 c 128,-1,16
 130 292 130 292 256 301 c 1,17,-1
 256 319 l 2,18,19
 256 337 256 337 237 338 c 0,20,21
 185 338 185 338 57 306 c 1,22,-1
 26 468 l 1,23,24
 172 503 172 503 277.5 503 c 128,-1,25
 383 503 383 503 423.5 468 c 128,-1,26
 464 433 464 433 464 358 c 2,0,-1
232 122 m 0,27,28
 262 122 262 122 262 153 c 2,29,-1
 262 191 l 1,30,31
 209 184 209 184 209 151 c 0,32,33
 208 122 208 122 232 122 c 0,27,28
466 663 m 1,34,-1
 324 529 l 1,35,-1
 181 529 l 1,36,-1
 247 663 l 1,37,-1
 466 663 l 1,34,-1
EndSplineSet
EndChar

StartChar: acircumflex
Encoding: 226 226 163
Width: 513
GlyphClass: 2
Flags: W
LayerCount: 2
Fore
SplineSet
464 358 m 2,0,-1
 458 154 l 2,1,2
 458 140 458 140 468.5 135 c 128,-1,3
 479 130 479 130 507 130 c 1,4,-1
 487 -6 l 1,5,6
 426 -10 426 -10 404 -10 c 0,7,8
 329 -10 329 -10 296 30 c 1,9,-1
 289 30 l 1,10,11
 240 -10 240 -10 165.5 -10 c 128,-1,12
 91 -10 91 -10 52.5 29.5 c 128,-1,13
 14 69 14 69 14 138 c 0,14,15
 14 224 14 224 72 258 c 128,-1,16
 130 292 130 292 256 301 c 1,17,-1
 256 319 l 2,18,19
 256 337 256 337 237 338 c 0,20,21
 185 338 185 338 57 306 c 1,22,-1
 26 468 l 1,23,24
 172 503 172 503 277.5 503 c 128,-1,25
 383 503 383 503 423.5 468 c 128,-1,26
 464 433 464 433 464 358 c 2,0,-1
232 122 m 0,27,28
 262 122 262 122 262 153 c 2,29,-1
 262 191 l 1,30,31
 209 184 209 184 209 151 c 0,32,33
 208 122 208 122 232 122 c 0,27,28
343 657 m 1,34,-1
 423 523 l 1,35,-1
 289 523 l 1,36,-1
 253 577 l 1,37,-1
 216 523 l 1,38,-1
 81 523 l 1,39,-1
 161 657 l 1,40,-1
 343 657 l 1,34,-1
EndSplineSet
EndChar

StartChar: atilde
Encoding: 227 227 164
Width: 513
GlyphClass: 2
Flags: W
LayerCount: 2
Fore
SplineSet
464 358 m 2,0,-1
 458 154 l 2,1,2
 458 140 458 140 468.5 135 c 128,-1,3
 479 130 479 130 507 130 c 1,4,-1
 487 -6 l 1,5,6
 426 -10 426 -10 404 -10 c 0,7,8
 329 -10 329 -10 296 30 c 1,9,-1
 289 30 l 1,10,11
 240 -10 240 -10 165.5 -10 c 128,-1,12
 91 -10 91 -10 52.5 29.5 c 128,-1,13
 14 69 14 69 14 138 c 0,14,15
 14 224 14 224 72 258 c 128,-1,16
 130 292 130 292 256 301 c 1,17,-1
 256 319 l 2,18,19
 256 337 256 337 237 338 c 0,20,21
 185 338 185 338 57 306 c 1,22,-1
 26 468 l 1,23,24
 172 503 172 503 277.5 503 c 128,-1,25
 383 503 383 503 423.5 468 c 128,-1,26
 464 433 464 433 464 358 c 2,0,-1
232 122 m 0,27,28
 262 122 262 122 262 153 c 2,29,-1
 262 191 l 1,30,31
 209 184 209 184 209 151 c 0,32,33
 208 122 208 122 232 122 c 0,27,28
427 673 m 1,34,-1
 427 660 l 2,35,36
 427 592 427 592 405 556.5 c 128,-1,37
 383 521 383 521 317 521 c 0,38,39
 279 521 279 521 204 548 c 1,40,-1
 204 515 l 1,41,-1
 68 515 l 1,42,-1
 68 528 l 2,43,44
 68 597 68 597 91 632.5 c 128,-1,45
 114 668 114 668 172 668 c 0,46,47
 203 668 203 668 291 641 c 1,48,-1
 291 673 l 1,49,-1
 427 673 l 1,34,-1
EndSplineSet
EndChar

StartChar: adieresis
Encoding: 228 228 165
Width: 513
GlyphClass: 2
Flags: W
LayerCount: 2
Fore
SplineSet
464 358 m 2,0,-1
 458 154 l 2,1,2
 458 140 458 140 468.5 135 c 128,-1,3
 479 130 479 130 507 130 c 1,4,-1
 487 -6 l 1,5,6
 426 -10 426 -10 404 -10 c 0,7,8
 329 -10 329 -10 296 30 c 1,9,-1
 289 30 l 1,10,11
 240 -10 240 -10 165.5 -10 c 128,-1,12
 91 -10 91 -10 52.5 29.5 c 128,-1,13
 14 69 14 69 14 138 c 0,14,15
 14 224 14 224 72 258 c 128,-1,16
 130 292 130 292 256 301 c 1,17,-1
 256 319 l 2,18,19
 256 337 256 337 237 338 c 0,20,21
 185 338 185 338 57 306 c 1,22,-1
 26 468 l 1,23,24
 172 503 172 503 277.5 503 c 128,-1,25
 383 503 383 503 423.5 468 c 128,-1,26
 464 433 464 433 464 358 c 2,0,-1
232 122 m 0,27,28
 262 122 262 122 262 153 c 2,29,-1
 262 191 l 1,30,31
 209 184 209 184 209 151 c 0,32,33
 208 122 208 122 232 122 c 0,27,28
75 590 m 0,34,35
 75 623 75 623 95.5 639.5 c 128,-1,36
 116 656 116 656 152 656 c 0,37,38
 234 656 234 656 233 590 c 0,39,40
 233 555 233 555 213.5 538.5 c 128,-1,41
 194 522 194 522 152 522 c 0,42,43
 75 522 75 522 75 590 c 0,34,35
265 590 m 0,44,45
 265 623 265 623 285.5 639.5 c 128,-1,46
 306 656 306 656 342 656 c 0,47,48
 424 656 424 656 424 590 c 0,49,50
 424 555 424 555 404 538.5 c 128,-1,51
 384 522 384 522 342 522 c 0,52,53
 265 522 265 522 265 590 c 0,44,45
EndSplineSet
EndChar

StartChar: aring
Encoding: 229 229 166
Width: 513
GlyphClass: 2
Flags: W
LayerCount: 2
Fore
SplineSet
464 358 m 2,0,-1
 458 154 l 2,1,2
 458 140 458 140 468.5 135 c 128,-1,3
 479 130 479 130 507 130 c 1,4,-1
 487 -6 l 1,5,6
 426 -10 426 -10 404 -10 c 0,7,8
 329 -10 329 -10 296 30 c 1,9,-1
 289 30 l 1,10,11
 240 -10 240 -10 165.5 -10 c 128,-1,12
 91 -10 91 -10 52.5 29.5 c 128,-1,13
 14 69 14 69 14 138 c 0,14,15
 14 224 14 224 72 258 c 128,-1,16
 130 292 130 292 256 301 c 1,17,-1
 256 319 l 2,18,19
 256 337 256 337 237 338 c 0,20,21
 185 338 185 338 57 306 c 1,22,-1
 26 468 l 1,23,24
 172 503 172 503 277.5 503 c 128,-1,25
 383 503 383 503 423.5 468 c 128,-1,26
 464 433 464 433 464 358 c 2,0,-1
232 122 m 0,27,28
 262 122 262 122 262 153 c 2,29,-1
 262 191 l 1,30,31
 209 184 209 184 209 151 c 0,32,33
 208 122 208 122 232 122 c 0,27,28
250.5 629 m 128,-1,35
 230 629 230 629 230 601 c 128,-1,36
 230 573 230 573 250.5 573 c 128,-1,37
 271 573 271 573 271 601 c 128,-1,34
 271 629 271 629 250.5 629 c 128,-1,35
146 598 m 0,38,39
 146 684 146 684 251 684 c 128,-1,40
 356 684 356 684 356 603 c 0,41,42
 356 517 356 517 251 517 c 0,43,44
 200 517 200 517 173 538.5 c 128,-1,45
 146 560 146 560 146 598 c 0,38,39
EndSplineSet
EndChar

StartChar: ae
Encoding: 230 230 167
Width: 748
GlyphClass: 2
Flags: W
LayerCount: 2
Fore
SplineSet
503 503 m 0,0,1
 626 503 626 503 678.5 451.5 c 128,-1,2
 731 400 731 400 731 305 c 0,3,4
 731 273 731 273 723 190 c 1,5,-1
 466 190 l 1,6,7
 470 134 470 134 532 134 c 0,8,9
 581 134 581 134 689 157 c 1,10,-1
 707 18 l 1,11,12
 598 -11 598 -11 499 -10.5 c 128,-1,13
 400 -10 400 -10 341 40 c 1,14,15
 264 -10 264 -10 164 -10 c 0,16,17
 91 -10 91 -10 52.5 29.5 c 128,-1,18
 14 69 14 69 14 138 c 0,19,20
 14 224 14 224 72 258 c 128,-1,21
 130 292 130 292 256 301 c 1,22,-1
 256 319 l 2,23,24
 256 337 256 337 237 338 c 0,25,26
 185 338 185 338 57 306 c 1,27,-1
 26 468 l 1,28,29
 172 503 172 503 287 503 c 0,30,31
 350 503 350 503 390 477 c 1,32,33
 434 503 434 503 503 503 c 0,0,1
232 122 m 0,34,35
 262 122 262 122 262 153 c 2,36,-1
 262 191 l 1,37,38
 209 184 209 184 209 151 c 0,39,40
 208 122 208 122 232 122 c 0,34,35
500 338 m 0,41,42
 462 338 462 338 462 284 c 1,43,-1
 536 284 l 1,44,-1
 536 299 l 2,45,46
 536 338 536 338 500 338 c 0,41,42
EndSplineSet
EndChar

StartChar: ccedilla
Encoding: 231 231 168
Width: 403
GlyphClass: 2
Flags: W
LayerCount: 2
Fore
SplineSet
245 503 m 0,0,1
 328 503 328 503 401 475 c 1,2,-1
 380 313 l 1,3,4
 300 342 300 342 272 342 c 128,-1,5
 244 342 244 342 235 317.5 c 128,-1,6
 226 293 226 293 226 241.5 c 128,-1,7
 226 190 226 190 234.5 167 c 128,-1,8
 243 144 243 144 273.5 144 c 128,-1,9
 304 144 304 144 371 158 c 1,10,-1
 393 15 l 1,11,12
 315 -9 315 -9 259 -10 c 1,13,14
 254 -17 254 -17 254 -21 c 128,-1,15
 254 -25 254 -25 272 -32 c 128,-1,16
 290 -39 290 -39 308 -55 c 128,-1,17
 326 -71 326 -71 326 -96 c 0,18,19
 326 -172 326 -172 214 -172 c 0,20,21
 147 -172 147 -172 102 -141 c 1,22,-1
 140 -69 l 1,23,24
 187 -101 187 -101 212 -100 c 0,25,26
 219 -100 219 -100 219 -94 c 0,27,28
 219 -90 219 -90 206 -83 c 2,29,-1
 179 -71 l 2,30,31
 155 -58 155 -58 155.5 -38 c 128,-1,32
 156 -18 156 -18 174 -3 c 1,33,34
 94 15 94 15 53 77.5 c 128,-1,35
 12 140 12 140 12 237 c 0,36,37
 12 357 12 357 71.5 430 c 128,-1,38
 131 503 131 503 245 503 c 0,0,1
EndSplineSet
EndChar

StartChar: egrave
Encoding: 232 232 169
Width: 509
GlyphClass: 2
Flags: W
LayerCount: 2
Fore
SplineSet
261 338 m 0,0,1
 239 338 239 338 231 324.5 c 128,-1,2
 223 311 223 311 223 284 c 1,3,-1
 297 284 l 1,4,-1
 297 300 l 2,5,6
 297 338 297 338 261 338 c 0,0,1
76 436 m 128,-1,8
 140 503 140 503 264.5 503 c 128,-1,9
 389 503 389 503 441 451.5 c 128,-1,10
 493 400 493 400 493 305 c 0,11,12
 493 267 493 267 484 190 c 1,13,-1
 227 190 l 1,14,15
 231 135 231 135 295 135 c 0,16,17
 325 135 325 135 451 157 c 1,18,-1
 468 18 l 1,19,20
 359 -11 359 -11 265 -10 c 0,21,22
 142 -10 142 -10 77 57.5 c 128,-1,23
 12 125 12 125 12 247 c 128,-1,7
 12 369 12 369 76 436 c 128,-1,8
228 529 m 1,24,-1
 98 663 l 1,25,-1
 304 663 l 1,26,-1
 374 529 l 1,27,-1
 228 529 l 1,24,-1
EndSplineSet
EndChar

StartChar: eacute
Encoding: 233 233 170
Width: 509
GlyphClass: 2
Flags: W
LayerCount: 2
Fore
SplineSet
261 338 m 0,0,1
 239 338 239 338 231 324.5 c 128,-1,2
 223 311 223 311 223 284 c 1,3,-1
 297 284 l 1,4,-1
 297 300 l 2,5,6
 297 338 297 338 261 338 c 0,0,1
76 436 m 128,-1,8
 140 503 140 503 264.5 503 c 128,-1,9
 389 503 389 503 441 451.5 c 128,-1,10
 493 400 493 400 493 305 c 0,11,12
 493 267 493 267 484 190 c 1,13,-1
 227 190 l 1,14,15
 231 135 231 135 295 135 c 0,16,17
 325 135 325 135 451 157 c 1,18,-1
 468 18 l 1,19,20
 359 -11 359 -11 265 -10 c 0,21,22
 142 -10 142 -10 77 57.5 c 128,-1,23
 12 125 12 125 12 247 c 128,-1,7
 12 369 12 369 76 436 c 128,-1,8
466 663 m 1,24,-1
 324 529 l 1,25,-1
 181 529 l 1,26,-1
 247 663 l 1,27,-1
 466 663 l 1,24,-1
EndSplineSet
EndChar

StartChar: ecircumflex
Encoding: 234 234 171
Width: 509
GlyphClass: 2
Flags: W
LayerCount: 2
Fore
SplineSet
261 338 m 0,0,1
 239 338 239 338 231 324.5 c 128,-1,2
 223 311 223 311 223 284 c 1,3,-1
 297 284 l 1,4,-1
 297 300 l 2,5,6
 297 338 297 338 261 338 c 0,0,1
76 436 m 128,-1,8
 140 503 140 503 264.5 503 c 128,-1,9
 389 503 389 503 441 451.5 c 128,-1,10
 493 400 493 400 493 305 c 0,11,12
 493 267 493 267 484 190 c 1,13,-1
 227 190 l 1,14,15
 231 135 231 135 295 135 c 0,16,17
 325 135 325 135 451 157 c 1,18,-1
 468 18 l 1,19,20
 359 -11 359 -11 265 -10 c 0,21,22
 142 -10 142 -10 77 57.5 c 128,-1,23
 12 125 12 125 12 247 c 128,-1,7
 12 369 12 369 76 436 c 128,-1,8
353 657 m 1,24,-1
 433 523 l 1,25,-1
 299 523 l 1,26,-1
 263 577 l 1,27,-1
 226 523 l 1,28,-1
 91 523 l 1,29,-1
 171 657 l 1,30,-1
 353 657 l 1,24,-1
EndSplineSet
EndChar

StartChar: edieresis
Encoding: 235 235 172
Width: 509
GlyphClass: 2
Flags: W
LayerCount: 2
Fore
SplineSet
261 338 m 0,0,1
 239 338 239 338 231 324.5 c 128,-1,2
 223 311 223 311 223 284 c 1,3,-1
 297 284 l 1,4,-1
 297 300 l 2,5,6
 297 338 297 338 261 338 c 0,0,1
76 436 m 128,-1,8
 140 503 140 503 264.5 503 c 128,-1,9
 389 503 389 503 441 451.5 c 128,-1,10
 493 400 493 400 493 305 c 0,11,12
 493 267 493 267 484 190 c 1,13,-1
 227 190 l 1,14,15
 231 135 231 135 295 135 c 0,16,17
 325 135 325 135 451 157 c 1,18,-1
 468 18 l 1,19,20
 359 -11 359 -11 265 -10 c 0,21,22
 142 -10 142 -10 77 57.5 c 128,-1,23
 12 125 12 125 12 247 c 128,-1,7
 12 369 12 369 76 436 c 128,-1,8
88 590 m 0,24,25
 88 623 88 623 108.5 639.5 c 128,-1,26
 129 656 129 656 165 656 c 0,27,28
 247 656 247 656 247 590 c 0,29,30
 247 555 247 555 227 538.5 c 128,-1,31
 207 522 207 522 165 522 c 0,32,33
 88 522 88 522 88 590 c 0,24,25
279 590 m 0,34,35
 279 623 279 623 299 639.5 c 128,-1,36
 319 656 319 656 355 656 c 0,37,38
 437 656 437 656 437 590 c 0,39,40
 437 555 437 555 417 538.5 c 128,-1,41
 397 522 397 522 355 522 c 0,42,43
 279 522 279 522 279 590 c 0,34,35
EndSplineSet
EndChar

StartChar: igrave
Encoding: 236 236 173
Width: 286
GlyphClass: 2
Flags: W
LayerCount: 2
Fore
SplineSet
251 0 m 1,0,-1
 38 0 l 1,1,-1
 38 480 l 1,2,-1
 251 480 l 1,3,-1
 251 0 l 1,0,-1
99 529 m 1,4,-1
 -31 663 l 1,5,-1
 175 663 l 1,6,-1
 245 529 l 1,7,-1
 99 529 l 1,4,-1
EndSplineSet
EndChar

StartChar: iacute
Encoding: 237 237 174
Width: 286
GlyphClass: 2
Flags: W
LayerCount: 2
Fore
SplineSet
252 0 m 1,0,-1
 39 0 l 1,1,-1
 39 480 l 1,2,-1
 252 480 l 1,3,-1
 252 0 l 1,0,-1
327 663 m 1,4,-1
 184 529 l 1,5,-1
 42 529 l 1,6,-1
 108 663 l 1,7,-1
 327 663 l 1,4,-1
EndSplineSet
EndChar

StartChar: icircumflex
Encoding: 238 238 175
Width: 286
GlyphClass: 2
Flags: W
LayerCount: 2
Fore
SplineSet
252 0 m 1,0,-1
 39 0 l 1,1,-1
 39 480 l 1,2,-1
 252 480 l 1,3,-1
 252 0 l 1,0,-1
236 657 m 1,4,-1
 315 523 l 1,5,-1
 181 523 l 1,6,-1
 145 577 l 1,7,-1
 109 523 l 1,8,-1
 -27 523 l 1,9,-1
 53 657 l 1,10,-1
 236 657 l 1,4,-1
EndSplineSet
EndChar

StartChar: idieresis
Encoding: 239 239 176
Width: 286
GlyphClass: 2
Flags: W
LayerCount: 2
Fore
SplineSet
251 0 m 1,0,-1
 38 0 l 1,1,-1
 38 480 l 1,2,-1
 251 480 l 1,3,-1
 251 0 l 1,0,-1
-29 590 m 0,4,5
 -29 623 -29 623 -8.5 639.5 c 128,-1,6
 12 656 12 656 48 656 c 0,7,8
 130 656 130 656 130 590 c 0,9,10
 130 555 130 555 110 538.5 c 128,-1,11
 90 522 90 522 48 522 c 0,12,13
 -29 522 -29 522 -29 590 c 0,4,5
162 590 m 0,14,15
 162 623 162 623 182.5 639.5 c 128,-1,16
 203 656 203 656 239 656 c 0,17,18
 321 656 321 656 321 590 c 0,19,20
 321 555 321 555 301 538.5 c 128,-1,21
 281 522 281 522 239 522 c 0,22,23
 162 522 162 522 162 590 c 0,14,15
EndSplineSet
EndChar

StartChar: eth
Encoding: 240 240 177
Width: 533
GlyphClass: 2
Flags: W
LayerCount: 2
Fore
SplineSet
220 410 m 0,0,1
 259 410 259 410 283 406 c 1,2,-1
 287 410 l 1,3,4
 274 441 274 441 246 458 c 1,5,-1
 127 403 l 1,6,-1
 127 503 l 1,7,-1
 142 512 l 1,8,-1
 142 516 l 1,9,10
 119 520 119 520 67 520 c 1,11,-1
 67 671 l 1,12,13
 207 671 207 671 309 636 c 1,14,-1
 423 687 l 1,15,-1
 423 567 l 1,16,-1
 404 556 l 1,17,18
 518 457 518 457 518 271 c 0,19,20
 518 137 518 137 454 63.5 c 128,-1,21
 390 -10 390 -10 264.5 -10 c 128,-1,22
 139 -10 139 -10 77 42.5 c 128,-1,23
 15 95 15 95 15 213 c 0,24,25
 15 309 15 309 68 359.5 c 128,-1,26
 121 410 121 410 220 410 c 0,0,1
296 272.5 m 128,-1,28
 290 290 290 290 268.5 290 c 128,-1,29
 247 290 247 290 239.5 267.5 c 128,-1,30
 232 245 232 245 232 201.5 c 128,-1,31
 232 158 232 158 239 140.5 c 128,-1,32
 246 123 246 123 267.5 123 c 128,-1,33
 289 123 289 123 295.5 145 c 128,-1,34
 302 167 302 167 302 211 c 128,-1,27
 302 255 302 255 296 272.5 c 128,-1,28
EndSplineSet
EndChar

StartChar: ntilde
Encoding: 241 241 178
Width: 551
GlyphClass: 2
Flags: W
LayerCount: 2
Fore
SplineSet
371 503 m 0,0,1
 514 503 514 503 514 364 c 2,2,-1
 514 0 l 1,3,-1
 298 0 l 1,4,-1
 298 317 l 2,5,6
 298 333 298 333 281 333.5 c 128,-1,7
 264 334 264 334 244 324 c 1,8,-1
 244 0 l 1,9,-1
 31 0 l 1,10,-1
 31 490 l 1,11,-1
 224 490 l 1,12,-1
 230 459 l 1,13,14
 295 503 295 503 371 503 c 0,0,1
447 673 m 1,15,-1
 447 660 l 2,16,17
 447 592 447 592 425 556.5 c 128,-1,18
 403 521 403 521 338 521 c 0,19,20
 300 521 300 521 224 548 c 1,21,-1
 224 515 l 1,22,-1
 88 515 l 1,23,-1
 88 528 l 2,24,25
 88 597 88 597 111 632.5 c 128,-1,26
 134 668 134 668 193 668 c 0,27,28
 224 668 224 668 311 641 c 1,29,-1
 311 673 l 1,30,-1
 447 673 l 1,15,-1
EndSplineSet
EndChar

StartChar: ograve
Encoding: 242 242 179
Width: 516
GlyphClass: 2
Flags: W
LayerCount: 2
Fore
SplineSet
72 442.5 m 128,-1,1
 132 503 132 503 259.5 503 c 128,-1,2
 387 503 387 503 445.5 443.5 c 128,-1,3
 504 384 504 384 504 248.5 c 128,-1,4
 504 113 504 113 447 51.5 c 128,-1,5
 390 -10 390 -10 260.5 -10 c 128,-1,6
 131 -10 131 -10 71.5 51.5 c 128,-1,7
 12 113 12 113 12 247.5 c 128,-1,0
 12 382 12 382 72 442.5 c 128,-1,1
259.5 352 m 128,-1,9
 238 352 238 352 232 334 c 128,-1,10
 226 316 226 316 226 258 c 2,11,-1
 226 233 l 2,12,13
 226 167 226 167 232 148.5 c 128,-1,14
 238 130 238 130 259.5 130 c 128,-1,15
 281 130 281 130 286.5 149 c 128,-1,16
 292 168 292 168 292 228 c 2,17,-1
 292 257 l 2,18,19
 292 316 292 316 286.5 334 c 128,-1,8
 281 352 281 352 259.5 352 c 128,-1,9
223 529 m 1,20,-1
 93 663 l 1,21,-1
 299 663 l 1,22,-1
 369 529 l 1,23,-1
 223 529 l 1,20,-1
EndSplineSet
EndChar

StartChar: oacute
Encoding: 243 243 180
Width: 516
GlyphClass: 2
Flags: W
LayerCount: 2
Fore
SplineSet
72 442.5 m 128,-1,1
 132 503 132 503 259.5 503 c 128,-1,2
 387 503 387 503 445.5 443.5 c 128,-1,3
 504 384 504 384 504 248.5 c 128,-1,4
 504 113 504 113 447 51.5 c 128,-1,5
 390 -10 390 -10 260.5 -10 c 128,-1,6
 131 -10 131 -10 71.5 51.5 c 128,-1,7
 12 113 12 113 12 247.5 c 128,-1,0
 12 382 12 382 72 442.5 c 128,-1,1
259.5 352 m 128,-1,9
 238 352 238 352 232 334 c 128,-1,10
 226 316 226 316 226 258 c 2,11,-1
 226 233 l 2,12,13
 226 167 226 167 232 148.5 c 128,-1,14
 238 130 238 130 259.5 130 c 128,-1,15
 281 130 281 130 286.5 149 c 128,-1,16
 292 168 292 168 292 228 c 2,17,-1
 292 257 l 2,18,19
 292 316 292 316 286.5 334 c 128,-1,8
 281 352 281 352 259.5 352 c 128,-1,9
456 663 m 1,20,-1
 313 529 l 1,21,-1
 171 529 l 1,22,-1
 237 663 l 1,23,-1
 456 663 l 1,20,-1
EndSplineSet
EndChar

StartChar: ocircumflex
Encoding: 244 244 181
Width: 516
GlyphClass: 2
Flags: W
LayerCount: 2
Fore
SplineSet
72 442.5 m 128,-1,1
 132 503 132 503 259.5 503 c 128,-1,2
 387 503 387 503 445.5 443.5 c 128,-1,3
 504 384 504 384 504 248.5 c 128,-1,4
 504 113 504 113 447 51.5 c 128,-1,5
 390 -10 390 -10 260.5 -10 c 128,-1,6
 131 -10 131 -10 71.5 51.5 c 128,-1,7
 12 113 12 113 12 247.5 c 128,-1,0
 12 382 12 382 72 442.5 c 128,-1,1
259.5 352 m 128,-1,9
 238 352 238 352 232 334 c 128,-1,10
 226 316 226 316 226 258 c 2,11,-1
 226 233 l 2,12,13
 226 167 226 167 232 148.5 c 128,-1,14
 238 130 238 130 259.5 130 c 128,-1,15
 281 130 281 130 286.5 149 c 128,-1,16
 292 168 292 168 292 228 c 2,17,-1
 292 257 l 2,18,19
 292 316 292 316 286.5 334 c 128,-1,8
 281 352 281 352 259.5 352 c 128,-1,9
350 657 m 1,20,-1
 430 523 l 1,21,-1
 296 523 l 1,22,-1
 260 577 l 1,23,-1
 223 523 l 1,24,-1
 88 523 l 1,25,-1
 168 657 l 1,26,-1
 350 657 l 1,20,-1
EndSplineSet
EndChar

StartChar: otilde
Encoding: 245 245 182
Width: 516
GlyphClass: 2
Flags: W
LayerCount: 2
Fore
SplineSet
72 442.5 m 128,-1,1
 132 503 132 503 259.5 503 c 128,-1,2
 387 503 387 503 445.5 443.5 c 128,-1,3
 504 384 504 384 504 248.5 c 128,-1,4
 504 113 504 113 447 51.5 c 128,-1,5
 390 -10 390 -10 260.5 -10 c 128,-1,6
 131 -10 131 -10 71.5 51.5 c 128,-1,7
 12 113 12 113 12 247.5 c 128,-1,0
 12 382 12 382 72 442.5 c 128,-1,1
259.5 352 m 128,-1,9
 238 352 238 352 232 334 c 128,-1,10
 226 316 226 316 226 258 c 2,11,-1
 226 233 l 2,12,13
 226 167 226 167 232 148.5 c 128,-1,14
 238 130 238 130 259.5 130 c 128,-1,15
 281 130 281 130 286.5 149 c 128,-1,16
 292 168 292 168 292 228 c 2,17,-1
 292 257 l 2,18,19
 292 316 292 316 286.5 334 c 128,-1,8
 281 352 281 352 259.5 352 c 128,-1,9
433 673 m 1,20,-1
 433 660 l 2,21,22
 433 592 433 592 411 556.5 c 128,-1,23
 389 521 389 521 324 521 c 0,24,25
 286 521 286 521 210 548 c 1,26,-1
 210 515 l 1,27,-1
 74 515 l 1,28,-1
 74 528 l 2,29,30
 74 597 74 597 97 632.5 c 128,-1,31
 120 668 120 668 178 668 c 0,32,33
 209 668 209 668 297 641 c 1,34,-1
 297 673 l 1,35,-1
 433 673 l 1,20,-1
EndSplineSet
EndChar

StartChar: odieresis
Encoding: 246 246 183
Width: 516
GlyphClass: 2
Flags: W
LayerCount: 2
Fore
SplineSet
72 442.5 m 128,-1,1
 132 503 132 503 259.5 503 c 128,-1,2
 387 503 387 503 445.5 443.5 c 128,-1,3
 504 384 504 384 504 248.5 c 128,-1,4
 504 113 504 113 447 51.5 c 128,-1,5
 390 -10 390 -10 260.5 -10 c 128,-1,6
 131 -10 131 -10 71.5 51.5 c 128,-1,7
 12 113 12 113 12 247.5 c 128,-1,0
 12 382 12 382 72 442.5 c 128,-1,1
259.5 352 m 128,-1,9
 238 352 238 352 232 334 c 128,-1,10
 226 316 226 316 226 258 c 2,11,-1
 226 233 l 2,12,13
 226 167 226 167 232 148.5 c 128,-1,14
 238 130 238 130 259.5 130 c 128,-1,15
 281 130 281 130 286.5 149 c 128,-1,16
 292 168 292 168 292 228 c 2,17,-1
 292 257 l 2,18,19
 292 316 292 316 286.5 334 c 128,-1,8
 281 352 281 352 259.5 352 c 128,-1,9
84 590 m 0,20,21
 84 623 84 623 104.5 639.5 c 128,-1,22
 125 656 125 656 161 656 c 0,23,24
 243 656 243 656 243 590 c 0,25,26
 243 555 243 555 223 538.5 c 128,-1,27
 203 522 203 522 161 522 c 0,28,29
 84 522 84 522 84 590 c 0,20,21
274 590 m 0,30,31
 274 623 274 623 294.5 639.5 c 128,-1,32
 315 656 315 656 351 656 c 0,33,34
 433 656 433 656 433 590 c 0,35,36
 433 555 433 555 413 538.5 c 128,-1,37
 393 522 393 522 351 522 c 0,38,39
 274 522 274 522 274 590 c 0,30,31
EndSplineSet
EndChar

StartChar: divide
Encoding: 247 247 184
Width: 487
GlyphClass: 2
Flags: W
LayerCount: 2
Fore
SplineSet
170 31 m 128,-1,1
 147 51 147 51 147 93 c 128,-1,2
 147 135 147 135 169 155 c 128,-1,3
 191 175 191 175 247.5 175 c 128,-1,4
 304 175 304 175 325.5 155 c 128,-1,5
 347 135 347 135 347 93 c 128,-1,6
 347 51 347 51 325 31 c 128,-1,7
 303 11 303 11 248 11 c 128,-1,0
 193 11 193 11 170 31 c 128,-1,1
170 439 m 128,-1,9
 147 459 147 459 147 501 c 128,-1,10
 147 543 147 543 169 563 c 128,-1,11
 191 583 191 583 247.5 583 c 128,-1,12
 304 583 304 583 325.5 563 c 128,-1,13
 347 543 347 543 347 501 c 128,-1,14
 347 459 347 459 325 439 c 128,-1,15
 303 419 303 419 248 419 c 128,-1,8
 193 419 193 419 170 439 c 128,-1,9
455 214 m 1,16,-1
 33 214 l 1,17,-1
 33 380 l 1,18,-1
 455 380 l 1,19,-1
 455 214 l 1,16,-1
EndSplineSet
EndChar

StartChar: oslash
Encoding: 248 248 185
Width: 522
GlyphClass: 2
Flags: W
LayerCount: 2
Fore
SplineSet
264 503 m 0,0,1
 283 503 283 503 294 502 c 1,2,-1
 321 561 l 1,3,-1
 494 561 l 1,4,-1
 443 449 l 1,5,6
 506 389 506 389 506.5 251 c 128,-1,7
 507 113 507 113 450 51.5 c 128,-1,8
 393 -10 393 -10 264 -10 c 0,9,10
 247 -10 247 -10 239 -9 c 1,11,-1
 211 -71 l 1,12,-1
 35 -71 l 1,13,-1
 85 41 l 1,14,15
 15 100 15 100 15 241 c 128,-1,16
 15 382 15 382 75 442.5 c 128,-1,17
 135 503 135 503 264 503 c 0,0,1
262.5 352 m 128,-1,19
 241 352 241 352 235 334 c 128,-1,20
 229 316 229 316 229 258 c 2,21,-1
 229 233 l 2,22,23
 229 167 229 167 235 148.5 c 128,-1,24
 241 130 241 130 262.5 130 c 128,-1,25
 284 130 284 130 289.5 149 c 128,-1,26
 295 168 295 168 295 228 c 2,27,-1
 295 257 l 2,28,29
 295 316 295 316 289.5 334 c 128,-1,18
 284 352 284 352 262.5 352 c 128,-1,19
EndSplineSet
EndChar

StartChar: ugrave
Encoding: 249 249 186
Width: 551
GlyphClass: 2
Flags: W
LayerCount: 2
Fore
SplineSet
176 -10 m 0,0,1
 31 -10 31 -10 31 129 c 2,2,-1
 31 490 l 1,3,-1
 246 490 l 1,4,-1
 246 169 l 2,5,6
 246 153 246 153 260.5 153 c 128,-1,7
 275 153 275 153 300 163 c 1,8,-1
 300 490 l 1,9,-1
 514 490 l 1,10,-1
 514 2 l 1,11,-1
 309 2 l 1,12,-1
 309 28 l 1,13,-1
 303 28 l 1,14,15
 244 -10 244 -10 176 -10 c 0,0,1
222 529 m 1,16,-1
 92 663 l 1,17,-1
 298 663 l 1,18,-1
 368 529 l 1,19,-1
 222 529 l 1,16,-1
EndSplineSet
EndChar

StartChar: uacute
Encoding: 250 250 187
Width: 551
GlyphClass: 2
Flags: W
LayerCount: 2
Fore
SplineSet
176 -10 m 0,0,1
 31 -10 31 -10 31 129 c 2,2,-1
 31 490 l 1,3,-1
 246 490 l 1,4,-1
 246 169 l 2,5,6
 246 153 246 153 260.5 153 c 128,-1,7
 275 153 275 153 300 163 c 1,8,-1
 300 490 l 1,9,-1
 514 490 l 1,10,-1
 514 2 l 1,11,-1
 309 2 l 1,12,-1
 309 28 l 1,13,-1
 303 28 l 1,14,15
 244 -10 244 -10 176 -10 c 0,0,1
486 663 m 1,16,-1
 344 529 l 1,17,-1
 202 529 l 1,18,-1
 267 663 l 1,19,-1
 486 663 l 1,16,-1
EndSplineSet
EndChar

StartChar: ucircumflex
Encoding: 251 251 188
Width: 551
GlyphClass: 2
Flags: W
LayerCount: 2
Fore
SplineSet
176 -10 m 0,0,1
 31 -10 31 -10 31 129 c 2,2,-1
 31 490 l 1,3,-1
 246 490 l 1,4,-1
 246 169 l 2,5,6
 246 153 246 153 260.5 153 c 128,-1,7
 275 153 275 153 300 163 c 1,8,-1
 300 490 l 1,9,-1
 514 490 l 1,10,-1
 514 2 l 1,11,-1
 309 2 l 1,12,-1
 309 28 l 1,13,-1
 303 28 l 1,14,15
 244 -10 244 -10 176 -10 c 0,0,1
362 657 m 1,16,-1
 442 523 l 1,17,-1
 308 523 l 1,18,-1
 272 577 l 1,19,-1
 236 523 l 1,20,-1
 100 523 l 1,21,-1
 180 657 l 1,22,-1
 362 657 l 1,16,-1
EndSplineSet
EndChar

StartChar: udieresis
Encoding: 252 252 189
Width: 551
GlyphClass: 2
Flags: W
LayerCount: 2
Fore
SplineSet
176 -10 m 0,0,1
 31 -10 31 -10 31 129 c 2,2,-1
 31 490 l 1,3,-1
 246 490 l 1,4,-1
 246 169 l 2,5,6
 246 153 246 153 260.5 153 c 128,-1,7
 275 153 275 153 300 163 c 1,8,-1
 300 490 l 1,9,-1
 514 490 l 1,10,-1
 514 2 l 1,11,-1
 309 2 l 1,12,-1
 309 28 l 1,13,-1
 303 28 l 1,14,15
 244 -10 244 -10 176 -10 c 0,0,1
96 590 m 0,16,17
 96 623 96 623 116.5 639.5 c 128,-1,18
 137 656 137 656 173 656 c 0,19,20
 255 656 255 656 255 590 c 0,21,22
 255 555 255 555 235 538.5 c 128,-1,23
 215 522 215 522 173 522 c 0,24,25
 96 522 96 522 96 590 c 0,16,17
287 590 m 0,26,27
 287 623 287 623 307.5 639.5 c 128,-1,28
 328 656 328 656 364 656 c 0,29,30
 446 656 446 656 445 590 c 0,31,32
 445 555 445 555 425.5 538.5 c 128,-1,33
 406 522 406 522 364 522 c 0,34,35
 287 522 287 522 287 590 c 0,26,27
EndSplineSet
EndChar

StartChar: yacute
Encoding: 253 253 190
Width: 531
GlyphClass: 2
Flags: W
LayerCount: 2
Fore
SplineSet
272 225 m 1,0,1
 319 484 319 484 321 490 c 1,2,-1
 531 490 l 1,3,-1
 389 -8 l 2,4,5
 367 -84 367 -84 323 -112 c 128,-1,6
 279 -140 279 -140 177 -140 c 2,7,-1
 54 -140 l 1,8,-1
 31 6 l 1,9,-1
 113 6 l 2,10,11
 140 6 140 6 139 24 c 0,12,13
 139 35 139 35 134 52 c 2,14,-1
 0 490 l 1,15,-1
 225 490 l 1,16,-1
 268 225 l 1,17,-1
 272 225 l 1,0,1
480 663 m 1,18,-1
 338 529 l 1,19,-1
 196 529 l 1,20,-1
 261 663 l 1,21,-1
 480 663 l 1,18,-1
EndSplineSet
EndChar

StartChar: thorn
Encoding: 254 254 191
Width: 531
GlyphClass: 2
Flags: W
LayerCount: 2
Fore
SplineSet
319 -10 m 0,0,1
 281 -10 281 -10 244 4 c 1,2,-1
 244 -140 l 1,3,-1
 31 -140 l 1,4,-1
 31 656 l 1,5,-1
 237 656 l 1,6,-1
 237 481 l 1,7,8
 278 503 278 503 331 503 c 0,9,10
 442 503 442 503 480.5 446 c 128,-1,11
 519 389 519 389 519 252.5 c 128,-1,12
 519 116 519 116 477 53 c 128,-1,13
 435 -10 435 -10 319 -10 c 0,0,1
301 158 m 128,-1,15
 306 181 306 181 306 239 c 128,-1,16
 306 297 306 297 300 321 c 128,-1,17
 294 345 294 345 273 345 c 0,18,19
 260 345 260 345 242 337 c 1,20,-1
 242 139 l 1,21,22
 260 135 260 135 274 135 c 0,23,14
 296 135 296 135 301 158 c 128,-1,15
EndSplineSet
EndChar

StartChar: ydieresis
Encoding: 255 255 192
Width: 531
GlyphClass: 2
Flags: W
LayerCount: 2
Fore
SplineSet
272 225 m 1,0,1
 319 484 319 484 321 490 c 1,2,-1
 531 490 l 1,3,-1
 389 -8 l 2,4,5
 367 -84 367 -84 323 -112 c 128,-1,6
 279 -140 279 -140 177 -140 c 2,7,-1
 54 -140 l 1,8,-1
 31 6 l 1,9,-1
 113 6 l 2,10,11
 140 6 140 6 139 24 c 0,12,13
 139 35 139 35 134 52 c 2,14,-1
 0 490 l 1,15,-1
 225 490 l 1,16,-1
 268 225 l 1,17,-1
 272 225 l 1,0,1
89 590 m 0,18,19
 89 623 89 623 109.5 639.5 c 128,-1,20
 130 656 130 656 166 656 c 0,21,22
 248 656 248 656 248 590 c 0,23,24
 248 555 248 555 228 538.5 c 128,-1,25
 208 522 208 522 166 522 c 0,26,27
 89 522 89 522 89 590 c 0,18,19
280 590 m 0,28,29
 280 623 280 623 300.5 639.5 c 128,-1,30
 321 656 321 656 356 656 c 0,31,32
 438 656 438 656 438 590 c 0,33,34
 438 555 438 555 418 538.5 c 128,-1,35
 398 522 398 522 356 522 c 0,36,37
 280 522 280 522 280 590 c 0,28,29
EndSplineSet
EndChar

StartChar: hbar
Encoding: 295 295 193
Width: 551
GlyphClass: 2
Flags: W
LayerCount: 2
Fore
SplineSet
375 503 m 0,0,1
 514 503 514 503 514 374 c 2,2,-1
 514 0 l 1,3,-1
 298 0 l 1,4,-1
 298 317 l 2,5,6
 298 333 298 333 281 333.5 c 128,-1,7
 264 334 264 334 244 324 c 1,8,-1
 244 0 l 1,9,-1
 31 0 l 1,10,-1
 31 518 l 1,11,-1
 0 518 l 1,12,-1
 0 622 l 1,13,-1
 31 622 l 1,14,-1
 31 656 l 1,15,-1
 237 656 l 1,16,-1
 237 622 l 1,17,-1
 312 622 l 1,18,-1
 312 518 l 1,19,-1
 237 518 l 1,20,-1
 237 460 l 1,21,22
 299 503 299 503 375 503 c 0,0,1
EndSplineSet
EndChar

StartChar: Itilde
Encoding: 296 296 194
Width: 310
GlyphClass: 2
Flags: W
LayerCount: 2
Fore
SplineSet
263 0 m 1,0,-1
 47 0 l 1,1,-1
 47 636 l 1,2,-1
 263 636 l 1,3,-1
 263 0 l 1,0,-1
335 818 m 1,4,-1
 335 806 l 2,5,6
 335 738 335 738 313 702.5 c 128,-1,7
 291 667 291 667 225 667 c 0,8,9
 187 667 187 667 112 693 c 1,10,-1
 112 660 l 1,11,-1
 -25 660 l 1,12,-1
 -25 674 l 2,13,14
 -25 743 -25 743 -1.5 778 c 128,-1,15
 22 813 22 813 80 813 c 0,16,17
 111 813 111 813 199 786 c 1,18,-1
 199 818 l 1,19,-1
 335 818 l 1,4,-1
EndSplineSet
EndChar

StartChar: itilde
Encoding: 297 297 195
Width: 286
GlyphClass: 2
Flags: W
LayerCount: 2
Fore
SplineSet
250 0 m 1,0,-1
 37 0 l 1,1,-1
 37 480 l 1,2,-1
 250 480 l 1,3,-1
 250 0 l 1,0,-1
324 673 m 1,4,-1
 324 660 l 2,5,6
 324 592 324 592 302 556.5 c 128,-1,7
 280 521 280 521 214 521 c 0,8,9
 176 521 176 521 100 548 c 1,10,-1
 100 515 l 1,11,-1
 -36 515 l 1,12,-1
 -36 528 l 2,13,14
 -36 597 -36 597 -13 632.5 c 128,-1,15
 10 668 10 668 69 668 c 0,16,17
 100 668 100 668 187 641 c 1,18,-1
 187 673 l 1,19,-1
 324 673 l 1,4,-1
EndSplineSet
EndChar

StartChar: dotlessi
Encoding: 305 305 196
Width: 286
GlyphClass: 2
Flags: W
LayerCount: 2
Fore
SplineSet
250 0 m 1,0,-1
 37 0 l 1,1,-1
 37 480 l 1,2,-1
 250 480 l 1,3,-1
 250 0 l 1,0,-1
EndSplineSet
EndChar

StartChar: IJ
Encoding: 306 306 197
Width: 638
GlyphClass: 2
Flags: W
LayerCount: 2
Fore
SplineSet
263 0 m 1,0,-1
 47 0 l 1,1,-1
 47 636 l 1,2,-1
 263 636 l 1,3,-1
 263 0 l 1,0,-1
594 636 m 1,4,-1
 594 133 l 2,5,6
 594 51 594 51 552 20.5 c 128,-1,7
 510 -10 510 -10 395 -10 c 2,8,-1
 321 -10 l 1,9,-1
 309 141 l 1,10,-1
 360 141 l 2,11,12
 371 141 371 141 375 145.5 c 128,-1,13
 379 150 379 150 379 159 c 2,14,-1
 379 636 l 1,15,-1
 594 636 l 1,4,-1
EndSplineSet
EndChar

StartChar: ij
Encoding: 307 307 198
Width: 578
GlyphClass: 2
Flags: W
LayerCount: 2
Fore
SplineSet
531 480 m 1,0,-1
 531 -4 l 2,1,2
 531 -85 531 -85 490 -115 c 128,-1,3
 449 -145 449 -145 335 -145 c 2,4,-1
 267 -145 l 1,5,-1
 251 0 l 1,6,-1
 38 0 l 1,7,-1
 38 480 l 1,8,-1
 251 480 l 1,9,-1
 251 7 l 1,10,-1
 301 7 l 2,11,12
 313 7 313 7 316 10 c 128,-1,13
 319 13 319 13 319 23 c 2,14,-1
 319 480 l 1,15,-1
 531 480 l 1,0,-1
34 584 m 0,16,17
 34 671 34 671 143.5 671 c 128,-1,18
 253 671 253 671 253 584 c 0,19,20
 253 539 253 539 226 519.5 c 128,-1,21
 199 500 199 500 143.5 500 c 128,-1,22
 88 500 88 500 61 519 c 128,-1,23
 34 538 34 538 34 584 c 0,16,17
314 584 m 0,24,25
 314 671 314 671 424 671 c 128,-1,26
 534 671 534 671 534 584 c 0,27,28
 534 539 534 539 506.5 519.5 c 128,-1,29
 479 500 479 500 424 500 c 128,-1,30
 369 500 369 500 341.5 519 c 128,-1,31
 314 538 314 538 314 584 c 0,24,25
EndSplineSet
EndChar

StartChar: Jcircumflex
Encoding: 308 308 199
Width: 333
GlyphClass: 2
Flags: W
LayerCount: 2
Fore
SplineSet
289 636 m 1,0,-1
 289 133 l 2,1,2
 289 51 289 51 247 20.5 c 128,-1,3
 205 -10 205 -10 90 -10 c 2,4,-1
 15 -10 l 1,5,-1
 4 141 l 1,6,-1
 55 141 l 2,7,8
 66 141 66 141 70 145.5 c 128,-1,9
 74 150 74 150 74 159 c 2,10,-1
 74 636 l 1,11,-1
 289 636 l 1,0,-1
268 803 m 1,12,-1
 348 669 l 1,13,-1
 214 669 l 1,14,-1
 178 722 l 1,15,-1
 141 669 l 1,16,-1
 6 669 l 1,17,-1
 86 803 l 1,18,-1
 268 803 l 1,12,-1
EndSplineSet
EndChar

StartChar: jcircumflex
Encoding: 309 309 200
Width: 291
GlyphClass: 2
Flags: W
LayerCount: 2
Fore
SplineSet
256 480 m 1,0,-1
 256 -4 l 2,1,2
 256 -85 256 -85 214.5 -115 c 128,-1,3
 173 -145 173 -145 59 -145 c 2,4,-1
 -8 -145 l 1,5,-1
 -26 7 l 1,6,-1
 26 7 l 2,7,8
 38 7 38 7 41 10 c 128,-1,9
 44 13 44 13 44 23 c 2,10,-1
 44 480 l 1,11,-1
 256 480 l 1,0,-1
238 657 m 1,12,-1
 317 523 l 1,13,-1
 183 523 l 1,14,-1
 147 577 l 1,15,-1
 111 523 l 1,16,-1
 -25 523 l 1,17,-1
 55 657 l 1,18,-1
 238 657 l 1,12,-1
EndSplineSet
EndChar

StartChar: kcommaaccent
Encoding: 311 311 201
Width: 526
GlyphClass: 2
Flags: W
LayerCount: 2
Fore
SplineSet
535 0 m 1,0,-1
 304 0 l 1,1,-1
 245 161 l 1,2,-1
 241 161 l 1,3,-1
 241 0 l 1,4,-1
 31 0 l 1,5,-1
 31 656 l 1,6,-1
 241 656 l 1,7,-1
 241 318 l 1,8,-1
 245 318 l 1,9,-1
 316 490 l 1,10,-1
 539 490 l 1,11,-1
 424 236 l 1,12,13
 443 194 443 194 481 114.5 c 128,-1,14
 519 35 519 35 535 0 c 1,0,-1
267 -10 m 0,15,16
 306 -10 306 -10 328.5 -27.5 c 128,-1,17
 351 -45 351 -45 351 -76 c 0,18,19
 351 -133 351 -133 268 -168 c 1,20,-1
 191 -159 l 1,21,-1
 234 -116 l 1,22,23
 183 -107 183 -107 183 -67 c 0,24,25
 183 -10 183 -10 267 -10 c 0,15,16
EndSplineSet
EndChar

StartChar: kgreenlandic
Encoding: 312 312 202
Width: 531
GlyphClass: 2
Flags: W
LayerCount: 2
Fore
SplineSet
536 0 m 1,0,-1
 313 0 l 1,1,-1
 250 174 l 1,2,-1
 246 174 l 1,3,-1
 246 0 l 1,4,-1
 31 0 l 1,5,-1
 31 490 l 1,6,-1
 246 490 l 1,7,-1
 246 295 l 1,8,-1
 250 295 l 1,9,10
 296 409 296 409 311 426 c 128,-1,11
 326 443 326 443 342 461 c 0,12,13
 385 503 385 503 481 503 c 2,14,-1
 512 503 l 1,15,-1
 505 307 l 1,16,17
 480 307 480 307 466.5 295.5 c 128,-1,18
 453 284 453 284 434 250 c 1,19,-1
 536 0 l 1,0,-1
EndSplineSet
EndChar

StartChar: Ldotaccent
Encoding: 319 319 203
Width: 497
GlyphClass: 2
Flags: W
LayerCount: 2
Fore
SplineSet
423 0 m 1,0,-1
 41 0 l 1,1,-1
 41 636 l 1,2,-1
 260 636 l 1,3,-1
 260 165 l 1,4,-1
 437 165 l 1,5,-1
 423 0 l 1,0,-1
289 341 m 0,6,7
 289 428 289 428 398.5 428 c 128,-1,8
 508 428 508 428 508 341 c 0,9,10
 508 296 508 296 481 276.5 c 128,-1,11
 454 257 454 257 398.5 257 c 128,-1,12
 343 257 343 257 316 276 c 128,-1,13
 289 295 289 295 289 341 c 0,6,7
EndSplineSet
EndChar

StartChar: ldot
Encoding: 320 320 204
Width: 527
GlyphClass: 2
Flags: W
LayerCount: 2
Fore
SplineSet
33 127 m 2,0,-1
 33 656 l 1,1,-1
 243 656 l 1,2,-1
 243 174 l 2,3,4
 243 146 243 146 281 146 c 1,5,-1
 265 -10 l 1,6,-1
 181 -10 l 2,7,8
 33 -10 33 -10 33 127 c 2,0,-1
276 312 m 0,9,10
 276 405 276 405 396 406 c 0,11,12
 457 406 457 406 486 383.5 c 128,-1,13
 515 361 515 361 515 311 c 128,-1,14
 515 261 515 261 487 240 c 128,-1,15
 459 219 459 219 397 219 c 128,-1,16
 335 219 335 219 305.5 240.5 c 128,-1,17
 276 262 276 262 276 312 c 0,9,10
EndSplineSet
EndChar

StartChar: Lslash
Encoding: 321 321 205
Width: 431
GlyphClass: 2
Flags: W
LayerCount: 2
Fore
SplineSet
431 0 m 1,0,-1
 49 0 l 1,1,-1
 49 159 l 1,2,-1
 8 134 l 1,3,-1
 8 295 l 1,4,-1
 49 319 l 1,5,-1
 49 636 l 1,6,-1
 268 636 l 1,7,-1
 268 452 l 1,8,-1
 317 481 l 1,9,-1
 317 322 l 1,10,-1
 268 292 l 1,11,-1
 268 165 l 1,12,-1
 445 165 l 1,13,-1
 431 0 l 1,0,-1
EndSplineSet
EndChar

StartChar: lslash
Encoding: 322 322 206
Width: 292
GlyphClass: 2
Flags: W
LayerCount: 2
Fore
SplineSet
33 127 m 2,0,-1
 33 174 l 1,1,-1
 0 155 l 1,2,-1
 0 315 l 1,3,-1
 33 335 l 1,4,-1
 33 656 l 1,5,-1
 243 656 l 1,6,-1
 243 462 l 1,7,-1
 280 484 l 1,8,-1
 280 325 l 1,9,-1
 243 302 l 1,10,-1
 243 174 l 2,11,12
 243 146 243 146 281 146 c 1,13,-1
 265 -10 l 1,14,-1
 181 -10 l 2,15,16
 33 -10 33 -10 33 127 c 2,0,-1
EndSplineSet
EndChar

StartChar: Nacute
Encoding: 323 323 207
Width: 621
GlyphClass: 2
Flags: W
LayerCount: 2
Fore
SplineSet
581 0 m 1,0,-1
 372 0 l 1,1,-1
 243 251 l 1,2,-1
 236 251 l 1,3,-1
 236 0 l 1,4,-1
 41 0 l 1,5,-1
 41 636 l 1,6,-1
 257 636 l 1,7,-1
 378 377 l 1,8,-1
 384 377 l 1,9,-1
 384 636 l 1,10,-1
 581 636 l 1,11,-1
 581 0 l 1,0,-1
504 808 m 1,12,-1
 361 675 l 1,13,-1
 219 675 l 1,14,-1
 285 808 l 1,15,-1
 504 808 l 1,12,-1
EndSplineSet
EndChar

StartChar: nacute
Encoding: 324 324 208
Width: 544
GlyphClass: 2
Flags: W
LayerCount: 2
Fore
SplineSet
371 503 m 0,0,1
 514 503 514 503 514 364 c 2,2,-1
 514 0 l 1,3,-1
 298 0 l 1,4,-1
 298 317 l 2,5,6
 298 333 298 333 281 333.5 c 128,-1,7
 264 334 264 334 244 324 c 1,8,-1
 244 0 l 1,9,-1
 31 0 l 1,10,-1
 31 490 l 1,11,-1
 224 490 l 1,12,-1
 230 459 l 1,13,14
 295 503 295 503 371 503 c 0,0,1
466 663 m 1,15,-1
 324 529 l 1,16,-1
 181 529 l 1,17,-1
 247 663 l 1,18,-1
 466 663 l 1,15,-1
EndSplineSet
EndChar

StartChar: OE
Encoding: 338 338 209
Width: 813
GlyphClass: 2
Flags: W
LayerCount: 2
Fore
SplineSet
787 0 m 1,0,-1
 409 0 l 1,1,2
 360 -10 360 -10 309 -10 c 0,3,4
 156 -10 156 -10 88 71 c 128,-1,5
 20 152 20 152 20 322.5 c 128,-1,6
 20 493 20 493 88.5 569.5 c 128,-1,7
 157 646 157 646 313 646 c 0,8,9
 366 646 366 646 416 636 c 1,10,-1
 802 636 l 1,11,-1
 787 467 l 1,12,-1
 601 467 l 1,13,-1
 601 390 l 1,14,-1
 764 390 l 1,15,-1
 764 243 l 1,16,-1
 601 243 l 1,17,-1
 601 156 l 1,18,-1
 802 156 l 1,19,-1
 787 0 l 1,0,-1
364 452.5 m 128,-1,21
 349 470 349 470 308.5 470 c 128,-1,22
 268 470 268 470 256 444.5 c 128,-1,23
 244 419 244 419 244 335 c 2,24,-1
 244 290 l 2,25,26
 244 204 244 204 257 178.5 c 128,-1,27
 270 153 270 153 311 153 c 128,-1,28
 352 153 352 153 365.5 168 c 128,-1,29
 379 183 379 183 382 230 c 2,30,-1
 382 384 l 2,31,20
 379 435 379 435 364 452.5 c 128,-1,21
EndSplineSet
EndChar

StartChar: oe
Encoding: 339 339 210
Width: 793
GlyphClass: 2
Flags: W
LayerCount: 2
Fore
SplineSet
264 503 m 0,0,1
 352 503 352 503 407 474 c 1,2,3
 464 503 464 503 548 503 c 0,4,5
 671 503 671 503 723.5 451.5 c 128,-1,6
 776 400 776 400 776 305 c 0,7,8
 776 273 776 273 768 190 c 1,9,-1
 511 190 l 1,10,11
 515 134 515 134 578 134 c 0,12,13
 627 134 627 134 734 157 c 1,14,-1
 752 18 l 1,15,16
 643 -11 643 -11 556.5 -10.5 c 128,-1,17
 470 -10 470 -10 412 20 c 1,18,19
 357 -11 357 -11 264 -10 c 0,20,21
 134 -10 134 -10 74.5 51.5 c 128,-1,22
 15 113 15 113 15 247.5 c 128,-1,23
 15 382 15 382 75 442.5 c 128,-1,24
 135 503 135 503 264 503 c 0,0,1
262.5 352 m 128,-1,26
 241 352 241 352 235 334 c 128,-1,27
 229 316 229 316 229 258 c 2,28,-1
 229 233 l 2,29,30
 229 167 229 167 235 148.5 c 128,-1,31
 241 130 241 130 262.5 130 c 128,-1,32
 284 130 284 130 289.5 149 c 128,-1,33
 295 168 295 168 295 228 c 2,34,-1
 295 257 l 2,35,36
 295 316 295 316 289.5 334 c 128,-1,25
 284 352 284 352 262.5 352 c 128,-1,26
545 338 m 0,37,38
 507 338 507 338 507 284 c 1,39,-1
 581 284 l 1,40,-1
 581 299 l 2,41,42
 581 338 581 338 545 338 c 0,37,38
EndSplineSet
EndChar

StartChar: Racute
Encoding: 340 340 211
Width: 576
GlyphClass: 2
Flags: W
LayerCount: 2
Fore
SplineSet
544 431 m 0,0,1
 544 370 544 370 524 333.5 c 128,-1,2
 504 297 504 297 462 269 c 1,3,-1
 557 0 l 1,4,-1
 331 0 l 1,5,-1
 267 219 l 1,6,-1
 251 219 l 1,7,-1
 251 0 l 1,8,-1
 41 0 l 1,9,-1
 41 636 l 1,10,-1
 312 636 l 2,11,12
 431 636 431 636 487.5 586 c 128,-1,13
 544 536 544 536 544 431 c 0,0,1
305.5 358 m 128,-1,15
 315 372 315 372 315 406.5 c 128,-1,16
 315 441 315 441 305 454.5 c 128,-1,17
 295 468 295 468 273 468 c 2,18,-1
 247 468 l 1,19,-1
 247 344 l 1,20,-1
 272 344 l 2,21,14
 296 344 296 344 305.5 358 c 128,-1,15
452 808 m 1,22,-1
 309 675 l 1,23,-1
 167 675 l 1,24,-1
 232 808 l 1,25,-1
 452 808 l 1,22,-1
EndSplineSet
EndChar

StartChar: Rcommaaccent
Encoding: 342 342 212
Width: 576
GlyphClass: 2
Flags: W
LayerCount: 2
Fore
SplineSet
544 431 m 0,0,1
 544 370 544 370 524 333.5 c 128,-1,2
 504 297 504 297 462 269 c 1,3,-1
 557 0 l 1,4,-1
 331 0 l 1,5,-1
 267 219 l 1,6,-1
 251 219 l 1,7,-1
 251 0 l 1,8,-1
 41 0 l 1,9,-1
 41 636 l 1,10,-1
 312 636 l 2,11,12
 431 636 431 636 487.5 586 c 128,-1,13
 544 536 544 536 544 431 c 0,0,1
305.5 358 m 128,-1,15
 315 372 315 372 315 406.5 c 128,-1,16
 315 441 315 441 305 454.5 c 128,-1,17
 295 468 295 468 273 468 c 2,18,-1
 247 468 l 1,19,-1
 247 344 l 1,20,-1
 272 344 l 2,21,14
 296 344 296 344 305.5 358 c 128,-1,15
298 -10 m 0,22,23
 337 -10 337 -10 359.5 -27.5 c 128,-1,24
 382 -45 382 -45 382 -76 c 0,25,26
 382 -133 382 -133 299 -168 c 1,27,-1
 222 -159 l 1,28,-1
 265 -116 l 1,29,30
 214 -107 214 -107 214 -67 c 0,31,32
 214 -10 214 -10 298 -10 c 0,22,23
EndSplineSet
EndChar

StartChar: rcommaaccent
Encoding: 343 343 213
Width: 387
GlyphClass: 2
Flags: W
LayerCount: 2
Fore
SplineSet
244 274 m 2,0,-1
 244 0 l 1,1,-1
 33 0 l 1,2,-1
 33 490 l 1,3,-1
 215 490 l 1,4,-1
 221 458 l 1,5,-1
 225 458 l 1,6,7
 250 481 250 481 281.5 489.5 c 128,-1,8
 313 498 313 498 375 498 c 1,9,-1
 369 328 l 1,10,-1
 299 328 l 2,11,12
 268 328 268 328 256 316.5 c 128,-1,13
 244 305 244 305 244 274 c 2,0,-1
173 -10 m 0,14,15
 212 -10 212 -10 234.5 -27.5 c 128,-1,16
 257 -45 257 -45 257 -76 c 0,17,18
 257 -133 257 -133 174 -168 c 1,19,-1
 97 -159 l 1,20,-1
 140 -116 l 1,21,22
 89 -107 89 -107 89 -67 c 0,23,24
 89 -10 89 -10 173 -10 c 0,14,15
EndSplineSet
EndChar

StartChar: Rcaron
Encoding: 344 344 214
Width: 576
GlyphClass: 2
Flags: W
LayerCount: 2
Fore
SplineSet
544 431 m 0,0,1
 544 370 544 370 524 333.5 c 128,-1,2
 504 297 504 297 462 269 c 1,3,-1
 557 0 l 1,4,-1
 331 0 l 1,5,-1
 267 219 l 1,6,-1
 251 219 l 1,7,-1
 251 0 l 1,8,-1
 41 0 l 1,9,-1
 41 636 l 1,10,-1
 312 636 l 2,11,12
 431 636 431 636 487.5 586 c 128,-1,13
 544 536 544 536 544 431 c 0,0,1
305.5 358 m 128,-1,15
 315 372 315 372 315 406.5 c 128,-1,16
 315 441 315 441 305 454.5 c 128,-1,17
 295 468 295 468 273 468 c 2,18,-1
 247 468 l 1,19,-1
 247 344 l 1,20,-1
 272 344 l 2,21,14
 296 344 296 344 305.5 358 c 128,-1,15
164 673 m 1,22,-1
 84 807 l 1,23,-1
 218 807 l 1,24,-1
 254 754 l 1,25,-1
 291 807 l 1,26,-1
 426 807 l 1,27,-1
 346 673 l 1,28,-1
 164 673 l 1,22,-1
EndSplineSet
EndChar

StartChar: rcaron
Encoding: 345 345 215
Width: 387
GlyphClass: 2
Flags: W
LayerCount: 2
Fore
SplineSet
244 274 m 2,0,-1
 244 0 l 1,1,-1
 33 0 l 1,2,-1
 33 490 l 1,3,-1
 215 490 l 1,4,-1
 221 458 l 1,5,-1
 225 458 l 1,6,7
 250 481 250 481 281.5 489.5 c 128,-1,8
 313 498 313 498 375 498 c 1,9,-1
 369 328 l 1,10,-1
 299 328 l 2,11,12
 268 328 268 328 256 316.5 c 128,-1,13
 244 305 244 305 244 274 c 2,0,-1
102 527 m 1,14,-1
 23 662 l 1,15,-1
 157 662 l 1,16,-1
 193 608 l 1,17,-1
 229 662 l 1,18,-1
 365 662 l 1,19,-1
 285 527 l 1,20,-1
 102 527 l 1,14,-1
EndSplineSet
EndChar

StartChar: Scaron
Encoding: 352 352 216
Width: 498
GlyphClass: 2
Flags: W
LayerCount: 2
Fore
SplineSet
70.5 590 m 128,-1,1
 132 646 132 646 241 646 c 128,-1,2
 350 646 350 646 466 626 c 1,3,-1
 442 445 l 1,4,5
 314 471 314 471 274 471 c 128,-1,6
 234 471 234 471 234 446 c 0,7,8
 234 437 234 437 240.5 433.5 c 128,-1,9
 247 430 247 430 250 428 c 128,-1,10
 253 426 253 426 261.5 423 c 128,-1,11
 270 420 270 420 276 417.5 c 128,-1,12
 282 415 282 415 313 402 c 128,-1,13
 344 389 344 389 360 381.5 c 128,-1,14
 376 374 376 374 403 356 c 0,15,16
 483 304 483 304 483 202.5 c 128,-1,17
 483 101 483 101 422.5 45.5 c 128,-1,18
 362 -10 362 -10 249 -10 c 128,-1,19
 136 -10 136 -10 28 17 c 1,20,-1
 42 190 l 1,21,22
 179 155 179 155 227 156 c 0,23,24
 259 156 259 156 259 178 c 0,25,26
 259 188 259 188 251.5 194.5 c 128,-1,27
 244 201 244 201 229 208 c 128,-1,28
 214 215 214 215 185.5 227 c 128,-1,29
 157 239 157 239 137.5 247.5 c 128,-1,30
 118 256 118 256 92 274 c 0,31,32
 9 330 9 330 9 432 c 128,-1,0
 9 534 9 534 70.5 590 c 128,-1,1
154 665 m 1,33,-1
 78 793 l 1,34,-1
 205 793 l 1,35,-1
 240 741 l 1,36,-1
 274 793 l 1,37,-1
 402 793 l 1,38,-1
 327 665 l 1,39,-1
 154 665 l 1,33,-1
EndSplineSet
EndChar

StartChar: scaron
Encoding: 353 353 217
Width: 412
GlyphClass: 2
Flags: W
LayerCount: 2
Fore
SplineSet
407 153 m 0,0,1
 407 -10 407 -10 217 -10 c 0,2,3
 119 -10 119 -10 27 11 c 1,4,-1
 40 162 l 1,5,6
 168 131 168 131 210 131 c 0,7,8
 224 131 224 131 224 140.5 c 128,-1,9
 224 150 224 150 208 156 c 0,10,11
 103 192 103 192 54.5 231.5 c 128,-1,12
 6 271 6 271 6 346 c 128,-1,13
 6 421 6 421 59 462 c 128,-1,14
 112 503 112 503 201.5 503 c 128,-1,15
 291 503 291 503 398 482 c 1,16,-1
 377 328 l 1,17,18
 242 355 242 355 213 354 c 0,19,20
 200 354 200 354 200 344 c 0,21,22
 200 336 200 336 217 330 c 0,23,24
 302 302 302 302 340 275 c 128,-1,25
 378 248 378 248 392.5 219.5 c 128,-1,26
 407 191 407 191 407 153 c 0,0,1
113 527 m 1,27,-1
 33 662 l 1,28,-1
 167 662 l 1,29,-1
 203 608 l 1,30,-1
 240 662 l 1,31,-1
 375 662 l 1,32,-1
 295 527 l 1,33,-1
 113 527 l 1,27,-1
EndSplineSet
EndChar

StartChar: Ydieresis
Encoding: 376 376 218
Width: 548
GlyphClass: 2
Flags: W
LayerCount: 2
Fore
SplineSet
549 636 m 1,0,-1
 381 202 l 1,1,-1
 381 0 l 1,2,-1
 163 0 l 1,3,-1
 163 203 l 1,4,-1
 0 636 l 1,5,-1
 230 636 l 1,6,-1
 275 402 l 1,7,-1
 282 402 l 1,8,-1
 325 636 l 1,9,-1
 549 636 l 1,0,-1
111 734 m 128,-1,11
 111 798 111 798 186 798 c 128,-1,12
 261 798 261 798 261 734 c 128,-1,13
 261 670 261 670 186 670 c 128,-1,10
 111 670 111 670 111 734 c 128,-1,11
292 734 m 128,-1,15
 292 798 292 798 367 798 c 128,-1,16
 442 798 442 798 442 734 c 128,-1,17
 442 670 442 670 367 670 c 128,-1,14
 292 670 292 670 292 734 c 128,-1,15
EndSplineSet
EndChar

StartChar: Zcaron
Encoding: 381 381 219
Width: 545
GlyphClass: 2
Flags: W
LayerCount: 2
Fore
SplineSet
530 0 m 1,0,-1
 49 0 l 1,1,-1
 42 110 l 1,2,-1
 239 461 l 1,3,-1
 27 461 l 1,4,-1
 15 636 l 1,5,-1
 514 636 l 1,6,-1
 521 528 l 1,7,-1
 337 163 l 1,8,-1
 530 163 l 1,9,-1
 530 0 l 1,0,-1
193 665 m 1,10,-1
 117 793 l 1,11,-1
 244 793 l 1,12,-1
 279 741 l 1,13,-1
 313 793 l 1,14,-1
 441 793 l 1,15,-1
 366 665 l 1,16,-1
 193 665 l 1,10,-1
EndSplineSet
EndChar

StartChar: zcaron
Encoding: 382 382 220
Width: 456
GlyphClass: 2
Flags: W
LayerCount: 2
Fore
SplineSet
444 0 m 1,0,-1
 15 0 l 1,1,-1
 10 116 l 1,2,-1
 171 330 l 1,3,-1
 5 330 l 1,4,-1
 5 490 l 1,5,-1
 434 490 l 1,6,-1
 440 383 l 1,7,-1
 284 153 l 1,8,-1
 444 153 l 1,9,-1
 444 0 l 1,0,-1
131 527 m 1,10,-1
 51 662 l 1,11,-1
 185 662 l 1,12,-1
 221 608 l 1,13,-1
 258 662 l 1,14,-1
 393 662 l 1,15,-1
 313 527 l 1,16,-1
 131 527 l 1,10,-1
EndSplineSet
EndChar

StartChar: florin
Encoding: 402 402 221
Width: 432
GlyphClass: 2
Flags: W
LayerCount: 2
Fore
SplineSet
-1 18 m 1,0,1
 42 11 42 11 53.5 11 c 128,-1,2
 65 11 65 11 66 19 c 2,3,-1
 93 322 l 1,4,-1
 29 322 l 1,5,-1
 41 435 l 1,6,-1
 102 435 l 1,7,-1
 109 494 l 2,8,9
 118 576 118 576 159.5 616 c 128,-1,10
 201 656 201 656 289 656 c 0,11,12
 337 656 337 656 414 645 c 1,13,-1
 391 472 l 1,14,-1
 331 481 l 2,15,16
 324 481 324 481 322 470 c 2,17,-1
 318 435 l 1,18,-1
 389 435 l 1,19,-1
 377 322 l 1,20,-1
 308 322 l 1,21,-1
 280 9 l 2,22,23
 272 -73 272 -73 228.5 -112 c 128,-1,24
 185 -151 185 -151 98 -151 c 0,25,26
 55 -151 55 -151 -10 -139 c 1,27,-1
 -1 18 l 1,0,1
EndSplineSet
EndChar

StartChar: circumflex
Encoding: 710 710 222
Width: 512
GlyphClass: 2
Flags: W
LayerCount: 2
Fore
SplineSet
347 657 m 1,0,-1
 427 523 l 1,1,-1
 293 523 l 1,2,-1
 257 577 l 1,3,-1
 220 523 l 1,4,-1
 85 523 l 1,5,-1
 165 657 l 1,6,-1
 347 657 l 1,0,-1
EndSplineSet
EndChar

StartChar: caron
Encoding: 711 711 223
Width: 512
GlyphClass: 2
Flags: W
LayerCount: 2
Fore
SplineSet
165 527 m 1,0,-1
 85 662 l 1,1,-1
 219 662 l 1,2,-1
 255 608 l 1,3,-1
 292 662 l 1,4,-1
 427 662 l 1,5,-1
 347 527 l 1,6,-1
 165 527 l 1,0,-1
EndSplineSet
EndChar

StartChar: breve
Encoding: 728 728 224
Width: 512
GlyphClass: 2
Flags: W
LayerCount: 2
Fore
SplineSet
258 629 m 0,0,1
 282 629 282 629 282 676 c 1,2,-1
 420 676 l 1,3,4
 416 510 416 510 254 510 c 128,-1,5
 92 510 92 510 92 676 c 1,6,-1
 232 676 l 1,7,8
 232 629 232 629 258 629 c 0,0,1
EndSplineSet
EndChar

StartChar: dotaccent
Encoding: 729 729 225
Width: 512
GlyphClass: 2
Flags: W
LayerCount: 2
Fore
SplineSet
158 584 m 0,0,1
 158 671 158 671 267.5 671 c 128,-1,2
 377 671 377 671 377 584 c 0,3,4
 377 539 377 539 350 519.5 c 128,-1,5
 323 500 323 500 267.5 500 c 128,-1,6
 212 500 212 500 185 519 c 128,-1,7
 158 538 158 538 158 584 c 0,0,1
EndSplineSet
EndChar

StartChar: ring
Encoding: 730 730 226
Width: 512
GlyphClass: 2
Flags: W
LayerCount: 2
Fore
SplineSet
259.5 629 m 128,-1,1
 239 629 239 629 239 601 c 128,-1,2
 239 573 239 573 259.5 573 c 128,-1,3
 280 573 280 573 280 601 c 128,-1,0
 280 629 280 629 259.5 629 c 128,-1,1
155 598 m 0,4,5
 155 684 155 684 260 684 c 128,-1,6
 365 684 365 684 365 603 c 0,7,8
 365 517 365 517 259 517 c 0,9,10
 208 517 208 517 181.5 538.5 c 128,-1,11
 155 560 155 560 155 598 c 0,4,5
EndSplineSet
EndChar

StartChar: ogonek
Encoding: 731 731 227
Width: 583
GlyphClass: 2
Flags: W
LayerCount: 2
Fore
SplineSet
179 -98 m 0,0,1
 179 -48 179 -48 247 0 c 1,2,-1
 358 0 l 1,3,4
 303 -57 303 -57 303 -79 c 0,5,6
 303 -84 303 -84 313 -84 c 128,-1,7
 323 -84 323 -84 355 -65 c 1,8,-1
 386 -136 l 1,9,10
 335 -172 335 -172 272 -172 c 0,11,12
 179 -172 179 -172 179 -98 c 0,0,1
EndSplineSet
EndChar

StartChar: tilde
Encoding: 732 732 228
Width: 512
GlyphClass: 2
Flags: W
LayerCount: 2
Fore
SplineSet
443 673 m 1,0,-1
 443 660 l 2,1,2
 443 592 443 592 421 556.5 c 128,-1,3
 399 521 399 521 334 521 c 0,4,5
 296 521 296 521 220 548 c 1,6,-1
 220 515 l 1,7,-1
 84 515 l 1,8,-1
 84 528 l 2,9,10
 84 597 84 597 107 632.5 c 128,-1,11
 130 668 130 668 188 668 c 0,12,13
 219 668 219 668 307 641 c 1,14,-1
 307 673 l 1,15,-1
 443 673 l 1,0,-1
EndSplineSet
EndChar

StartChar: hungarumlaut
Encoding: 733 733 229
Width: 512
GlyphClass: 2
Flags: W
LayerCount: 2
Fore
SplineSet
310 672 m 1,0,-1
 177 532 l 1,1,-1
 63 532 l 1,2,-1
 145 672 l 1,3,-1
 310 672 l 1,0,-1
513 672 m 1,4,-1
 364 532 l 1,5,-1
 249 532 l 1,6,-1
 338 672 l 1,7,-1
 513 672 l 1,4,-1
EndSplineSet
EndChar

StartChar: dotaccentcmb
Encoding: 775 775 230
Width: 512
GlyphClass: 2
Flags: W
LayerCount: 2
Fore
SplineSet
145 584 m 0,0,1
 145 671 145 671 255 671 c 128,-1,2
 365 671 365 671 365 584 c 0,3,4
 365 539 365 539 337.5 519.5 c 128,-1,5
 310 500 310 500 255 500 c 128,-1,6
 200 500 200 500 172.5 519 c 128,-1,7
 145 538 145 538 145 584 c 0,0,1
EndSplineSet
EndChar

StartChar: Delta
Encoding: 916 916 231
AltUni2: 002206.ffffffff.0 002206.ffffffff.0
Width: 576
GlyphClass: 2
Flags: W
LayerCount: 2
Fore
SplineSet
0 0 m 1,0,-1
 132 636 l 1,1,-1
 444 636 l 1,2,-1
 577 0 l 1,3,-1
 0 0 l 1,0,-1
240 184 m 1,4,-1
 333 184 l 1,5,-1
 287 437 l 1,6,-1
 282 437 l 1,7,-1
 240 184 l 1,4,-1
EndSplineSet
EndChar

StartChar: Omega
Encoding: 937 937 232
AltUni2: 002126.ffffffff.0 002126.ffffffff.0
Width: 646
GlyphClass: 2
Flags: W
LayerCount: 2
Fore
SplineSet
323 646 m 0,0,1
 611 646 611 646 610 356 c 0,2,3
 610 286 610 286 591 238.5 c 128,-1,4
 572 191 572 191 530 153 c 1,5,-1
 530 148 l 1,6,-1
 613 148 l 1,7,-1
 613 0 l 1,8,-1
 333 0 l 1,9,-1
 333 138 l 1,10,11
 390 194 390 194 390 329 c 0,12,13
 390 411 390 411 377 440.5 c 128,-1,14
 364 470 364 470 319.5 470 c 128,-1,15
 275 470 275 470 263 441 c 128,-1,16
 251 412 251 412 251 330 c 0,17,18
 251 197 251 197 311 138 c 1,19,-1
 311 0 l 1,20,-1
 35 0 l 1,21,-1
 35 148 l 1,22,-1
 112 148 l 1,23,-1
 112 156 l 1,24,25
 33 229 33 229 33 375 c 0,26,27
 33 646 33 646 323 646 c 0,0,1
EndSplineSet
EndChar

StartChar: pi
Encoding: 960 960 233
Width: 570
GlyphClass: 2
Flags: W
LayerCount: 2
Fore
SplineSet
527 0 m 1,0,-1
 311 0 l 1,1,-1
 311 335 l 1,2,-1
 257 335 l 1,3,-1
 257 0 l 1,4,-1
 44 0 l 1,5,-1
 44 335 l 1,6,-1
 0 335 l 1,7,-1
 0 490 l 1,8,-1
 570 490 l 1,9,-1
 570 335 l 1,10,-1
 527 335 l 1,11,-1
 527 0 l 1,0,-1
EndSplineSet
EndChar

StartChar: endash
Encoding: 8211 8211 234
Width: 416
GlyphClass: 2
Flags: W
LayerCount: 2
Fore
SplineSet
33 171 m 1,0,-1
 33 337 l 1,1,-1
 384 337 l 1,2,-1
 384 171 l 1,3,-1
 33 171 l 1,0,-1
EndSplineSet
EndChar

StartChar: emdash
Encoding: 8212 8212 235
Width: 614
GlyphClass: 2
Flags: W
LayerCount: 2
Fore
SplineSet
33 171 m 1,0,-1
 33 337 l 1,1,-1
 582 337 l 1,2,-1
 582 171 l 1,3,-1
 33 171 l 1,0,-1
EndSplineSet
EndChar

StartChar: quoteleft
Encoding: 8216 8216 236
Width: 276
GlyphClass: 2
Flags: W
LayerCount: 2
Fore
SplineSet
206.5 421 m 128,-1,1
 181 401 181 401 126.5 401 c 128,-1,2
 72 401 72 401 48.5 425 c 128,-1,3
 25 449 25 449 25 502.5 c 128,-1,4
 25 556 25 556 58 595.5 c 128,-1,5
 91 635 91 635 151 671 c 1,6,-1
 240 657 l 1,7,-1
 169 562 l 1,8,9
 203 555 203 555 217.5 538.5 c 128,-1,10
 232 522 232 522 232 481.5 c 128,-1,0
 232 441 232 441 206.5 421 c 128,-1,1
EndSplineSet
EndChar

StartChar: quoteright
Encoding: 8217 8217 237
Width: 276
GlyphClass: 2
Flags: W
LayerCount: 2
Fore
SplineSet
69.5 651 m 128,-1,1
 95 671 95 671 150 671 c 128,-1,2
 205 671 205 671 228.5 648 c 128,-1,3
 252 625 252 625 252 570.5 c 128,-1,4
 252 516 252 516 218.5 476.5 c 128,-1,5
 185 437 185 437 126 401 c 1,6,-1
 37 415 l 1,7,-1
 108 510 l 1,8,9
 74 517 74 517 59 533.5 c 128,-1,10
 44 550 44 550 44 590.5 c 128,-1,0
 44 631 44 631 69.5 651 c 128,-1,1
EndSplineSet
EndChar

StartChar: quotesinglbase
Encoding: 8218 8218 238
Width: 276
GlyphClass: 2
Flags: W
LayerCount: 2
Fore
SplineSet
57.5 132 m 128,-1,1
 83 152 83 152 138 152 c 128,-1,2
 193 152 193 152 216.5 128 c 128,-1,3
 240 104 240 104 240 50.5 c 128,-1,4
 240 -3 240 -3 206.5 -42.5 c 128,-1,5
 173 -82 173 -82 114 -118 c 1,6,-1
 25 -104 l 1,7,-1
 95 -9 l 1,8,9
 61 -2 61 -2 46.5 14.5 c 128,-1,10
 32 31 32 31 32 71.5 c 128,-1,0
 32 112 32 112 57.5 132 c 128,-1,1
EndSplineSet
EndChar

StartChar: quotedblleft
Encoding: 8220 8220 239
Width: 499
GlyphClass: 2
Flags: W
LayerCount: 2
Fore
SplineSet
430 421 m 128,-1,1
 404 401 404 401 349.5 401 c 128,-1,2
 295 401 295 401 271.5 425 c 128,-1,3
 248 449 248 449 248 502.5 c 128,-1,4
 248 556 248 556 281 595.5 c 128,-1,5
 314 635 314 635 374 671 c 1,6,-1
 463 657 l 1,7,-1
 392 562 l 1,8,9
 426 555 426 555 441 538.5 c 128,-1,10
 456 522 456 522 456 481.5 c 128,-1,0
 456 441 456 441 430 421 c 128,-1,1
206.5 421 m 128,-1,12
 181 401 181 401 126.5 401 c 128,-1,13
 72 401 72 401 48.5 425 c 128,-1,14
 25 449 25 449 25 502.5 c 128,-1,15
 25 556 25 556 58 595.5 c 128,-1,16
 91 635 91 635 151 671 c 1,17,-1
 240 657 l 1,18,-1
 169 562 l 1,19,20
 203 555 203 555 217.5 538.5 c 128,-1,21
 232 522 232 522 232 481.5 c 128,-1,11
 232 441 232 441 206.5 421 c 128,-1,12
EndSplineSet
EndChar

StartChar: quotedblright
Encoding: 8221 8221 240
Width: 499
GlyphClass: 2
Flags: W
LayerCount: 2
Fore
SplineSet
69.5 651 m 128,-1,1
 95 671 95 671 150 671 c 128,-1,2
 205 671 205 671 228.5 648 c 128,-1,3
 252 625 252 625 252 570.5 c 128,-1,4
 252 516 252 516 218.5 476.5 c 128,-1,5
 185 437 185 437 126 401 c 1,6,-1
 37 415 l 1,7,-1
 108 510 l 1,8,9
 74 517 74 517 59 533.5 c 128,-1,10
 44 550 44 550 44 590.5 c 128,-1,0
 44 631 44 631 69.5 651 c 128,-1,1
292.5 651 m 128,-1,12
 318 671 318 671 373 671 c 128,-1,13
 428 671 428 671 451.5 648 c 128,-1,14
 475 625 475 625 475 570.5 c 128,-1,15
 475 516 475 516 442 476.5 c 128,-1,16
 409 437 409 437 349 401 c 1,17,-1
 260 415 l 1,18,-1
 331 510 l 1,19,20
 297 517 297 517 282 533.5 c 128,-1,21
 267 550 267 550 267 590.5 c 128,-1,11
 267 631 267 631 292.5 651 c 128,-1,12
EndSplineSet
EndChar

StartChar: quotedblbase
Encoding: 8222 8222 241
Width: 499
GlyphClass: 2
Flags: W
LayerCount: 2
Fore
SplineSet
57.5 132 m 128,-1,1
 83 152 83 152 138 152 c 128,-1,2
 193 152 193 152 216.5 128 c 128,-1,3
 240 104 240 104 240 50.5 c 128,-1,4
 240 -3 240 -3 206.5 -42.5 c 128,-1,5
 173 -82 173 -82 114 -118 c 1,6,-1
 25 -104 l 1,7,-1
 95 -9 l 1,8,9
 61 -2 61 -2 46.5 14.5 c 128,-1,10
 32 31 32 31 32 71.5 c 128,-1,0
 32 112 32 112 57.5 132 c 128,-1,1
280.5 132 m 128,-1,12
 306 152 306 152 361 152 c 128,-1,13
 416 152 416 152 439.5 128 c 128,-1,14
 463 104 463 104 463 50.5 c 128,-1,15
 463 -3 463 -3 429.5 -42.5 c 128,-1,16
 396 -82 396 -82 337 -118 c 1,17,-1
 248 -104 l 1,18,-1
 318 -9 l 1,19,20
 284 -2 284 -2 269.5 14.5 c 128,-1,21
 255 31 255 31 255 71.5 c 128,-1,11
 255 112 255 112 280.5 132 c 128,-1,12
EndSplineSet
EndChar

StartChar: dagger
Encoding: 8224 8224 242
Width: 459
GlyphClass: 2
Flags: W
LayerCount: 2
Fore
SplineSet
23 331 m 1,0,-1
 23 490 l 1,1,-1
 134 490 l 1,2,-1
 134 622 l 1,3,-1
 321 622 l 1,4,-1
 321 490 l 1,5,-1
 437 490 l 1,6,-1
 437 331 l 1,7,-1
 321 331 l 1,8,-1
 321 -140 l 1,9,-1
 134 -140 l 1,10,-1
 134 331 l 1,11,-1
 23 331 l 1,0,-1
EndSplineSet
EndChar

StartChar: daggerdbl
Encoding: 8225 8225 243
Width: 459
GlyphClass: 2
Flags: W
LayerCount: 2
Fore
SplineSet
23 0 m 1,0,-1
 23 160 l 1,1,-1
 134 160 l 1,2,-1
 134 331 l 1,3,-1
 23 331 l 1,4,-1
 23 490 l 1,5,-1
 134 490 l 1,6,-1
 134 622 l 1,7,-1
 321 622 l 1,8,-1
 321 490 l 1,9,-1
 437 490 l 1,10,-1
 437 331 l 1,11,-1
 321 331 l 1,12,-1
 321 160 l 1,13,-1
 437 160 l 1,14,-1
 437 0 l 1,15,-1
 321 0 l 1,16,-1
 321 -140 l 1,17,-1
 134 -140 l 1,18,-1
 134 0 l 1,19,-1
 23 0 l 1,0,-1
EndSplineSet
EndChar

StartChar: bullet
Encoding: 8226 8226 244
Width: 422
GlyphClass: 2
Flags: W
LayerCount: 2
Fore
SplineSet
117 214 m 128,-1,1
 84 245 84 245 84 311 c 128,-1,2
 84 377 84 377 115 408.5 c 128,-1,3
 146 440 146 440 212.5 440 c 128,-1,4
 279 440 279 440 309 409 c 128,-1,5
 339 378 339 378 339 313 c 0,6,7
 339 183 339 183 214 183 c 0,8,0
 150 183 150 183 117 214 c 128,-1,1
EndSplineSet
EndChar

StartChar: ellipsis
Encoding: 8230 8230 245
Width: 793
GlyphClass: 2
Flags: W
LayerCount: 2
Fore
SplineSet
71.5 10 m 128,-1,1
 49 30 49 30 49 72 c 128,-1,2
 49 114 49 114 71 134 c 128,-1,3
 93 154 93 154 149.5 154 c 128,-1,4
 206 154 206 154 227.5 134 c 128,-1,5
 249 114 249 114 249 72 c 128,-1,6
 249 30 249 30 227 10 c 128,-1,7
 205 -10 205 -10 149.5 -10 c 128,-1,0
 94 -10 94 -10 71.5 10 c 128,-1,1
325.5 10 m 128,-1,9
 303 30 303 30 303 72 c 128,-1,10
 303 114 303 114 325 134 c 128,-1,11
 347 154 347 154 403.5 154 c 128,-1,12
 460 154 460 154 481.5 134 c 128,-1,13
 503 114 503 114 503 72 c 128,-1,14
 503 30 503 30 481 10 c 128,-1,15
 459 -10 459 -10 403.5 -10 c 128,-1,8
 348 -10 348 -10 325.5 10 c 128,-1,9
576.5 10 m 128,-1,17
 554 30 554 30 554 72 c 128,-1,18
 554 114 554 114 576 134 c 128,-1,19
 598 154 598 154 654.5 154 c 128,-1,20
 711 154 711 154 732.5 134 c 128,-1,21
 754 114 754 114 754 72 c 128,-1,22
 754 30 754 30 732 10 c 128,-1,23
 710 -10 710 -10 654.5 -10 c 128,-1,16
 599 -10 599 -10 576.5 10 c 128,-1,17
EndSplineSet
EndChar

StartChar: perthousand
Encoding: 8240 8240 246
Width: 1336
GlyphClass: 2
Flags: W
LayerCount: 2
Fore
SplineSet
653 636 m 1,0,-1
 450 0 l 1,1,-1
 299 0 l 1,2,-1
 502 636 l 1,3,-1
 653 636 l 1,0,-1
234 409 m 2,4,-1
 234 453 l 2,5,6
 234 488 234 488 230.5 497 c 128,-1,7
 227 506 227 506 222.5 516 c 128,-1,8
 218 526 218 526 202 526 c 128,-1,9
 186 526 186 526 179 520 c 0,10,11
 165 510 165 510 165 422 c 2,12,-1
 165 409 l 2,13,14
 165 347 165 347 169 326 c 128,-1,15
 173 305 173 305 180.5 299 c 128,-1,16
 188 293 188 293 202 293 c 0,17,18
 225 293 225 293 229.5 317 c 128,-1,19
 234 341 234 341 234 409 c 2,4,-1
341.5 591 m 128,-1,21
 378 536 378 536 378 415.5 c 128,-1,22
 378 295 378 295 341.5 240.5 c 128,-1,23
 305 186 305 186 200 186 c 128,-1,24
 95 186 95 186 57.5 241 c 128,-1,25
 20 296 20 296 20 415.5 c 128,-1,26
 20 535 20 535 57 590.5 c 128,-1,27
 94 646 94 646 199.5 646 c 128,-1,20
 305 646 305 646 341.5 591 c 128,-1,21
787 212 m 2,28,-1
 787 256 l 2,29,30
 787 291 787 291 783.5 300 c 128,-1,31
 780 309 780 309 775.5 319.5 c 128,-1,32
 771 330 771 330 755 330 c 128,-1,33
 739 330 739 330 732 324 c 0,34,35
 718 314 718 314 718 225 c 2,36,-1
 718 212 l 2,37,38
 718 150 718 150 722 129.5 c 128,-1,39
 726 109 726 109 733.5 102.5 c 128,-1,40
 741 96 741 96 755 96 c 0,41,42
 778 96 778 96 782.5 120 c 128,-1,43
 787 144 787 144 787 212 c 2,28,-1
894.5 394.5 m 128,-1,45
 931 339 931 339 931 218.5 c 128,-1,46
 931 98 931 98 894.5 44 c 128,-1,47
 858 -10 858 -10 753 -10 c 128,-1,48
 648 -10 648 -10 610.5 44.5 c 128,-1,49
 573 99 573 99 573 218.5 c 128,-1,50
 573 338 573 338 610 394 c 128,-1,51
 647 450 647 450 752.5 450 c 128,-1,44
 858 450 858 450 894.5 394.5 c 128,-1,45
1172 212 m 2,52,-1
 1172 256 l 2,53,54
 1172 291 1172 291 1168.5 300 c 128,-1,55
 1165 309 1165 309 1160.5 319.5 c 128,-1,56
 1156 330 1156 330 1140 330 c 128,-1,57
 1124 330 1124 330 1117 324 c 0,58,59
 1103 314 1103 314 1103 225 c 2,60,-1
 1103 212 l 2,61,62
 1103 150 1103 150 1107 129.5 c 128,-1,63
 1111 109 1111 109 1118.5 102.5 c 128,-1,64
 1126 96 1126 96 1140 96 c 0,65,66
 1163 96 1163 96 1167.5 120 c 128,-1,67
 1172 144 1172 144 1172 212 c 2,52,-1
1279.5 394.5 m 128,-1,69
 1316 339 1316 339 1316 218.5 c 128,-1,70
 1316 98 1316 98 1279.5 44 c 128,-1,71
 1243 -10 1243 -10 1138 -10 c 128,-1,72
 1033 -10 1033 -10 995.5 44.5 c 128,-1,73
 958 99 958 99 958 218.5 c 128,-1,74
 958 338 958 338 995 394 c 128,-1,75
 1032 450 1032 450 1137.5 450 c 128,-1,68
 1243 450 1243 450 1279.5 394.5 c 128,-1,69
EndSplineSet
EndChar

StartChar: guilsinglleft
Encoding: 8249 8249 247
Width: 347
GlyphClass: 2
Flags: W
LayerCount: 2
Fore
SplineSet
4 210 m 1,0,-1
 4 278 l 1,1,-1
 213 494 l 1,2,-1
 324 423 l 1,3,-1
 205 248 l 1,4,-1
 327 73 l 1,5,-1
 207 -1 l 1,6,-1
 4 210 l 1,0,-1
EndSplineSet
EndChar

StartChar: guilsinglright
Encoding: 8250 8250 248
Width: 347
GlyphClass: 2
Flags: W
LayerCount: 2
Fore
SplineSet
343 283 m 1,0,-1
 343 215 l 1,1,-1
 134 -1 l 1,2,-1
 24 70 l 1,3,-1
 142 245 l 1,4,-1
 20 420 l 1,5,-1
 140 494 l 1,6,-1
 343 283 l 1,0,-1
EndSplineSet
EndChar

StartChar: fraction
Encoding: 8260 8260 249
Width: 427
GlyphClass: 2
Flags: W
LayerCount: 2
Fore
SplineSet
442 631 m 1,0,-1
 194 -145 l 1,1,-1
 -15 -145 l 1,2,-1
 232 631 l 1,3,-1
 442 631 l 1,0,-1
EndSplineSet
EndChar

StartChar: Euro
Encoding: 8364 8364 250
Width: 543
GlyphClass: 2
Flags: W
LayerCount: 2
Fore
SplineSet
16 418 m 1,0,-1
 73 418 l 1,1,2
 117 646 117 646 355 646 c 0,3,4
 440 646 440 646 525 615 c 1,5,-1
 499 443 l 1,6,7
 394 458 394 458 366 459 c 0,8,9
 321 459 321 459 307 418 c 1,10,-1
 496 418 l 1,11,-1
 482 316 l 1,12,-1
 287 316 l 1,13,-1
 287 297 l 1,14,-1
 481 297 l 1,15,-1
 469 197 l 1,16,-1
 300 197 l 1,17,18
 315 161 315 161 371 161 c 0,19,20
 387 161 387 161 483 171 c 1,21,-1
 510 13 l 1,22,23
 421 -11 421 -11 340 -10 c 0,24,25
 232 -10 232 -10 164.5 44 c 128,-1,26
 97 98 97 98 76 197 c 1,27,-1
 16 197 l 1,28,-1
 16 297 l 1,29,-1
 68 297 l 1,30,-1
 68 316 l 1,31,-1
 16 316 l 1,32,-1
 16 418 l 1,0,-1
EndSplineSet
EndChar

StartChar: trademark
Encoding: 8482 8482 251
Width: 671
GlyphClass: 2
Flags: W
LayerCount: 2
Fore
SplineSet
651 283 m 1,0,-1
 540 283 l 1,1,-1
 540 441 l 1,2,-1
 534 441 l 1,3,-1
 519 283 l 1,4,-1
 411 283 l 1,5,-1
 396 441 l 1,6,-1
 390 441 l 1,7,-1
 390 283 l 1,8,-1
 282 283 l 1,9,-1
 294 636 l 1,10,-1
 447 636 l 1,11,-1
 465 483 l 1,12,-1
 469 483 l 1,13,-1
 484 636 l 1,14,-1
 637 636 l 1,15,-1
 651 283 l 1,0,-1
275 539 m 1,16,-1
 212 539 l 1,17,-1
 212 283 l 1,18,-1
 91 283 l 1,19,-1
 91 539 l 1,20,-1
 20 539 l 1,21,-1
 27 636 l 1,22,-1
 282 636 l 1,23,-1
 275 539 l 1,16,-1
EndSplineSet
EndChar

StartChar: partialdiff
Encoding: 8706 8706 252
Width: 543
GlyphClass: 2
Flags: W
LayerCount: 2
Fore
SplineSet
225 410 m 0,0,1
 264 410 264 410 288 406 c 1,2,-1
 292 410 l 1,3,4
 231 476 231 476 72 475 c 1,5,-1
 72 646 l 1,6,7
 308 646 308 646 415.5 558.5 c 128,-1,8
 523 471 523 471 523 271 c 0,9,10
 523 137 523 137 459 63.5 c 128,-1,11
 395 -10 395 -10 269.5 -10 c 128,-1,12
 144 -10 144 -10 82 42.5 c 128,-1,13
 20 95 20 95 20 213 c 0,14,15
 20 309 20 309 73 359.5 c 128,-1,16
 126 410 126 410 225 410 c 0,0,1
301 272.5 m 128,-1,18
 295 290 295 290 273.5 290 c 128,-1,19
 252 290 252 290 245 267.5 c 128,-1,20
 238 245 238 245 238 201.5 c 128,-1,21
 238 158 238 158 244.5 140.5 c 128,-1,22
 251 123 251 123 272.5 123 c 128,-1,23
 294 123 294 123 300.5 145 c 128,-1,24
 307 167 307 167 307 211 c 128,-1,17
 307 255 307 255 301 272.5 c 128,-1,18
EndSplineSet
EndChar

StartChar: product
Encoding: 8719 8719 253
Width: 625
GlyphClass: 2
Flags: W
LayerCount: 2
Fore
SplineSet
287 0 m 1,0,-1
 71 0 l 1,1,-1
 71 463 l 1,2,-1
 0 463 l 1,3,-1
 0 636 l 1,4,-1
 626 636 l 1,5,-1
 626 463 l 1,6,-1
 559 463 l 1,7,-1
 559 0 l 1,8,-1
 343 0 l 1,9,-1
 343 463 l 1,10,-1
 287 463 l 1,11,-1
 287 0 l 1,0,-1
EndSplineSet
EndChar

StartChar: summation
Encoding: 8721 8721 254
Width: 532
GlyphClass: 2
Flags: W
LayerCount: 2
Fore
SplineSet
508 461 m 1,0,-1
 350 461 l 1,1,-1
 433 352 l 1,2,-1
 433 284 l 1,3,-1
 333 163 l 1,4,-1
 520 163 l 1,5,-1
 520 0 l 1,6,-1
 31 0 l 1,7,-1
 24 127 l 1,8,-1
 179 311 l 1,9,-1
 12 498 l 1,10,-1
 17 636 l 1,11,-1
 508 636 l 1,12,-1
 508 461 l 1,0,-1
EndSplineSet
EndChar

StartChar: minus
Encoding: 8722 8722 255
Width: 487
GlyphClass: 2
Flags: W
LayerCount: 2
Fore
SplineSet
455 214 m 1,0,-1
 33 214 l 1,1,-1
 33 380 l 1,2,-1
 455 380 l 1,3,-1
 455 214 l 1,0,-1
EndSplineSet
EndChar

StartChar: radical
Encoding: 8730 8730 256
Width: 612
GlyphClass: 2
Flags: W
LayerCount: 2
Fore
SplineSet
290 167 m 1,0,-1
 428 852 l 1,1,-1
 813 852 l 1,2,-1
 788 686 l 1,3,-1
 599 686 l 1,4,-1
 384 -145 l 1,5,-1
 166 -145 l 1,6,-1
 0 490 l 1,7,-1
 222 490 l 1,8,-1
 283 167 l 1,9,-1
 290 167 l 1,0,-1
EndSplineSet
EndChar

StartChar: infinity
Encoding: 8734 8734 257
Width: 743
GlyphClass: 2
Flags: W
LayerCount: 2
Fore
SplineSet
216 474 m 128,-1,1
 299 474 299 474 364 397 c 1,2,-1
 369 397 l 1,3,4
 401 434 401 434 436 454 c 128,-1,5
 471 474 471 474 524 474 c 0,6,7
 618 474 618 474 664.5 421.5 c 128,-1,8
 711 369 711 369 711 275 c 0,9,10
 711 73 711 73 524 74 c 0,11,12
 436 74 436 74 374 152 c 1,13,-1
 365 152 l 1,14,15
 332 114 332 114 299 94 c 128,-1,16
 266 74 266 74 216 74 c 0,17,18
 124 74 124 74 78.5 125.5 c 128,-1,19
 33 177 33 177 33 271.5 c 128,-1,20
 33 366 33 366 83 420 c 128,-1,0
 133 474 133 474 216 474 c 128,-1,1
514 333 m 0,21,22
 480 333 480 333 445 270 c 1,23,24
 480 214 480 214 514 214 c 0,25,26
 545 214 545 214 545 273.5 c 128,-1,27
 545 333 545 333 514 333 c 0,21,22
227 333 m 0,28,29
 198 333 198 333 198.5 273.5 c 128,-1,30
 199 214 199 214 227 214 c 0,31,32
 262 214 262 214 297 273 c 1,33,34
 261 333 261 333 227 333 c 0,28,29
EndSplineSet
EndChar

StartChar: integral
Encoding: 8747 8747 258
Width: 451
GlyphClass: 2
Flags: W
LayerCount: 2
Fore
SplineSet
120 166 m 2,0,-1
 139 605 l 2,1,2
 145 730 145 730 203.5 791 c 128,-1,3
 262 852 262 852 397 852 c 2,4,-1
 495 852 l 1,5,-1
 484 686 l 1,6,7
 403 686 403 686 379 661.5 c 128,-1,8
 355 637 355 637 352 565 c 2,9,-1
 331 105 l 2,10,11
 324 -37 324 -37 264 -91 c 128,-1,12
 204 -145 204 -145 50 -145 c 2,13,-1
 -43 -145 l 1,14,-1
 -27 33 l 1,15,16
 23 33 23 33 51.5 38.5 c 128,-1,17
 80 44 80 44 95 62 c 128,-1,18
 110 80 110 80 114 101.5 c 128,-1,19
 118 123 118 123 120 166 c 2,0,-1
EndSplineSet
EndChar

StartChar: approxequal
Encoding: 8776 8776 259
Width: 503
GlyphClass: 2
Flags: W
LayerCount: 2
Fore
SplineSet
463 269 m 1,0,-1
 463 256 l 2,1,2
 463 183 463 183 438 144 c 128,-1,3
 413 105 413 105 337 105 c 0,4,5
 292 105 292 105 206 134 c 1,6,-1
 206 99 l 1,7,-1
 49 99 l 1,8,-1
 49 114 l 2,9,10
 49 188 49 188 75.5 225.5 c 128,-1,11
 102 263 102 263 170 263 c 0,12,13
 206 263 206 263 306 234 c 1,14,-1
 306 269 l 1,15,-1
 463 269 l 1,0,-1
455 465 m 1,16,-1
 455 452 l 2,17,18
 455 379 455 379 429.5 340 c 128,-1,19
 404 301 404 301 329 301 c 0,20,21
 284 301 284 301 198 330 c 1,22,-1
 198 295 l 1,23,-1
 41 295 l 1,24,-1
 41 309 l 2,25,26
 41 383 41 383 67.5 421.5 c 128,-1,27
 94 460 94 460 162 460 c 0,28,29
 196 460 196 460 298 431 c 1,30,-1
 298 465 l 1,31,-1
 455 465 l 1,16,-1
EndSplineSet
EndChar

StartChar: notequal
Encoding: 8800 8800 260
Width: 464
GlyphClass: 2
Flags: W
LayerCount: 2
Fore
SplineSet
428 95 m 1,0,-1
 256 95 l 1,1,-1
 240 46 l 1,2,-1
 72 46 l 1,3,-1
 88 95 l 1,4,-1
 37 95 l 1,5,-1
 37 246 l 1,6,-1
 140 246 l 1,7,-1
 154 287 l 1,8,-1
 37 287 l 1,9,-1
 37 437 l 1,10,-1
 205 437 l 1,11,-1
 232 516 l 1,12,-1
 401 516 l 1,13,-1
 374 437 l 1,14,-1
 428 437 l 1,15,-1
 428 287 l 1,16,-1
 323 287 l 1,17,-1
 308 246 l 1,18,-1
 428 246 l 1,19,-1
 428 95 l 1,0,-1
EndSplineSet
EndChar

StartChar: lessequal
Encoding: 8804 8804 261
Width: 510
GlyphClass: 2
Flags: W
LayerCount: 2
Fore
SplineSet
478 156 m 1,0,-1
 33 306 l 1,1,-1
 33 464 l 1,2,-1
 478 620 l 1,3,-1
 478 456 l 1,4,-1
 234 386 l 1,5,-1
 478 318 l 1,6,-1
 478 156 l 1,0,-1
478 0 m 1,7,-1
 33 0 l 1,8,-1
 33 148 l 1,9,-1
 478 148 l 1,10,-1
 478 0 l 1,7,-1
EndSplineSet
EndChar

StartChar: greaterequal
Encoding: 8805 8805 262
Width: 510
GlyphClass: 2
Flags: W
LayerCount: 2
Fore
SplineSet
478 306 m 1,0,-1
 33 156 l 1,1,-1
 33 318 l 1,2,-1
 276 386 l 1,3,-1
 33 456 l 1,4,-1
 33 620 l 1,5,-1
 478 464 l 1,6,-1
 478 306 l 1,0,-1
478 0 m 1,7,-1
 33 0 l 1,8,-1
 33 148 l 1,9,-1
 478 148 l 1,10,-1
 478 0 l 1,7,-1
EndSplineSet
EndChar

StartChar: lozenge
Encoding: 9674 9674 263
Width: 590
GlyphClass: 2
Flags: W
LayerCount: 2
Fore
SplineSet
550 303 m 1,0,-1
 357 -56 l 1,1,-1
 230 -56 l 1,2,-1
 41 303 l 1,3,-1
 232 663 l 1,4,-1
 357 663 l 1,5,-1
 550 303 l 1,0,-1
378 303 m 1,6,-1
 295 472 l 1,7,-1
 213 303 l 1,8,-1
 295 133 l 1,9,-1
 378 303 l 1,6,-1
EndSplineSet
EndChar

StartChar: ff
Encoding: 64256 64256 264
Width: 643
GlyphClass: 2
Flags: W
LayerCount: 2
Fore
SplineSet
518 664 m 0,0,1
 587 664 587 664 671 658 c 1,2,-1
 654 498 l 1,3,4
 584 504 584 504 574.5 504 c 128,-1,5
 565 504 565 504 565 494 c 2,6,-1
 565 476 l 1,7,-1
 652 476 l 1,8,-1
 641 338 l 1,9,-1
 567 338 l 1,10,-1
 567 0 l 1,11,-1
 353 0 l 1,12,-1
 353 338 l 1,13,-1
 264 338 l 1,14,-1
 264 0 l 1,15,-1
 50 0 l 1,16,-1
 50 338 l 1,17,-1
 1 338 l 1,18,-1
 1 476 l 1,19,-1
 50 476 l 1,20,-1
 50 525 l 2,21,22
 50 663 50 663 215 664 c 0,23,24
 255 664 255 664 347 659 c 1,25,-1
 333 501 l 1,26,27
 293 504 293 504 272 504 c 0,28,29
 262 504 262 504 262 494 c 2,30,-1
 262 476 l 1,31,-1
 353 476 l 1,32,-1
 353 525 l 2,33,34
 353 664 353 664 518 664 c 0,0,1
EndSplineSet
EndChar

StartChar: fi
Encoding: 64257 64257 265
Width: 603
GlyphClass: 2
Flags: W
LayerCount: 2
Fore
SplineSet
566 0 m 1,0,-1
 353 0 l 1,1,-1
 353 338 l 1,2,-1
 264 338 l 1,3,-1
 264 0 l 1,4,-1
 50 0 l 1,5,-1
 50 338 l 1,6,-1
 1 338 l 1,7,-1
 1 476 l 1,8,-1
 50 476 l 1,9,-1
 50 525 l 2,10,11
 50 663 50 663 215 664 c 0,12,13
 278 664 278 664 339 660 c 1,14,-1
 327 501 l 1,15,16
 287 504 287 504 274.5 504 c 128,-1,17
 262 504 262 504 262 494 c 2,18,-1
 262 476 l 1,19,-1
 566 476 l 1,20,-1
 566 0 l 1,0,-1
349 584 m 0,21,22
 349 671 349 671 458.5 671 c 128,-1,23
 568 671 568 671 568 584 c 0,24,25
 568 539 568 539 541 519.5 c 128,-1,26
 514 500 514 500 458.5 500 c 128,-1,27
 403 500 403 500 376 519 c 128,-1,28
 349 538 349 538 349 584 c 0,21,22
EndSplineSet
EndChar

StartChar: fl
Encoding: 64258 64258 266
Width: 613
GlyphClass: 2
Flags: W
LayerCount: 2
Fore
SplineSet
353 127 m 2,0,-1
 353 338 l 1,1,-1
 264 338 l 1,2,-1
 264 0 l 1,3,-1
 50 0 l 1,4,-1
 50 338 l 1,5,-1
 1 338 l 1,6,-1
 1 476 l 1,7,-1
 50 476 l 1,8,-1
 50 525 l 2,9,10
 50 663 50 663 215 664 c 0,11,12
 253 664 253 664 339 656 c 1,13,-1
 327 501 l 1,14,15
 292 504 292 504 277 504 c 128,-1,16
 262 504 262 504 262 494 c 2,17,-1
 262 476 l 1,18,-1
 353 476 l 1,19,-1
 353 656 l 1,20,-1
 563 656 l 1,21,-1
 563 174 l 2,22,23
 563 146 563 146 601 146 c 1,24,-1
 586 -10 l 1,25,-1
 502 -10 l 2,26,27
 353 -10 353 -10 353 127 c 2,0,-1
EndSplineSet
EndChar

StartChar: ffi
Encoding: 64259 64259 267
Width: 906
GlyphClass: 2
Flags: W
LayerCount: 2
Fore
SplineSet
870 0 m 1,0,-1
 657 0 l 1,1,-1
 657 338 l 1,2,-1
 568 338 l 1,3,-1
 568 0 l 1,4,-1
 354 0 l 1,5,-1
 354 338 l 1,6,-1
 264 338 l 1,7,-1
 264 0 l 1,8,-1
 50 0 l 1,9,-1
 50 338 l 1,10,-1
 1 338 l 1,11,-1
 1 476 l 1,12,-1
 50 476 l 1,13,-1
 50 525 l 2,14,15
 50 663 50 663 215 664 c 0,16,17
 255 664 255 664 347 659 c 1,18,-1
 333 501 l 1,19,20
 293 504 293 504 272 504 c 0,21,22
 262 504 262 504 262 494 c 2,23,-1
 262 476 l 1,24,-1
 354 476 l 1,25,-1
 354 525 l 2,26,27
 354 663 354 663 519 664 c 0,28,29
 584 664 584 664 643 660 c 1,30,-1
 631 501 l 1,31,32
 591 504 591 504 578.5 504 c 128,-1,33
 566 504 566 504 566 494 c 2,34,-1
 566 476 l 1,35,-1
 870 476 l 1,36,-1
 870 0 l 1,0,-1
652 584 m 0,37,38
 652 671 652 671 761.5 671 c 128,-1,39
 871 671 871 671 871 584 c 0,40,41
 871 539 871 539 844 519.5 c 128,-1,42
 817 500 817 500 762 500 c 128,-1,43
 707 500 707 500 679.5 519 c 128,-1,44
 652 538 652 538 652 584 c 0,37,38
EndSplineSet
EndChar

StartChar: ffl
Encoding: 64260 64260 268
Width: 916
GlyphClass: 2
Flags: W
LayerCount: 2
Fore
SplineSet
518 664 m 0,0,1
 556 664 556 664 642 656 c 1,2,-1
 630 501 l 1,3,4
 595 504 595 504 580 504 c 128,-1,5
 565 504 565 504 565 494 c 2,6,-1
 565 476 l 1,7,-1
 656 476 l 1,8,-1
 656 656 l 1,9,-1
 866 656 l 1,10,-1
 866 174 l 2,11,12
 866 146 866 146 904 146 c 1,13,-1
 889 -10 l 1,14,-1
 805 -10 l 2,15,16
 657 -10 657 -10 656 127 c 2,17,-1
 656 338 l 1,18,-1
 567 338 l 1,19,-1
 567 0 l 1,20,-1
 353 0 l 1,21,-1
 353 338 l 1,22,-1
 264 338 l 1,23,-1
 264 0 l 1,24,-1
 50 0 l 1,25,-1
 50 338 l 1,26,-1
 1 338 l 1,27,-1
 1 476 l 1,28,-1
 50 476 l 1,29,-1
 50 525 l 2,30,31
 50 663 50 663 215 664 c 0,32,33
 255 664 255 664 347 659 c 1,34,-1
 333 501 l 1,35,36
 293 504 293 504 272 504 c 0,37,38
 262 504 262 504 262 494 c 2,39,-1
 262 476 l 1,40,-1
 353 476 l 1,41,-1
 353 525 l 2,42,43
 353 664 353 664 518 664 c 0,0,1
EndSplineSet
EndChar

StartChar: uniE021
Encoding: 57377 57377 269
Width: 658
Flags: W
LayerCount: 2
Fore
SplineSet
130 580 m 1,0,1
 130 580 130 580 12 580 c 1,2,-1
 12 704 l 1,3,-1
 646 704 l 1,4,-1
 646 579 l 1,5,-1
 492 579 l 2,6,-1
 518 576 l 0,7,8
 524 574 524 574 556 542 c 0,9,10
 592 508 592 508 592 452 c 0,11,12
 592 403 592 403 576 363 c 0,13,14
 562 328 562 328 530 308 c 0,15,16
 480 275 480 275 469 275 c 2,17,18
 469 275 469 275 461 275 c 1,19,-1
 645 0 l 1,20,-1
 470 0 l 1,21,-1
 306 268 l 1,22,-1
 270 268 l 1,23,-1
 268 0 l 1,24,-1
 128 0 l 1,25,-1
 130 580 l 1,0,1
442 455 m 0,26,27
 442 496 442 496 412 513 c 0,28,29
 380 530 380 530 333 530 c 2,30,-1
 275 530 l 1,31,-1
 275 371 l 1,32,33
 275 372 275 372 343 372 c 2,34,35
 366 372 366 372 390 382 c 0,36,37
 416 393 416 393 429 414 c 128,-1,38
 442 435 442 435 442 455 c 0,26,27
EndSplineSet
EndChar

StartChar: uniE022
Encoding: 57378 57378 270
Width: 739
Flags: W
LayerCount: 2
Fore
SplineSet
730 704 m 17,0,-1
 730 580 l 1,1,-1
 540 580 l 1,2,3
 572 576 572 576 572 576 c 2,4,5
 611 571 611 571 656 524 c 0,6,7
 719 457 719 457 719 327 c 0,8,9
 719 230 719 230 672 148 c 0,10,11
 630 74 630 74 556 37 c 0,12,13
 484 0 484 0 365 0 c 2,14,15
 365 0 365 0 171 0 c 1,16,-1
 172 252 l 1,17,-1
 56 252 l 1,18,-1
 77 357 l 1,19,-1
 171 357 l 1,20,21
 172 388 172 388 172 410 c 1,22,-1
 56 410 l 1,23,-1
 77 515 l 1,24,-1
 171 515 l 1,25,-1
 171 580 l 1,26,-1
 23 580 l 1,27,28
 24 600 24 600 24 638 c 0,29,30
 24 647 24 647 24 657 c 0,31,32
 24 677 24 677 23 701 c 9,33,-1
 730 704 l 17,0,-1
310 127 m 1,34,-1
 346 128 l 2,35,36
 369 129 369 129 437 155 c 0,37,38
 495 177 495 177 521 218 c 0,39,40
 547 258 547 258 547 332 c 0,41,42
 547 450 547 450 487 490 c 0,43,44
 415 538 415 538 350 538 c 0,45,46
 350 538 350 538 348 538 c 0,47,48
 336 538 336 538 325 538 c 2,49,50
 318 538 318 538 310 538 c 1,51,-1
 310 515 l 1,52,-1
 377 515 l 1,53,54
 356 410 356 410 356 410 c 1,55,-1
 310 410 l 1,56,-1
 310 357 l 1,57,-1
 377 357 l 1,58,59
 377 346 377 346 356 252 c 1,60,-1
 310 252 l 1,61,-1
 310 127 l 1,34,-1
EndSplineSet
EndChar

StartChar: uniE023
Encoding: 57379 57379 271
Width: 834
Flags: W
LayerCount: 2
Fore
SplineSet
179 529 m 0,0,1
 179 529 179 529 228 529 c 1,2,3
 190 448 190 448 166 419 c 1,4,-1
 270 419 l 1,5,-1
 326 570 l 1,6,-1
 23 570 l 1,7,-1
 23 704 l 1,8,-1
 811 704 l 1,9,-1
 811 570 l 1,10,-1
 528 570 l 1,11,-1
 581 419 l 1,12,-1
 675 419 l 1,13,14
 652 446 652 446 613 529 c 1,15,-1
 665 529 l 1,16,17
 671 523 671 523 691 498 c 128,-1,18
 711 473 711 473 720.5 463.5 c 128,-1,19
 730 454 730 454 751 439.5 c 128,-1,20
 772 425 772 425 786 415.5 c 128,-1,21
 800 406 800 406 814 399 c 1,22,-1
 814 386 l 1,23,-1
 814 352 l 1,24,25
 737 299 737 299 664 214 c 1,26,-1
 642 214 l 1,27,-1
 727 0 l 1,28,-1
 591 0 l 9,29,-1
 476 321 l 16,30,31
 476 321 476 321 372 321 c 1,32,-1
 276 0 l 1,33,-1
 138 0 l 1,34,-1
 211 214 l 1,35,-1
 185 214 l 1,36,37
 125 300 125 300 20 352 c 1,38,-1
 20 399 l 1,39,40
 110 448 110 448 179 529 c 0,0,1
628 261 m 1,41,42
 641 286 641 286 672 321 c 1,43,-1
 604 322 l 1,44,-1
 628 261 l 1,41,42
220 258 m 1,45,-1
 240 323 l 1,46,-1
 172 323 l 1,47,48
 199 298 199 298 220 258 c 1,45,-1
427 495 m 1,49,50
 427 495 427 495 404 419 c 1,51,-1
 445 419 l 1,52,-1
 427 495 l 1,49,50
EndSplineSet
EndChar

StartChar: uniE024
Encoding: 57380 57380 272
Width: 993
Flags: W
LayerCount: 2
Fore
SplineSet
433 510 m 1,0,1
 433 510 433 510 529 738 c 1,2,-1
 680 738 l 1,3,-1
 597 551 l 1,4,-1
 667 572 l 1,5,6
 666 580 666 580 666 587 c 0,7,8
 666 623 666 623 715 672 c 0,9,10
 759 716 759 716 821 716 c 128,-1,11
 883 716 883 716 927 672 c 128,-1,12
 971 628 971 628 971 566 c 128,-1,13
 971 504 971 504 927 460 c 128,-1,14
 883 416 883 416 823 416 c 0,15,16
 822 416 822 416 820 416 c 0,17,18
 751 416 751 416 718 455 c 0,19,20
 710 464 710 464 705 471 c 1,21,-1
 546 430 l 1,22,-1
 484 296 l 1,23,-1
 688 233 l 1,24,25
 709 258 709 258 711 259 c 0,26,27
 792 302 792 302 814 302 c 0,28,29
 876 300 876 300 922 256 c 0,30,31
 966 214 966 214 966 153 c 0,32,33
 966 152 966 152 966 152 c 0,34,35
 966 90 966 90 921.5 46 c 128,-1,36
 877 2 877 2 814 2 c 0,37,38
 748 2 748 2 708 45 c 0,39,40
 673 84 673 84 666 109 c 1,41,-1
 439 185 l 1,42,-1
 360 0 l 1,43,-1
 212 0 l 1,44,-1
 315 221 l 1,45,-1
 276 238 l 1,46,47
 274 234 274 234 248 207 c 0,48,49
 217 176 217 176 150 176 c 0,50,51
 87 176 87 176 43 220 c 128,-1,52
 -1 264 -1 264 -1 327 c 0,53,54
 -1 392 -1 392 43 434 c 0,55,56
 80 470 80 470 119 481 c 0,57,58
 145 488 145 488 166 488 c 0,59,60
 186 488 186 488 202 482 c 0,61,62
 235 470 235 470 248 453 c 1,63,-1
 433 510 l 1,0,1
771 566.5 m 128,-1,65
 771 544 771 544 786 529 c 128,-1,66
 801 514 801 514 823.5 514 c 128,-1,67
 846 514 846 514 861 529 c 128,-1,68
 876 544 876 544 876 566.5 c 128,-1,69
 876 589 876 589 861 604 c 128,-1,70
 846 619 846 619 823.5 619 c 128,-1,71
 801 619 801 619 786 604 c 128,-1,64
 771 589 771 589 771 566.5 c 128,-1,65
767 150 m 128,-1,73
 767 128 767 128 782 113 c 128,-1,74
 797 98 797 98 819.5 98 c 128,-1,75
 842 98 842 98 857 113 c 128,-1,76
 872 128 872 128 872 150 c 128,-1,77
 872 172 872 172 857 187 c 128,-1,78
 842 202 842 202 819.5 202 c 128,-1,79
 797 202 797 202 782 187 c 128,-1,72
 767 172 767 172 767 150 c 128,-1,73
99 328 m 128,-1,81
 99 306 99 306 114 291 c 128,-1,82
 129 276 129 276 151.5 276 c 128,-1,83
 174 276 174 276 189 291 c 128,-1,84
 204 306 204 306 204 328 c 128,-1,85
 204 350 204 350 189 365 c 128,-1,86
 174 380 174 380 151.5 380 c 128,-1,87
 129 380 129 380 114 365 c 128,-1,80
 99 350 99 350 99 328 c 128,-1,81
383 385 m 1,88,89
 383 385 383 385 301 353 c 1,90,91
 302 351 302 351 302 349 c 1,92,-1
 356 332 l 1,93,-1
 383 385 l 1,88,89
EndSplineSet
EndChar

StartChar: uniE025
Encoding: 57381 57381 273
Width: 977
Flags: W
LayerCount: 2
Fore
SplineSet
93 328 m 128,-1,1
 93 304 93 304 110 287 c 128,-1,2
 127 270 127 270 151.5 270 c 128,-1,3
 176 270 176 270 193 287 c 128,-1,4
 210 304 210 304 210 328 c 128,-1,5
 210 352 210 352 193 369 c 128,-1,6
 176 386 176 386 151.5 386 c 128,-1,7
 127 386 127 386 110 369 c 128,-1,0
 93 352 93 352 93 328 c 128,-1,1
773 150 m 128,-1,9
 773 126 773 126 790 109 c 128,-1,10
 807 92 807 92 831.5 92 c 128,-1,11
 856 92 856 92 873 109 c 128,-1,12
 890 126 890 126 890 150 c 128,-1,13
 890 174 890 174 873 191 c 128,-1,14
 856 208 856 208 831.5 208 c 128,-1,15
 807 208 807 208 790 191 c 128,-1,8
 773 174 773 174 773 150 c 128,-1,9
777 566.5 m 128,-1,17
 777 542 777 542 794 525 c 128,-1,18
 811 508 811 508 835.5 508 c 128,-1,19
 860 508 860 508 877 525 c 128,-1,20
 894 542 894 542 894 566.5 c 128,-1,21
 894 591 894 591 877 608 c 128,-1,22
 860 625 860 625 835.5 625 c 128,-1,23
 811 625 811 625 794 608 c 128,-1,16
 777 591 777 591 777 566.5 c 128,-1,17
727 480 m 16,24,25
 727 480 727 480 498 414 c 1,26,27
 518 408 518 408 518 408 c 0,28,29
 538 402 538 402 576 382 c 0,30,31
 612 362 612 362 624 352 c 0,32,33
 644 332 644 332 656 316 c 0,34,35
 672 292 672 292 680 266 c 0,36,37
 688 237 688 237 690 224 c 1,38,-1
 706 219 l 1,39,40
 712 232 712 232 730 249 c 0,41,42
 770 289 770 289 825 289 c 0,43,44
 826 288 826 288 826 288 c 0,45,46
 882 288 882 288 922.5 248 c 128,-1,47
 963 208 963 208 963 152 c 128,-1,48
 963 96 963 96 923 56 c 0,49,50
 882 16 882 16 826 16 c 0,51,52
 768 16 768 16 730 55 c 0,53,54
 698 90 698 90 692 120 c 1,55,-1
 681 122 l 1,56,57
 667 78 667 78 631 44 c 0,58,59
 576 -10 576 -10 460 -10 c 0,60,61
 246 -10 246 -10 216 170 c 1,62,-1
 319 188 l 1,63,64
 334 140 334 140 372 110 c 0,65,66
 372 88 372 88 445 88 c 0,67,68
 449 88 449 88 452 88 c 8,69,70
 505 89 505 89 552 112 c 16,71,72
 573 122 573 122 582 153 c 1,73,-1
 265 250 l 1,74,75
 262 242 262 242 238 218 c 0,76,77
 210 190 210 190 149 190 c 0,78,79
 93 190 93 190 52.5 230 c 128,-1,80
 12 270 12 270 12 327 c 128,-1,81
 12 384 12 384 52 424 c 128,-1,82
 92 464 92 464 149 464 c 0,83,84
 215 464 215 464 229 448 c 0,85,86
 232 444 232 444 236 440 c 1,87,-1
 258 446 l 1,88,89
 248 480 248 480 248 522 c 0,90,91
 248 624 248 624 302 678 c 0,92,93
 368 744 368 744 445 745 c 0,94,95
 545 745 545 745 593.5 715 c 128,-1,96
 642 685 642 685 664 590 c 1,97,-1
 549 570 l 1,98,99
 539 612 539 612 512.5 624 c 128,-1,100
 486 636 486 636 446 636 c 0,101,102
 420 636 420 636 386 606 c 0,103,104
 366 589 366 589 362 546 c 0,105,106
 362 532 362 532 362 522 c 0,107,108
 362 492 362 492 368 483 c 0,109,110
 370 480 370 480 370 478 c 1,111,-1
 693 571 l 1,112,113
 692 578 692 578 692 585 c 0,114,115
 692 618 692 618 736 662 c 0,116,117
 776 702 776 702 832.5 702 c 128,-1,118
 889 702 889 702 929 662 c 128,-1,119
 969 622 969 622 969 566 c 128,-1,120
 969 510 969 510 929 470 c 0,121,122
 888 430 888 430 832 430 c 0,123,124
 770 430 770 430 739 465 c 8,125,126
 730 477 730 477 727 480 c 16,24,25
551 265 m 1,127,128
 548 268 548 268 546 270 c 0,129,130
 522 289 522 289 502 296 c 0,131,132
 458 312 458 312 440 318 c 0,133,134
 406 328 406 328 348 355 c 0,135,136
 336 362 336 362 324 366 c 1,137,-1
 283 354 l 1,138,139
 284 349 284 349 284 344 c 1,140,-1
 551 265 l 1,127,128
EndSplineSet
EndChar

StartChar: uniE026
Encoding: 57382 57382 274
Width: 880
Flags: W
LayerCount: 2
Fore
SplineSet
240 0 m 1,0,-1
 74 0 l 1,1,-1
 67 590 l 1,2,-1
 19 590 l 1,3,-1
 19 704 l 1,4,-1
 862 704 l 1,5,-1
 862 590 l 1,6,-1
 759 590 l 1,7,8
 774 590 774 590 812 542 c 0,9,10
 840 506 840 506 840 452 c 0,11,12
 840 452 840 452 840 450 c 0,13,14
 840 369 840 369 807 343.5 c 128,-1,15
 774 318 774 318 728 294 c 1,16,17
 728 294 728 294 862 0 c 1,18,-1
 736 0 l 1,19,-1
 614 268 l 1,20,-1
 582 268 l 1,21,-1
 574 0 l 1,22,-1
 410 0 l 1,23,24
 410 0 410 0 332 386 c 1,25,-1
 240 0 l 1,0,-1
726 482 m 0,26,27
 726 498 726 498 692 550 c 0,28,29
 672 580 672 580 600 580 c 2,30,-1
 590 580 l 1,31,-1
 589 383 l 1,32,-1
 610 383 l 2,33,34
 674 384 674 384 698 416 c 0,35,36
 726 454 726 454 726 482 c 0,26,27
174 590 m 1,37,-1
 173 194 l 1,38,39
 173 194 173 194 207 340 c 1,40,-1
 261 590 l 1,41,-1
 174 590 l 1,37,-1
399 590 m 1,42,-1
 452 312 l 2,43,44
 459 276 459 276 475 194 c 1,45,46
 478 234 478 234 478 234 c 1,47,-1
 482 590 l 1,48,49
 440 590 440 590 399 590 c 1,42,-1
EndSplineSet
EndChar

StartChar: uniE027
Encoding: 57383 57383 275
Width: 868
Flags: W
LayerCount: 2
Fore
SplineSet
379 590 m 129,-1,1
 379 590 379 590 274 590 c 1,2,-1
 274 540 l 1,3,-1
 369 540 l 1,4,0
 379 590 379 590 379 590 c 129,-1,1
621 202 m 17,5,-1
 658 590 l 1,6,-1
 525 590 l 9,7,-1
 621 202 l 17,5,-1
57 540 m 17,8,9
 57 540 57 540 160 540 c 1,10,-1
 160 590 l 1,11,-1
 23 590 l 1,12,-1
 23 704 l 1,13,-1
 845 704 l 1,14,-1
 845 590 l 1,15,-1
 768 590 l 1,16,-1
 704 0 l 1,17,-1
 558 0 l 1,18,-1
 452 423 l 9,19,20
 452 423 452 423 343 0 c 25,21,22
 343 0 343 0 180 0 c 17,23,-1
 166 288 l 1,24,-1
 40 288 l 1,25,26
 49 328 49 328 57 382 c 0,27,28
 57 382 57 382 164 382 c 1,29,-1
 162 444 l 1,30,-1
 35 444 l 9,31,-1
 57 540 l 17,8,9
275 444 m 1,32,-1
 277 382 l 1,33,-1
 325 382 l 1,34,-1
 342 444 l 1,35,-1
 275 444 l 1,32,-1
279 288 m 25,36,37
 279 288 279 288 301 288 c 1,38,-1
 278 198 l 9,39,-1
 279 288 l 25,36,37
EndSplineSet
EndChar
